<svg width="15" height="15" viewBox="0 0 15 15" fill="none" xmlns="http://www.w3.org/2000/svg">
<path d="M13.5422 7.29061C13.5038 5.67893 12.9156 4.30838 11.7775 3.17893C10.6394 2.04949 9.25831 1.46574 7.63427 1.42766V0C8.63171 0.0253811 9.57161 0.228426 10.454 0.609137C11.3363 1.00254 12.11 1.52919 12.7749 2.18909C13.4399 2.84898 13.9642 3.61675 14.3478 4.49239C14.7442 5.36802 14.9488 6.30076 14.9616 7.29061H13.5422ZM10.0895 7.29061C10.0384 6.63071 9.78261 6.07234 9.32225 5.61548C8.8491 5.15863 8.28644 4.91117 7.63427 4.8731V3.44543C8.68286 3.49619 9.578 3.88959 10.3197 4.62563C11.0742 5.36168 11.4706 6.25 11.509 7.29061H10.0895ZM13.9642 15C12.2506 15 10.5627 14.5939 8.90026 13.7817C7.22506 12.9695 5.7289 11.9099 4.41176 10.6028C3.09463 9.30838 2.03325 7.82995 1.22762 6.16751C0.409207 4.50508 0 2.8236 0 1.1231C0 0.843908 0.0959079 0.602792 0.287724 0.399746C0.492327 0.209391 0.741688 0.114213 1.03581 0.114213H4.04731C4.29028 0.114213 4.50128 0.190355 4.68031 0.34264C4.85933 0.482233 4.97442 0.685279 5.02558 0.951777L5.58184 3.52157C5.6202 3.75 5.61381 3.95939 5.56266 4.14975C5.5243 4.3401 5.42839 4.49873 5.27494 4.62563L3.24169 6.62437C3.91944 7.74112 4.69309 8.73096 5.56266 9.59391C6.44501 10.4569 7.42967 11.1929 8.51662 11.802L10.4923 9.84137C10.6458 9.66371 10.8312 9.54315 11.0486 9.4797C11.2532 9.41624 11.4706 9.4099 11.7008 9.46066L14.156 9.97462C14.4118 10.0381 14.6164 10.165 14.7698 10.3553C14.9233 10.533 15 10.7551 15 11.0216V13.9721C15 14.264 14.9041 14.5051 14.7123 14.6954C14.5077 14.8985 14.2583 15 13.9642 15ZM2.47442 5.21574L4.02813 3.69289L3.60614 1.65609H1.57289C1.58568 2.16371 1.6624 2.70939 1.80307 3.29315C1.94373 3.8769 2.16752 4.51777 2.47442 5.21574ZM9.95524 12.5635C10.4923 12.8046 11.0614 13.0013 11.6624 13.1536C12.2634 13.3058 12.8581 13.401 13.4463 13.4391V11.4023L11.4898 11.0025L9.95524 12.5635Z" fill="#1E1E1E"/>
</svg>
