<svg width="27" height="22" viewBox="0 0 27 22" fill="none" xmlns="http://www.w3.org/2000/svg">
<path fill-rule="evenodd" clip-rule="evenodd" d="M5.30035 9.37177H2.89453V10.9437L5.30035 10.9436V9.37177Z" fill="#82BFAB"/>
<path fill-rule="evenodd" clip-rule="evenodd" d="M5.73743 11.8493H2.89453V13.4212H7.1796V9.37177H6.17445V11.3964C6.17445 11.6465 5.97867 11.8493 5.73743 11.8493Z" fill="#82BFAB"/>
<path fill-rule="evenodd" clip-rule="evenodd" d="M8.05273 9.37177L8.0528 13.4212H9.39934V9.37177H8.05273Z" fill="#82BFAB"/>
<path fill-rule="evenodd" clip-rule="evenodd" d="M23.2201 15.1218H13.5234V19.4158H23.2201V15.1218Z" fill="#82BFAB"/>
<path fill-rule="evenodd" clip-rule="evenodd" d="M23.598 11.8491H13.1456C12.9042 11.8491 12.7084 11.6464 12.7084 11.3963C12.7086 11.1462 12.9042 10.9435 13.1455 10.9435L23.598 10.9435C23.8393 10.9435 24.035 11.1462 24.035 11.3963C24.0351 11.6464 23.8393 11.8491 23.598 11.8491ZM10.2748 8.91888L10.2748 13.8739C10.2748 14.1239 10.079 14.3267 9.83776 14.3267H7.61705H2.45761C2.21625 14.3267 2.0204 14.124 2.0204 13.874V11.3964V8.91881C2.0204 8.66872 2.21618 8.46604 2.45748 8.46604H5.73747H7.61679H9.8377C10.079 8.46604 10.2748 8.66878 10.2748 8.91888ZM25.3908 6.48188L2.08372 6.48181L1.60901 6.48188C0.7217 6.48188 0 7.2294 0 8.14828L0.000129417 20.3331C0.000129417 21.2523 0.7217 21.9999 1.60901 21.9999H25.391C26.2784 21.9999 27 21.2523 27 20.3332V8.14815C27 7.58539 26.7293 7.08689 26.3156 6.78509C26.3058 6.77938 26.2963 6.77322 26.2868 6.76671C26.061 6.6083 25.8035 6.5134 25.5345 6.48845C25.5339 6.48838 25.5333 6.48832 25.5327 6.48832C25.486 6.48409 25.4385 6.48188 25.3908 6.48188ZM23.598 9.31034H13.1456C12.9042 9.31034 12.7084 9.10767 12.7084 8.85758C12.7086 8.60755 12.9042 8.40481 13.1455 8.40481L23.598 8.40474C23.8393 8.40474 24.035 8.60755 24.035 8.85758C24.0351 9.1076 23.8393 9.31041 23.598 9.31034ZM13.0864 14.2162H23.6571C23.8985 14.2162 24.0942 14.4189 24.0942 14.669L24.0944 19.8686C24.0944 20.1185 23.8984 20.3214 23.6571 20.3214H13.0864C12.845 20.3214 12.6492 20.1186 12.6492 19.8686V14.6689C12.6493 14.4189 12.845 14.2162 13.0864 14.2162Z" fill="#616E7D"/>
<path fill-rule="evenodd" clip-rule="evenodd" d="M22.544 0.0719249L5.03125 5.57634H25.392C25.5468 5.57634 25.6998 5.59117 25.8501 5.62047L24.5503 1.18281C24.293 0.303505 23.3925 -0.194799 22.544 0.0719249Z" fill="#616E7D"/>
</svg>
