<svg width="26" height="25" viewBox="0 0 26 25" fill="none" xmlns="http://www.w3.org/2000/svg">
<path fill-rule="evenodd" clip-rule="evenodd" d="M20.7213 7.38538C20.7985 7.36022 20.9013 7.41055 21.0041 7.54894C21.0041 7.54894 21.0041 7.54894 25.6578 11.9775C25.9278 12.2417 25.9278 12.6443 25.6578 12.8456C25.6578 12.8456 25.6578 12.8456 21.0041 17.3497C20.9013 17.4755 20.7985 17.5133 20.7213 17.4755C20.6442 17.4378 20.5928 17.312 20.5928 17.1484V7.67475C20.5928 7.5112 20.6442 7.41055 20.7213 7.38538Z" fill="#ED1C24"/>
<path fill-rule="evenodd" clip-rule="evenodd" d="M12.7634 0H13.0976L13.4062 0.125812C13.4062 0.125812 13.4062 0.125812 18.2012 4.76829C18.4069 5.0325 18.3298 5.22121 17.9956 5.22121C17.9956 5.22121 17.9956 5.22121 16.003 5.22121C15.6687 5.22121 15.3859 5.498 15.3859 5.82511C15.3859 5.82511 15.3859 5.82511 15.3859 9.27237C15.3859 9.59949 15.1159 9.86369 14.7046 9.86369C14.7046 9.86369 14.7046 9.86369 11.2208 9.86369C10.8737 9.86369 10.6037 9.59949 10.6037 9.27237C10.6037 9.27237 10.6037 9.27237 10.6037 5.82511C10.6037 5.498 10.3337 5.22121 9.98663 5.22121H7.86549C7.51839 5.22121 7.45412 5.0325 7.6598 4.76829C7.6598 4.76829 7.6598 4.76829 12.4549 0.125812L12.7634 0Z" fill="#ED1C24"/>
<path fill-rule="evenodd" clip-rule="evenodd" d="M5.26751 7.28472C5.34464 7.33504 5.39606 7.44827 5.39606 7.61183V17.2742C5.39606 17.4504 5.34464 17.551 5.26751 17.5762C5.17752 17.6139 5.06182 17.5762 4.92041 17.4755C4.92041 17.4755 4.92041 17.4755 0.202473 12.8456C-0.067491 12.6443 -0.067491 12.2417 0.202473 11.9775C0.202473 11.9775 0.202473 11.9775 4.92041 7.41053C5.06182 7.28472 5.17752 7.24697 5.26751 7.28472Z" fill="#ED1C24"/>
<path fill-rule="evenodd" clip-rule="evenodd" d="M11.2194 14.8965C11.2194 14.8965 11.2194 14.8965 14.7032 14.8965C15.1146 14.8965 15.3974 15.1607 15.3974 15.5004C15.3974 15.5004 15.3974 15.5004 15.3974 19.1364C15.3974 19.539 15.6674 19.8032 16.0016 19.8032H17.8528C18.1999 19.8032 18.3284 19.9919 18.0585 20.1932C18.0585 20.1932 18.0585 20.1932 13.4048 24.7602C13.2634 24.8986 13.0963 24.9615 12.9292 24.9615C12.7621 24.9615 12.5821 24.8986 12.4535 24.7602C12.4535 24.7602 12.4535 24.7602 7.79986 20.1932C7.51704 19.9919 7.65845 19.8032 7.99269 19.8032C7.99269 19.8032 7.99269 19.8032 9.98528 19.8032C10.3324 19.8032 10.6023 19.539 10.6023 19.1364C10.6023 19.1364 10.6023 19.1364 10.6023 15.5004C10.6023 15.1607 10.8723 14.8965 11.2194 14.8965Z" fill="#ED1C24"/>
</svg>
