<svg width="27" height="20" viewBox="0 0 27 20" fill="none" xmlns="http://www.w3.org/2000/svg">
<path d="M24.5601 3.49365H0.373047V8.02451H24.5601V3.49365Z" fill="#82BFAB"/>
<path d="M24.8787 9.61963L24.9324 9.62197V1.39317C24.9324 0.623806 24.3603 0 23.6538 0H1.27881C0.572337 0 0 0.623806 0 1.39317V16.381C0 17.1506 0.572298 17.7749 1.27881 17.7749H18.9498C18.8454 17.289 18.7849 16.7852 18.7849 16.2649C18.7848 12.6006 21.5188 9.61963 24.8787 9.61963ZM0.372889 7.08618V2.55532H24.56V7.08618H0.372889Z" fill="#616E7D"/>
<path d="M17.0283 14.5624C17.0283 17.5604 19.2652 20 22.0141 20C24.7639 20 27.0009 17.5604 27.0009 14.5624C27.0009 11.5636 24.7639 9.12476 22.0141 9.12476C19.2651 9.12476 17.0283 11.5635 17.0283 14.5624ZM25.9021 14.5624C25.9021 16.8714 24.1856 18.7435 22.068 18.7435C19.9504 18.7435 18.2337 16.8714 18.2337 14.5624C18.2337 12.2536 19.9504 10.3817 22.068 10.3817C24.1856 10.3817 25.9021 12.2536 25.9021 14.5624Z" fill="#616E7D"/>
<path d="M21.9072 17.7757H22.3459C22.4784 17.7757 22.5855 17.6588 22.5855 17.5147V17.0699C22.9367 17.0127 23.2425 16.8927 23.5022 16.7074C23.9115 16.4121 24.1217 16.0067 24.131 15.4876C24.1375 15.164 24.0549 14.8892 23.8839 14.6636C23.6061 14.3028 23.1731 14.0771 22.5855 13.9871V13.0865C22.6887 13.1394 22.7892 13.2104 22.8845 13.3012C22.9439 13.3547 23.0119 13.3818 23.0898 13.3822C23.1526 13.3825 23.2393 13.3344 23.2393 13.3344L23.2409 13.3336L23.7328 12.9973C23.7994 12.9512 23.834 12.8919 23.836 12.82C23.836 12.7622 23.8148 12.7119 23.7705 12.6686C23.464 12.2881 23.0684 12.0519 22.5855 11.9603V11.4532C22.5855 11.3089 22.4784 11.1917 22.3459 11.1917H21.9072C21.7753 11.1917 21.6679 11.3089 21.6679 11.4532V11.9469C21.4409 11.9815 21.2353 12.0442 21.0524 12.1352C20.462 12.4282 20.1727 12.8675 20.1826 13.4492C20.1869 13.7359 20.2666 13.9893 20.4189 14.2096C20.6759 14.585 21.0924 14.8198 21.6679 14.9167V16.0415C21.419 15.9457 21.1841 15.7674 20.9623 15.5056C20.9142 15.4369 20.8489 15.4024 20.768 15.4024C20.724 15.4024 20.6368 15.444 20.6368 15.444L20.6359 15.4446L20.1885 15.7307C20.1121 15.7792 20.0744 15.8435 20.0762 15.9224C20.0769 15.9738 20.0943 16.0198 20.1282 16.0613C20.2449 16.2385 20.4012 16.4087 20.5968 16.5708C20.9132 16.8364 21.2703 17.0019 21.6678 17.0707V17.5147C21.6678 17.6589 21.7753 17.7757 21.9072 17.7757ZM22.5855 15.0372C22.8222 15.119 22.9423 15.2689 22.9403 15.4906C22.9394 15.6964 22.852 15.856 22.6815 15.9692C22.6514 15.9901 22.6189 16.0077 22.5855 16.0241V15.0372ZM21.3787 13.4521C21.3772 13.2909 21.4623 13.1658 21.6339 13.0764L21.6678 13.0621V13.8605C21.4758 13.7805 21.3796 13.6443 21.3787 13.4521Z" fill="white"/>
<path d="M21.5117 13.6877C21.5129 13.8802 21.6091 14.0158 21.8006 14.0965V13.2976L21.7672 13.312C21.5955 13.4015 21.5103 13.5269 21.5117 13.6877Z" fill="#AAD4C8"/>
<path d="M22.4316 15.7826C22.4651 15.7661 22.4978 15.7486 22.5276 15.7274C22.6988 15.6144 22.7851 15.4548 22.7871 15.2489C22.7885 15.0273 22.6683 14.8769 22.4316 14.7954V15.7826Z" fill="#AAD4C8"/>
<path d="M18.2217 14.5625C18.2217 16.8715 19.9386 18.7436 22.0562 18.7436C24.1736 18.7436 25.8904 16.8715 25.8904 14.5625C25.8904 12.2537 24.1736 10.3818 22.0562 10.3818C19.9386 10.3818 18.2217 12.2537 18.2217 14.5625ZM22.5992 11.4295V11.9367C23.0821 12.0283 23.4777 12.2645 23.7838 12.645C23.8285 12.6882 23.8491 12.7388 23.8491 12.7967C23.8477 12.8684 23.8129 12.9275 23.7463 12.9738L23.2542 13.3102L23.2532 13.3109C23.2532 13.3109 23.1661 13.3589 23.1037 13.3587C23.0254 13.3582 22.9573 13.3311 22.8982 13.2774C22.8024 13.1868 22.7021 13.1156 22.5991 13.0629V13.9637C23.1868 14.0537 23.6198 14.279 23.8974 14.6399C24.0681 14.8654 24.151 15.1405 24.1447 15.4643C24.1354 15.9832 23.9251 16.3886 23.5161 16.6837C23.2559 16.8693 22.9501 16.9895 22.5991 17.0464V17.491C22.5991 17.6354 22.4917 17.7519 22.3595 17.7519H21.9207C21.7888 17.7519 21.681 17.6354 21.681 17.491V17.0472C21.2838 16.9781 20.9264 16.813 20.6103 16.5472C20.4149 16.385 20.2581 16.2151 20.1418 16.0379C20.108 15.9964 20.0906 15.9503 20.0897 15.8988C20.0881 15.82 20.1256 15.7557 20.2019 15.7073L20.6491 15.4212L20.6504 15.4203C20.6504 15.4203 20.7374 15.3788 20.7814 15.3788C20.8623 15.3788 20.9274 15.4131 20.9754 15.4823C21.1975 15.7439 21.4321 15.9221 21.681 16.018V14.893C21.1056 14.7964 20.6893 14.5615 20.4323 14.1862C20.2798 13.9658 20.2003 13.7122 20.196 13.4257C20.1861 12.844 20.4757 12.4048 21.066 12.112C21.2485 12.0205 21.4543 11.9581 21.681 11.9233V11.4296C21.681 11.2853 21.7888 11.1682 21.9207 11.1682H22.3595C22.4917 11.1682 22.5992 11.2852 22.5992 11.4295Z" fill="#AAD4C8"/>
</svg>
