<svg width="23" height="29" viewBox="0 0 23 29" fill="none" xmlns="http://www.w3.org/2000/svg">
<path d="M11.4979 28.9998C15.2667 28.9998 18.3219 28.6806 18.3219 28.2869C18.3219 27.8932 15.2667 27.574 11.4979 27.574C7.72905 27.574 4.67383 27.8932 4.67383 28.2869C4.67383 28.6806 7.72905 28.9998 11.4979 28.9998Z" fill="#D3DADD"/>
<path d="M22.9987 10.7904C23.0431 15.4946 19.9376 19.5175 15.5588 21.0821L11.9607 28.0151C11.7725 28.3777 11.2266 28.3777 11.0385 28.0151L7.44031 21.0821C3.09242 19.5285 0 15.5513 0 10.89C0 4.88639 5.1301 0.0174726 11.4655 4.64475e-05C17.7761 -0.0172789 22.9423 4.8145 22.9987 10.7904Z" fill="#DD3E3E"/>
<path d="M11.4998 19.4709C16.5042 19.4709 20.5611 15.629 20.5611 10.8898C20.5611 6.15069 16.5042 2.30884 11.4998 2.30884C6.49537 2.30884 2.43848 6.15069 2.43848 10.8898C2.43848 15.629 6.49537 19.4709 11.4998 19.4709Z" fill="white"/>
<path d="M23 10.8901C23 15.5513 19.9074 19.5286 15.5596 21.0822L11.9614 28.0152C11.7732 28.3778 11.2274 28.3778 11.0392 28.0152L8.2998 22.7371L10.9253 26.266C11.0884 26.4852 11.4399 26.4591 11.5649 26.2185L14.5879 20.4006C14.5879 20.4006 21.9343 18.2496 21.9343 10.9733C21.9343 6.43022 19.8798 3.60994 18.3365 2.13232C21.1658 4.11624 23 7.30034 23 10.8901Z" fill="#B23B3B"/>
<path d="M18.2035 5.11684C16.5942 3.73098 14.4559 2.88622 12.1092 2.88622C7.10471 2.88622 3.04784 6.72805 3.04784 11.4672C3.04784 13.6901 3.94024 15.7154 5.40438 17.2396C3.58232 15.67 2.43848 13.4066 2.43848 10.8903C2.43848 6.15115 6.49535 2.30933 11.4998 2.30933C14.1564 2.30933 16.5461 3.39204 18.2035 5.11684Z" fill="#DDE5E8"/>
<path d="M16.5486 16.0062C15.2268 17.177 13.4507 17.8937 11.4979 17.8937C9.54519 17.8937 7.76909 17.177 6.44727 16.0062C6.67032 15.2635 7.09088 14.5994 7.6518 14.0684C8.36941 13.3885 9.31735 12.9263 10.3749 12.7953V12.261C9.12996 11.7993 8.24146 10.591 8.24146 9.1734V7.58102C8.24146 5.76496 9.6994 4.62915 11.4979 4.62915C12.397 4.62915 13.2111 4.91298 13.8004 5.42417C14.3896 5.93502 14.7542 6.67307 14.7542 7.58102V9.1734C14.7542 10.591 13.8657 11.7993 12.6208 12.261V12.7953C14.5049 13.0288 16.0399 14.3129 16.5486 16.0062Z" fill="#DD3E3E"/>
</svg>
