<svg width="17" height="25" viewBox="0 0 17 25" fill="none" xmlns="http://www.w3.org/2000/svg">
<path d="M16.2601 14.3519C16.2594 14.3518 8.06713 12.4787 8.06713 12.4787C5.6253 11.9205 4.09352 9.46788 4.64594 7.0007C5.19869 4.53353 7.62625 2.98628 10.0681 3.5444C12.5101 4.10273 14.0417 6.55527 13.4892 9.02228C13.2124 10.2575 12.4656 11.2612 11.4823 11.8865C11.4822 11.8865 11.4798 11.8885 11.4789 11.889C11.45 11.91 11.4312 11.9441 11.4312 11.9825C11.4312 12.0363 11.468 12.0815 11.5177 12.0936C11.5178 12.0938 15.1621 12.9264 15.1628 12.9264C15.2495 12.9462 15.3395 12.9124 15.3928 12.8413C16.3968 11.4991 17 9.82423 17 8.01283C17 3.74698 13.7012 0.260815 9.54031 0.0132065C9.50323 0.0111351 9.27773 0.00223541 9.20155 0.00113678C7.35929 -0.0280819 5.4914 0.505615 3.86708 1.6549C-0.234902 4.55669 -1.23153 10.2684 1.64035 14.4125L8.92908 24.9294C8.96021 24.9722 9.01033 25 9.06656 25C9.12328 25 9.17356 24.9717 9.20453 24.9286C9.20453 24.9286 16.3619 14.6162 16.3625 14.6152C16.3808 14.5879 16.3916 14.5548 16.3916 14.5192C16.3916 14.4376 16.3355 14.3693 16.2601 14.3519Z" fill="#FFD700"/>
</svg>
