<svg width="15" height="15" viewBox="0 0 15 15" fill="none" xmlns="http://www.w3.org/2000/svg">
<g clip-path="url(#clip0_163_234)">
<path d="M0.148438 11.7656V14.8125H3.19531L12.248 5.78906L9.17188 2.71289L0.148438 11.7656ZM14.6211 3.41602C14.6992 3.33789 14.7578 3.25 14.7969 3.15234C14.8359 3.05469 14.8555 2.94727 14.8555 2.83008C14.8555 2.71289 14.8359 2.60547 14.7969 2.50781C14.7578 2.41016 14.6992 2.32227 14.6211 2.24414L12.7168 0.339844C12.6387 0.261719 12.5508 0.203125 12.4531 0.164062C12.3555 0.125 12.248 0.105469 12.1309 0.105469C12.0137 0.105469 11.9062 0.125 11.8086 0.164062C11.7109 0.203125 11.623 0.261719 11.5449 0.339844L10.0508 1.83398L13.127 4.91016L14.6211 3.41602Z" fill="#163932"/>
</g>
<defs>
<clipPath id="clip0_163_234">
<rect width="15" height="15" fill="white" transform="matrix(1 0 0 -1 0 15)"/>
</clipPath>
</defs>
</svg>
