<svg width="22" height="22" viewBox="0 0 22 22" fill="none" xmlns="http://www.w3.org/2000/svg">
<path d="M11 0.158203C9.51042 0.158203 8.10547 0.445963 6.78516 1.02148C5.46484 1.58008 4.3138 2.35026 3.33203 3.33203C2.35026 4.3138 1.58008 5.46484 1.02148 6.78516C0.445964 8.10547 0.158203 9.51042 0.158203 11C0.158203 12.4896 0.445964 13.8945 1.02148 15.2148C1.58008 16.5352 2.35026 17.6862 3.33203 18.668C4.3138 19.6497 5.46484 20.4199 6.78516 20.9785C8.10547 21.554 9.51042 21.8418 11 21.8418C12.4896 21.8418 13.8945 21.554 15.2148 20.9785C16.5352 20.4199 17.6862 19.6497 18.668 18.668C19.6497 17.6862 20.4199 16.5352 20.9785 15.2148C21.554 13.8945 21.8418 12.4896 21.8418 11C21.8418 9.51042 21.554 8.10547 20.9785 6.78516C20.4199 5.46484 19.6497 4.3138 18.668 3.33203C17.6862 2.35026 16.5352 1.58008 15.2148 1.02148C13.8945 0.445963 12.4896 0.158203 11 0.158203ZM5.66797 17.8047C5.88802 17.3138 6.5778 16.8695 7.7373 16.4717C8.89681 16.0739 9.98438 15.875 11 15.875C12.0156 15.875 13.1032 16.0739 14.2627 16.4717C15.4222 16.8695 16.112 17.3138 16.332 17.8047C15.6042 18.3971 14.7874 18.8542 13.8818 19.1758C12.9762 19.4974 12.0156 19.6582 11 19.6582C9.98438 19.6582 9.02376 19.4974 8.11816 19.1758C7.21256 18.8542 6.39583 18.3971 5.66797 17.8047ZM17.8809 16.2305C17.4915 15.7565 16.9922 15.3587 16.3828 15.0371C15.7565 14.7155 15.1133 14.4574 14.4531 14.2627C13.793 14.068 13.1497 13.9284 12.5234 13.8438C11.8971 13.7591 11.3893 13.7168 11 13.7168C10.6107 13.7168 10.1029 13.7591 9.47656 13.8438C8.85026 13.9284 8.20703 14.068 7.54688 14.2627C6.88672 14.4574 6.24349 14.7155 5.61719 15.0371C5.00781 15.3587 4.50846 15.7565 4.11914 16.2305C3.56055 15.5026 3.12467 14.6943 2.81152 13.8057C2.49837 12.917 2.3418 11.9818 2.3418 11C2.3418 9.79818 2.57031 8.67253 3.02734 7.62305C3.46745 6.57357 4.08105 5.65527 4.86816 4.86816C5.65527 4.08105 6.57357 3.46745 7.62305 3.02734C8.67253 2.57031 9.79818 2.3418 11 2.3418C12.2018 2.3418 13.3275 2.57031 14.377 3.02734C15.4264 3.46745 16.3447 4.08105 17.1318 4.86816C17.9189 5.65527 18.5326 6.57357 18.9727 7.62305C19.4297 8.67253 19.6582 9.79818 19.6582 11C19.6582 11.9818 19.5016 12.917 19.1885 13.8057C18.8753 14.6943 18.4395 15.5026 17.8809 16.2305ZM11 4.5C9.95052 4.5 9.05762 4.86816 8.32129 5.60449C7.58496 6.34082 7.2168 7.23372 7.2168 8.2832C7.2168 9.33268 7.58496 10.2298 8.32129 10.9746C9.05762 11.7194 9.95052 12.0918 11 12.0918C12.0495 12.0918 12.9424 11.7194 13.6787 10.9746C14.415 10.2298 14.7832 9.33268 14.7832 8.2832C14.7832 7.23372 14.415 6.34082 13.6787 5.60449C12.9424 4.86816 12.0495 4.5 11 4.5ZM11 9.9082C10.543 9.9082 10.1579 9.75163 9.84473 9.43848C9.53158 9.12533 9.375 8.74023 9.375 8.2832C9.375 7.8431 9.53158 7.46224 9.84473 7.14062C10.1579 6.81901 10.543 6.6582 11 6.6582C11.457 6.6582 11.8421 6.81901 12.1553 7.14062C12.4684 7.46224 12.625 7.8431 12.625 8.2832C12.625 8.74023 12.4684 9.12533 12.1553 9.43848C11.8421 9.75163 11.457 9.9082 11 9.9082Z" fill="#1E1E1E"/>
</svg>
