<svg width="20" height="23" viewBox="0 0 20 23" fill="none" xmlns="http://www.w3.org/2000/svg">
<path d="M17.5918 5.5H15.4082C15.4082 4.75521 15.2728 4.05273 15.002 3.39258C14.7142 2.73242 14.3249 2.1569 13.834 1.66602C13.3431 1.17513 12.7676 0.785807 12.1074 0.498047C11.4473 0.227213 10.7448 0.0917969 10 0.0917969C9.25521 0.0917969 8.55273 0.227213 7.89258 0.498047C7.23242 0.785807 6.6569 1.17513 6.16602 1.66602C5.67513 2.1569 5.28581 2.73242 4.99805 3.39258C4.72721 4.05273 4.5918 4.75521 4.5918 5.5H2.4082C1.81576 5.5 1.30794 5.71159 0.884766 6.13477C0.461589 6.55794 0.25 7.06575 0.25 7.6582V20.6582C0.25 21.2676 0.461589 21.7839 0.884766 22.207C1.30794 22.6302 1.81576 22.8418 2.4082 22.8418H17.5918C18.1842 22.8418 18.6921 22.6302 19.1152 22.207C19.5384 21.7839 19.75 21.2676 19.75 20.6582V7.6582C19.75 7.06575 19.5384 6.55794 19.1152 6.13477C18.6921 5.71159 18.1842 5.5 17.5918 5.5ZM10 2.25C10.8971 2.25 11.6631 2.56738 12.2979 3.20215C12.9326 3.83691 13.25 4.60287 13.25 5.5H6.75C6.75 4.60287 7.06738 3.83691 7.70215 3.20215C8.33691 2.56738 9.10286 2.25 10 2.25ZM10 13.0918C9.25521 13.0918 8.55273 12.9479 7.89258 12.6602C7.23242 12.3724 6.6569 11.9831 6.16602 11.4922C5.67513 11.0013 5.28581 10.4258 4.99805 9.76562C4.72721 9.10547 4.5918 8.403 4.5918 7.6582H6.75C6.75 8.55534 7.06738 9.32129 7.70215 9.95605C8.33691 10.5908 9.10286 10.9082 10 10.9082C10.8971 10.9082 11.6631 10.5908 12.2979 9.95605C12.9326 9.32129 13.25 8.55534 13.25 7.6582H15.4082C15.4082 8.403 15.2728 9.10547 15.002 9.76562C14.7142 10.4258 14.3249 11.0013 13.834 11.4922C13.3431 11.9831 12.7676 12.3724 12.1074 12.6602C11.4473 12.9479 10.7448 13.0918 10 13.0918Z" fill="#1E1E1E"/>
</svg>
