<svg width="22" height="20" viewBox="0 0 22 20" fill="none" xmlns="http://www.w3.org/2000/svg">
<path d="M15.875 0.0722656C14.9271 0.0722656 14.0257 0.275391 13.1709 0.681641C12.3161 1.08789 11.5924 1.63802 11 2.33203C10.4076 1.63802 9.68392 1.08789 8.8291 0.681641C7.97428 0.275391 7.07292 0.0722656 6.125 0.0722656C5.29557 0.0722656 4.51693 0.224609 3.78906 0.529297C3.0612 0.833984 2.43066 1.25293 1.89746 1.78613C1.36426 2.31934 0.945312 2.94987 0.640625 3.67773C0.31901 4.4056 0.158203 5.18425 0.158203 6.01367C0.158203 7.04622 0.378255 8.03646 0.818359 8.98438C1.27539 9.94922 1.90592 10.9225 2.70996 11.9043C3.514 12.8861 4.48307 13.9186 5.61719 15.002C6.76823 16.0853 8.03776 17.2617 9.42578 18.5312L11 19.9277L12.5742 18.5059C13.9622 17.2363 15.2318 16.0684 16.3828 15.002C17.5169 13.9186 18.486 12.8818 19.29 11.8916C20.0941 10.9014 20.7246 9.93229 21.1816 8.98438C21.6217 8.03646 21.8418 7.04622 21.8418 6.01367C21.8418 5.18425 21.681 4.4056 21.3594 3.67773C21.0547 2.94987 20.6357 2.31934 20.1025 1.78613C19.5693 1.25293 18.9388 0.833984 18.2109 0.529297C17.4831 0.224609 16.7044 0.0722656 15.875 0.0722656ZM11.1016 16.9062L11 17.0078L10.8984 16.9062C9.61198 15.7383 8.43555 14.6634 7.36914 13.6816C6.31966 12.6829 5.42253 11.7477 4.67773 10.876C3.93294 10.0042 3.35742 9.17057 2.95117 8.375C2.54492 7.57943 2.3418 6.79232 2.3418 6.01367C2.3418 4.93034 2.7015 4.02897 3.4209 3.30957C4.1403 2.59017 5.04167 2.23047 6.125 2.23047C6.95443 2.23047 7.73307 2.47168 8.46094 2.9541C9.1888 3.43652 9.69661 4.05013 9.98438 4.79492H12.0156C12.3034 4.05013 12.8112 3.43652 13.5391 2.9541C14.2669 2.47168 15.0456 2.23047 15.875 2.23047C16.9583 2.23047 17.8597 2.59017 18.5791 3.30957C19.2985 4.02897 19.6582 4.93034 19.6582 6.01367C19.6582 6.79232 19.4551 7.57943 19.0488 8.375C18.6426 9.17057 18.0671 10.0042 17.3223 10.876C16.5775 11.7477 15.6803 12.6829 14.6309 13.6816C13.5645 14.6634 12.388 15.7383 11.1016 16.9062Z" fill="#1E1E1E"/>
</svg>
