<svg width="26" height="26" viewBox="0 0 26 26" fill="none" xmlns="http://www.w3.org/2000/svg">
<path d="M20.998 12.7207C20.9473 10.571 20.1686 8.74284 18.6621 7.23633C17.1556 5.72982 15.3275 4.95117 13.1777 4.90039V2.99609C14.498 3.02995 15.7422 3.30078 16.9102 3.80859C18.0781 4.33333 19.1022 5.03581 19.9824 5.91602C20.8626 6.79622 21.5566 7.82031 22.0645 8.98828C22.5892 10.1562 22.86 11.4004 22.877 12.7207H20.998ZM16.4277 12.7207C16.36 11.8405 16.0215 11.0957 15.4121 10.4863C14.7858 9.87695 14.041 9.54688 13.1777 9.49609V7.5918C14.5658 7.6595 15.7507 8.18425 16.7324 9.16602C17.7311 10.1478 18.2559 11.3327 18.3066 12.7207H16.4277ZM21.5566 23.0039C19.2884 23.0039 17.054 22.4622 14.8535 21.3789C12.6361 20.2956 10.6556 18.8822 8.91211 17.1387C7.16862 15.4121 5.76367 13.4401 4.69727 11.2227C3.61393 9.00521 3.07227 6.76237 3.07227 4.49414C3.07227 4.12174 3.19922 3.80013 3.45312 3.5293C3.72396 3.27539 4.05404 3.14844 4.44336 3.14844H8.42969C8.7513 3.14844 9.0306 3.25 9.26758 3.45312C9.50456 3.63932 9.6569 3.91016 9.72461 4.26562L10.4609 7.69336C10.5117 7.99805 10.5033 8.27734 10.4355 8.53125C10.3848 8.78516 10.2578 8.99675 10.0547 9.16602L7.36328 11.832C8.26042 13.3216 9.28451 14.6419 10.4355 15.793C11.6035 16.944 12.9069 17.9258 14.3457 18.7383L16.9609 16.123C17.1641 15.8861 17.4095 15.7253 17.6973 15.6406C17.9681 15.556 18.2559 15.5475 18.5605 15.6152L21.8105 16.3008C22.1491 16.3854 22.4199 16.5547 22.623 16.8086C22.8262 17.0456 22.9277 17.3418 22.9277 17.6973V21.6328C22.9277 22.0221 22.8008 22.3438 22.5469 22.5977C22.276 22.8685 21.946 23.0039 21.5566 23.0039ZM6.34766 9.95312L8.4043 7.92188L7.8457 5.20508H5.1543C5.17122 5.88216 5.27279 6.61003 5.45898 7.38867C5.64518 8.16732 5.94141 9.02214 6.34766 9.95312ZM16.25 19.7539C16.9609 20.0755 17.7142 20.3379 18.5098 20.541C19.3053 20.7441 20.0924 20.8711 20.8711 20.9219V18.2051L18.2812 17.6719L16.25 19.7539Z" fill="#1E1E1E"/>
</svg>
