<svg width="24" height="24" viewBox="0 0 24 24" fill="none" xmlns="http://www.w3.org/2000/svg">
<path fill-rule="evenodd" clip-rule="evenodd" d="M19.6192 3.49193L19.966 3.27863L18.1157 0.547494C17.8831 0.204321 17.4705 0 17.0119 0C16.9849 0 16.9579 0.000527996 16.9395 0.00158392C15.4501 0.0702187 13.4359 0.611905 12.0012 2.7285C10.5671 0.612433 8.55599 0.0702187 7.07034 0.00211189C7.04333 0.000528008 7.01693 0 6.99115 0C6.53256 0 6.1194 0.204848 5.88612 0.548022L4.03704 3.27863L4.3839 3.49245H0V7.49492H1.51389L3.02594 22.0201H6.96843C7.18637 22.6262 7.83772 23.0433 8.58116 23.0433C8.618 23.0433 8.65483 23.0423 8.69412 23.0402L9.89124 22.9715L9.88939 22.9721H9.89738C9.93912 22.9721 9.96306 22.9773 10.0085 23.0095L10.9177 23.6605C11.2222 23.8796 11.6065 24 12 24C12.3929 24 12.7766 23.8796 13.0817 23.6616L13.9927 23.009C14.0376 22.9768 14.0609 22.9721 14.1008 22.9721C14.1081 22.9721 14.1155 22.9721 14.1235 22.9726L15.3083 23.0402C15.3452 23.0423 15.3826 23.0433 15.4188 23.0433C16.1623 23.0433 16.8136 22.6262 17.0316 22.0201H20.9734L22.4861 7.49492H24V3.49193H19.6192Z" fill="#3960FF"/>
<path fill-rule="evenodd" clip-rule="evenodd" d="M18.4188 3.80882C18.638 3.69901 18.8111 3.60028 18.9333 3.52478L19.4784 3.189L17.7969 0.707057C17.6312 0.462611 17.3377 0.316895 17.0111 0.316895C16.9921 0.316895 16.9731 0.317423 16.9583 0.31795C15.4377 0.387641 13.3602 0.985292 12.0004 3.40335C10.6412 0.985292 8.5638 0.388169 7.04745 0.318478C7.0278 0.317423 7.00877 0.316895 6.99036 0.316895C6.66376 0.316895 6.37031 0.462612 6.20394 0.707585L4.52369 3.189L5.06822 3.52478C5.19039 3.60028 5.36351 3.69953 5.58267 3.80935H0.368164V7.17826H1.85074L3.36279 21.7035H7.25311L7.30161 21.8693C7.45079 22.374 7.9769 22.7267 8.58098 22.7267C8.60984 22.7267 8.63931 22.7256 8.67 22.724L9.86159 22.6559C9.87141 22.6554 9.88062 22.6554 9.88983 22.6554C9.89228 22.6554 9.89535 22.6554 9.89781 22.6554C10.031 22.6554 10.1378 22.6892 10.2447 22.7663L11.1545 23.4172C11.3933 23.5888 11.6935 23.6828 12.0004 23.6828C12.3074 23.6828 12.6076 23.5888 12.8464 23.4178L13.7574 22.7652C13.8642 22.6887 13.9705 22.6543 14.1012 22.6543C14.1166 22.6543 14.1319 22.6549 14.1485 22.6559L15.3327 22.7235C15.3622 22.7251 15.391 22.7256 15.4199 22.7256C16.0246 22.7256 16.5507 22.3729 16.6999 21.8677L16.7484 21.7024H20.6381L22.1507 7.1772H23.6333V3.80882H18.4188Z" fill="#FFFFFE"/>
<path fill-rule="evenodd" clip-rule="evenodd" d="M16.9976 0.950542C14.2351 1.07725 13.049 2.9457 12.5781 3.83426H13.7654H16.5304C17.5145 3.56606 18.1812 3.20863 18.5041 3.00959L17.1603 1.02604C17.1247 0.972717 17.0695 0.946847 16.9976 0.950542Z" fill="#3960FF"/>
<path fill-rule="evenodd" clip-rule="evenodd" d="M5.49805 3.00959C5.82035 3.20863 6.48766 3.56606 7.47114 3.83426H10.2368H11.4241C10.9532 2.9457 9.76714 1.07725 7.00457 0.950542C6.93213 0.946847 6.87749 0.972717 6.84127 1.02604L5.49805 3.00959Z" fill="#3960FF"/>
<path fill-rule="evenodd" clip-rule="evenodd" d="M1.10547 4.44238V6.54419H2.19024C2.19883 6.54419 2.20681 6.54366 2.21541 6.54419H9.88308V4.44238H1.10547Z" fill="#3960FF"/>
<path fill-rule="evenodd" clip-rule="evenodd" d="M10.5898 4.44238L10.5905 6.54419H13.4126V4.44238H12.0356H12.0331H11.9687H11.9662H10.5898Z" fill="#3960FF"/>
<path fill-rule="evenodd" clip-rule="evenodd" d="M14.1191 4.44238V6.54419H21.7868C21.7954 6.54366 21.8034 6.54366 21.812 6.54419H22.8968V4.44238H14.1191Z" fill="#3960FF"/>
<path fill-rule="evenodd" clip-rule="evenodd" d="M14.1761 14.9119L10.4381 20.4798C10.3724 20.5775 10.2533 20.6319 10.1311 20.6319C10.0709 20.6319 10.0102 20.6187 9.95492 20.5912C9.78548 20.5073 9.72778 20.3214 9.82539 20.1757L13.5635 14.6078C13.6611 14.4621 13.8772 14.4125 14.0466 14.4964C14.2154 14.5804 14.2737 14.7662 14.1761 14.9119ZM10.1747 14.4558C9.36496 14.4558 8.70624 15.0218 8.70624 15.7181C8.70624 16.4145 9.36496 16.9805 10.1747 16.9805C10.9838 16.9805 11.6425 16.4145 11.6425 15.7181C11.6425 15.0218 10.9838 14.4558 10.1747 14.4558ZM8.62152 12.996C8.33483 12.9796 8.08681 13.1354 8.01621 13.3745L7.72583 14.3623C7.64173 14.648 7.45203 14.8729 7.16165 15.0297L6.15915 15.5729C5.91604 15.7044 5.82088 15.9562 5.9277 16.1849L6.36787 17.131C6.49495 17.405 6.49495 17.6827 6.36787 17.9567L5.9277 18.9023C5.82088 19.1314 5.91604 19.3832 6.15915 19.5147L7.16165 20.0574C7.45203 20.2148 7.64173 20.4392 7.72583 20.7253L8.01621 21.7131C8.08681 21.9523 8.33605 22.1075 8.62152 22.0917L9.8039 22.0241C9.83582 22.022 9.86713 22.0215 9.89844 22.0215C10.2029 22.0215 10.478 22.1075 10.7168 22.2791L11.6272 22.9311C11.847 23.089 12.1552 23.089 12.3755 22.9311L13.286 22.2791C13.5493 22.0901 13.8563 22.004 14.1982 22.0241L15.3806 22.0917C15.6679 22.1075 15.9159 21.9523 15.9865 21.7131L16.1038 21.314C16.1062 21.304 16.1093 21.2939 16.1124 21.2839L16.2769 20.7253C16.361 20.4392 16.5507 20.2148 16.8411 20.0574L17.8436 19.5147C18.0861 19.3832 18.1812 19.1314 18.075 18.9023L17.6349 17.9567C17.5072 17.6827 17.5072 17.405 17.6349 17.131L18.075 16.1849C18.1812 15.9562 18.0861 15.7044 17.8436 15.5729L16.8411 15.0297C16.5507 14.8729 16.361 14.648 16.2769 14.3623L15.9865 13.3745C15.9159 13.1354 15.6667 12.9801 15.3806 12.996L14.1982 13.0636C13.8563 13.0831 13.5493 12.997 13.286 12.8086L12.3755 12.156C12.1552 11.9981 11.8476 11.9981 11.6272 12.156L10.7168 12.8086C10.4534 12.997 10.1465 13.0831 9.8039 13.0636L8.62152 12.996ZM13.8268 18.1066C13.0171 18.1066 12.3584 18.6731 12.3584 19.3695C12.3584 20.0654 13.0171 20.6319 13.8268 20.6319C14.6359 20.6319 15.2947 20.0654 15.2947 19.3695C15.2953 18.6731 14.6366 18.1066 13.8268 18.1066Z" fill="#3960FF"/>
<path fill-rule="evenodd" clip-rule="evenodd" d="M13.8276 18.7148C13.4077 18.7148 13.0664 19.0084 13.0664 19.3695C13.0664 19.7301 13.4077 20.0237 13.8276 20.0237C14.2469 20.0237 14.5883 19.7301 14.5883 19.3695C14.5883 19.0084 14.2463 18.7148 13.8276 18.7148Z" fill="#3960FF"/>
<path fill-rule="evenodd" clip-rule="evenodd" d="M10.1753 15.064C9.75539 15.064 9.41406 15.3575 9.41406 15.7181C9.41406 16.0787 9.75539 16.3722 10.1753 16.3722C10.5946 16.3722 10.9359 16.0787 10.9359 15.7181C10.9359 15.3575 10.594 15.064 10.1753 15.064Z" fill="#3960FF"/>
<path fill-rule="evenodd" clip-rule="evenodd" d="M10.5903 7.15234V12.1072L11.1742 11.6886C11.6536 11.3454 12.3492 11.3454 12.828 11.6886L13.4125 12.1072V7.15234H10.5903Z" fill="#3960FF"/>
<path fill-rule="evenodd" clip-rule="evenodd" d="M14.1196 7.15234V12.4578C14.1301 12.4578 14.1405 12.4573 14.1516 12.4568L15.3339 12.3886C15.9558 12.3538 16.5188 12.7049 16.6716 13.2249L16.9626 14.2128C17.0013 14.3458 17.0823 14.4419 17.2174 14.5147L18.2205 15.058C18.7485 15.3436 18.9633 15.9128 18.7313 16.4106L18.2911 17.3568C18.2322 17.484 18.2322 17.6028 18.2911 17.7305L18.7313 18.6761C18.9633 19.1745 18.7485 19.7437 18.2205 20.0293L17.2174 20.572C17.0829 20.6454 17.0013 20.741 16.9626 20.8745L16.9055 21.0694H19.9658L21.4153 7.15234H14.1196Z" fill="#3960FF"/>
<path fill-rule="evenodd" clip-rule="evenodd" d="M2.58789 7.15234L4.03671 21.0694H7.09702L7.03993 20.8745C7.00064 20.741 6.9196 20.6454 6.78454 20.572L5.78204 20.0293C5.25408 19.7437 5.03921 19.1745 5.27066 18.6761L5.71083 17.7305C5.77037 17.6028 5.77037 17.484 5.71083 17.3568L5.27066 16.4106C5.03921 15.9128 5.25408 15.3436 5.78204 15.058L6.78454 14.5153C6.9196 14.4419 7.00064 14.3458 7.03993 14.2128L7.33031 13.2249C7.48317 12.7049 8.04673 12.3538 8.66862 12.3886L9.851 12.4568C9.86205 12.4573 9.87249 12.4578 9.88292 12.4578V7.15234H2.58789Z" fill="#3960FF"/>
</svg>
