<svg width="19" height="24" viewBox="0 0 19 24" fill="none" xmlns="http://www.w3.org/2000/svg">
<path d="M12.4026 23.491L9.88818 21.5497L9.88822 21.5496L9.88328 21.546C9.66299 21.3844 9.34546 21.3802 9.12532 21.5493L9.12479 21.5497L6.61035 23.491V16.6096C6.71701 16.5902 6.81935 16.573 6.91679 16.5616C7.06878 16.5438 7.18649 16.5431 7.27106 16.5607C7.35539 16.579 7.45552 16.6225 7.57739 16.6924C7.69582 16.7603 7.82036 16.8444 7.95967 16.9384L7.97068 16.9459C7.9763 16.9497 7.98194 16.9536 7.98761 16.9574C8.37205 17.2205 8.87992 17.568 9.49921 17.568C10.1203 17.568 10.6301 17.2185 11.0145 16.955L11.0271 16.9463C11.0274 16.9461 11.0276 16.946 11.0278 16.9458C11.3272 16.7437 11.5412 16.6029 11.7343 16.5681L11.7343 16.5681L11.7412 16.5667C11.826 16.5489 11.9439 16.5495 12.096 16.5672C12.1934 16.5786 12.2958 16.5958 12.4026 16.6153V23.491ZM7.86963 17.6014L7.86963 17.6013H7.86303C7.57354 17.6013 7.26988 17.8122 7.26988 18.1462V21.0877C7.26988 21.4218 7.57354 21.6327 7.86303 21.6327C8.15253 21.6327 8.45619 21.4218 8.45619 21.0877V18.1462C8.45619 17.81 8.15761 17.609 7.86963 17.6014ZM11.1294 17.6013C10.8399 17.6013 10.5362 17.8122 10.5362 18.1462V21.0877C10.5362 21.4218 10.8399 21.6327 11.1294 21.6327C11.4189 21.6327 11.7226 21.4218 11.7226 21.0877V18.1462C11.7226 17.8122 11.4189 17.6013 11.1294 17.6013Z" fill="#3960FF" stroke="white" stroke-width="0.5"/>
<path fill-rule="evenodd" clip-rule="evenodd" d="M9.49987 9.43799C8.75879 10.1964 8.52346 10.7407 8.46271 11.0768C8.38227 11.488 8.51662 11.8006 8.84009 11.9919C9.19693 12.2 9.73605 12.2118 10.1134 12.0206C10.3496 11.8992 10.6123 11.6557 10.5584 11.1636C10.5096 10.8216 10.288 10.2486 9.49987 9.43799Z" fill="#3960FF"/>
<path fill-rule="evenodd" clip-rule="evenodd" d="M7.00031 7.83397C6.91987 8.35475 6.92586 8.92849 7.26302 9.19476C7.34346 9.25876 7.38454 9.35659 7.37085 9.45515C7.35031 9.55372 7.27671 9.63463 7.17574 9.67509C7.12183 9.69789 6.70422 9.84868 6.28662 9.75011C6.44151 10.6357 6.95324 11.3308 7.78246 11.7597C7.80299 11.7714 7.82952 11.7825 7.85006 11.7942C7.75593 11.5508 7.72855 11.2735 7.7893 10.9778C7.91082 10.329 8.40201 9.59417 9.24406 8.78873C9.31167 8.72474 9.39895 8.69017 9.49308 8.69017C9.58722 8.69017 9.68135 8.72474 9.74211 8.78873C10.6449 9.64566 11.1361 10.4217 11.2174 11.0991C11.2439 11.3478 11.2174 11.5795 11.137 11.7884C11.1575 11.7766 11.184 11.7656 11.2046 11.7538C12.0329 11.3308 12.5515 10.6306 12.7004 9.74423C12.276 9.84868 11.8584 9.692 11.8113 9.6692C11.7103 9.62875 11.6359 9.54783 11.6162 9.44927C11.5956 9.3507 11.6367 9.25214 11.7172 9.18888C12.0543 8.9226 12.0603 8.34371 11.9799 7.82808C11.5084 8.15247 10.8546 8.0767 10.781 8.06567C10.68 8.0539 10.5927 8.00168 10.5388 7.92665C10.4849 7.85162 10.478 7.75894 10.5123 7.67803C10.876 6.82698 10.8828 6.09142 10.526 5.48384C10.2025 4.93952 9.67707 4.66148 9.48196 4.58057C9.2937 4.65559 8.76143 4.93952 8.43796 5.48384C8.08111 6.09215 8.08796 6.82698 8.45165 7.67803C8.48502 7.75894 8.47818 7.85162 8.42512 7.92665C8.37121 8.00168 8.28392 8.0539 8.18294 8.06567C8.12561 8.08332 7.47182 8.15835 7.00031 7.83397Z" fill="#3960FF"/>
<path fill-rule="evenodd" clip-rule="evenodd" d="M12.396 6.75088C12.4705 6.93036 12.9891 8.28527 12.5441 9.18854C12.5578 9.18266 12.5646 9.18266 12.5775 9.17677C12.6108 9.165 12.7058 9.12455 12.7657 8.92815C12.8059 8.78913 12.9608 8.69645 13.1294 8.70822C13.298 8.72587 13.4255 8.84136 13.4323 8.98626C13.4999 10.4456 12.8325 11.6093 11.56 12.2639C10.9336 12.5824 10.213 12.7443 9.49166 12.7443C8.77027 12.7443 8.04973 12.5824 7.42333 12.2639C6.14998 11.6093 5.48336 10.4456 5.55097 8.98626C5.55781 8.84136 5.68532 8.71999 5.8539 8.70822C6.02248 8.69057 6.17737 8.78325 6.21759 8.92815C6.27835 9.12528 6.37248 9.16574 6.40585 9.17677C6.41954 9.18266 6.42639 9.18266 6.43922 9.18854C6.00109 8.29115 6.51967 6.93036 6.58727 6.75088C6.64118 6.61186 6.80976 6.53095 6.97834 6.55964C7.14692 6.58832 7.26159 6.72146 7.2479 6.87225C7.22736 7.10395 7.27443 7.26578 7.39594 7.36434C7.47039 7.42245 7.57137 7.45702 7.6655 7.47983C7.27443 6.25217 7.64496 5.41289 8.05658 4.90903C8.54863 4.30072 9.24862 3.9881 9.48481 3.9881C9.72099 3.9881 10.421 4.3066 10.913 4.90903C11.3238 5.41289 11.6943 6.25217 11.3041 7.47983C11.4051 7.45702 11.5061 7.42172 11.5737 7.36434C11.6952 7.26578 11.7423 7.10395 11.7217 6.87225C11.708 6.72734 11.8227 6.59421 11.9913 6.55964C12.1676 6.53095 12.3361 6.61186 12.396 6.75088ZM9.50021 2.77295C5.91637 2.77295 3 5.28049 3 8.3603C3 11.4401 5.91722 13.9476 9.50021 13.9476C13.0832 13.9476 16.0004 11.4401 16.0004 8.3603C16.0004 5.28049 13.0832 2.77295 9.50021 2.77295Z" fill="#3960FF"/>
<path d="M0.517094 9.53603L0.517088 9.53602C0.424281 9.70418 0.345896 9.84929 0.296907 9.97826C0.246241 10.1116 0.244691 10.1842 0.255189 10.2206L0.256853 10.2264L0.256783 10.2264C0.266396 10.2631 0.311316 10.3334 0.434495 10.4378C0.55057 10.5362 0.699049 10.6349 0.859997 10.7407L0.861214 10.7415L0.876834 10.7519C1.19189 10.9616 1.57316 11.2154 1.78647 11.5744L1.78753 11.5762L1.78752 11.5762C1.99861 11.9382 1.99775 12.3574 1.99706 12.6941C1.99702 12.7131 1.99698 12.7318 1.99698 12.7503V12.7554L1.99693 12.7554C1.99346 12.9255 1.99252 13.0769 2.00914 13.2054C2.02622 13.3376 2.0576 13.4066 2.08759 13.4398L1.90187 13.6072M0.517094 9.53603L12.8084 1.14862C13.003 1.11062 13.1854 1.07568 13.3472 1.06105C13.5151 1.04586 13.6222 1.05697 13.6816 1.08176L13.6816 1.08177L13.6836 1.0826C13.7392 1.10521 13.8078 1.16339 13.8905 1.27975C13.9717 1.39398 14.0466 1.53476 14.1292 1.69145L14.1293 1.69167L14.1301 1.69316C14.3001 2.01472 14.5074 2.40699 14.8746 2.66082C15.2351 2.91115 15.6971 2.9954 16.0879 3.06665L16.117 3.07197L16.117 3.072L16.1209 3.07264C16.3136 3.10475 16.4936 3.13745 16.6433 3.18121C16.8014 3.2274 16.883 3.27446 16.9152 3.30907C16.9413 3.33704 16.9715 3.40046 16.9881 3.53402C17.0032 3.65521 17.0031 3.79454 17.003 3.95446C17.003 3.9661 17.003 3.97785 17.003 3.9897C17.003 4.00813 17.003 4.02685 17.0029 4.04584C17.0022 4.38257 17.0014 4.80177 17.2125 5.16381L17.2135 5.1656C17.4268 5.52456 17.8081 5.77834 18.1232 5.98805L18.1388 5.99846L18.14 5.99926C18.301 6.10508 18.4494 6.20378 18.5655 6.30216C18.6887 6.40655 18.7336 6.47692 18.7432 6.51358L18.7431 6.51361L18.7453 6.52103C18.7547 6.55285 18.7543 6.62241 18.7032 6.75618C18.6542 6.88464 18.5757 7.02992 18.4829 7.19807L18.482 7.1997L18.4687 7.22424C18.296 7.54251 18.0813 7.93814 18.0813 8.36705C18.0813 8.79596 18.296 9.19159 18.4687 9.50985L18.481 9.5325L18.4819 9.53418C18.5716 9.70302 18.6487 9.84828 18.6983 9.97863C18.7498 10.114 18.7532 10.1885 18.7433 10.2262C18.7337 10.2626 18.6887 10.333 18.5654 10.4376C18.4495 10.5359 18.3013 10.6347 18.1408 10.7402C17.8216 10.947 17.4228 11.2092 17.2119 11.5771C16.9896 11.9592 16.9964 12.4068 17.0031 12.755L17.0031 12.7554C17.0065 12.9254 17.0075 13.0784 16.9908 13.2078C16.9736 13.3421 16.942 13.408 16.9152 13.4368C16.8842 13.4701 16.803 13.5162 16.642 13.5624C16.4938 13.6049 16.3194 13.6368 16.1326 13.671L16.1169 13.6739L16.1166 13.674C15.7169 13.7477 15.2445 13.8349 14.877 14.0834L14.8769 14.0834L14.874 14.0854C14.5175 14.3339 14.3186 14.7031 14.1547 15.0071C14.1467 15.022 14.1387 15.0368 14.1308 15.0514C14.1253 15.0615 14.1198 15.0715 14.1143 15.0815C14.0341 15.2275 13.9625 15.358 13.8856 15.4662C13.8018 15.5843 13.7344 15.6421 13.6816 15.6641C13.6222 15.6889 13.5151 15.7 13.3472 15.6848C13.1854 15.6702 13.003 15.6352 12.8083 15.5972L12.8053 15.5966C12.404 15.5176 11.9316 15.4245 11.4722 15.5165L11.4706 15.5169C11.0228 15.6095 10.6466 15.8663 10.3225 16.0878L10.322 16.0882C10.1508 16.2058 9.99833 16.3096 9.8533 16.3853C9.70759 16.4613 9.5931 16.4959 9.5 16.4959C9.4106 16.4959 9.29794 16.4619 9.1512 16.3853C9.00552 16.3093 8.85151 16.2053 8.67685 16.0874C8.35289 15.8659 7.97688 15.6094 7.52939 15.5169L7.52785 15.5165C7.39804 15.4905 7.26692 15.4771 7.12874 15.4771C6.80442 15.4771 6.48385 15.5399 6.19148 15.5973L6.23962 15.8426M0.517094 9.53603L0.51798 9.53439C0.522388 9.52626 0.526828 9.51808 0.531296 9.50985C0.704029 9.19158 0.918746 8.79596 0.918746 8.36705C0.918746 7.93814 0.704028 7.54251 0.531295 7.22424C0.526827 7.21601 0.522387 7.20783 0.51798 7.1997L0.516822 7.1975C0.42763 7.02958 0.351004 6.88533 0.301665 6.75569C0.251684 6.62436 0.24699 6.55017 0.255971 6.511C0.26981 6.46838 0.319295 6.39662 0.43681 6.29695C0.551149 6.19997 0.697972 6.10252 0.856993 6.0012L0.856997 6.00121L0.858611 6.00016C1.17788 5.79328 1.5771 5.53103 1.78805 5.1629C1.99864 4.80101 1.99775 4.3768 1.99706 4.04497C1.99702 4.02625 1.99698 4.00781 1.99698 3.9897H1.99703L1.99693 3.98452C1.99346 3.81751 1.99252 3.66607 2.00914 3.53747C2.0264 3.40396 2.05792 3.3379 2.08478 3.30907C2.11582 3.27576 2.19705 3.22967 2.35803 3.18348C2.50619 3.14098 2.68061 3.10903 2.86742 3.07482L2.88311 3.07195L2.8834 3.07189C3.28308 2.99817 3.75546 2.91093 4.12305 2.66243L4.12306 2.66245L4.12598 2.66042C4.48247 2.41196 4.68144 2.04277 4.84527 1.73878C4.8533 1.72388 4.86125 1.70914 4.86912 1.69457C4.87469 1.68443 4.88022 1.67437 4.88571 1.66438C4.96589 1.51832 5.03753 1.38786 5.11438 1.27964C5.19823 1.16157 5.26565 1.10379 5.31843 1.08176C5.37784 1.05697 5.48495 1.04586 5.65284 1.06105C5.8146 1.07568 5.99704 1.11063 6.19171 1.14864L6.19473 1.14923C6.59596 1.22827 7.06844 1.32134 7.52784 1.22932L7.52784 1.22932L7.52939 1.229C7.95403 1.14114 8.31632 0.899209 8.62462 0.693331C8.64158 0.682011 8.65836 0.6708 8.67499 0.65973L8.675 0.659752L8.67803 0.657674C8.84916 0.540067 9.00167 0.43625 9.14671 0.360571C9.29241 0.284543 9.4069 0.25 9.5 0.25C9.5894 0.25 9.70206 0.284002 9.8488 0.360571C9.99445 0.436568 10.1484 0.540505 10.323 0.658403L0.517094 9.53603ZM1.90187 13.6072L2.08478 13.4368C2.11704 13.4714 2.19861 13.5185 2.35665 13.5647C2.50638 13.6084 2.68635 13.6411 2.87912 13.6732L2.88298 13.6739L2.88297 13.6739C2.89264 13.6757 2.90235 13.6774 2.91211 13.6792C3.30294 13.7505 3.76507 13.8348 4.12566 14.0852C4.49268 14.3391 4.69997 14.7312 4.86989 15.0527L4.87068 15.0542L4.8708 15.0544C4.95297 15.2103 5.02797 15.3499 5.1091 15.4634C5.19079 15.5776 5.26051 15.6386 5.3198 15.6647C5.37948 15.6891 5.48623 15.6999 5.65284 15.6848C5.8146 15.6702 5.99704 15.6352 6.19171 15.5972L6.23962 15.8426M1.90187 13.6072C2.0636 13.7808 2.45382 13.8558 2.83805 13.9198L0.722657 10.9496C1.05297 11.1695 1.38928 11.3954 1.57155 11.7021C1.74746 12.0038 1.74723 12.3596 1.747 12.712C1.74699 12.7248 1.74698 12.7375 1.74698 12.7503C1.74013 13.0864 1.74013 13.4277 1.90187 13.6072ZM6.23962 15.8426C5.8554 15.9176 5.45833 15.9934 5.22215 15.8948L18.2773 10.9496C17.947 11.1637 17.6039 11.3954 17.4284 11.7021C17.2462 12.0147 17.2462 12.3913 17.253 12.7503C17.2599 13.0864 17.2599 13.4336 17.0981 13.6072C16.9395 13.7775 16.5545 13.848 16.1837 13.9158L16.1619 13.9198C15.7512 13.9956 15.3336 14.0765 15.017 14.2905C14.7106 14.5041 14.5372 14.8251 14.3674 15.1395C14.3617 15.15 14.356 15.1605 14.3503 15.171C14.3441 15.1824 14.3378 15.1939 14.3315 15.2053C14.1692 15.5012 14.0052 15.7999 13.7779 15.8948C13.5417 15.9934 13.1446 15.9176 12.7604 15.8426C12.3496 15.7617 11.9252 15.6808 11.5213 15.7617C11.1302 15.8426 10.7939 16.0684 10.4636 16.2942C10.1264 16.5259 9.80293 16.7459 9.5 16.7459C9.20528 16.7459 8.88442 16.5292 8.54413 16.2994L8.53644 16.2942C8.20612 16.0684 7.86981 15.8426 7.47874 15.7617C7.36492 15.7389 7.25026 15.7271 7.12874 15.7271C6.83265 15.7271 6.53571 15.7845 6.23962 15.8426ZM9.49981 1.94419C5.43829 1.94428 2.06947 4.78994 2.06947 8.36631C2.06947 11.9427 5.4384 14.7884 9.5 14.7884C13.5616 14.7884 16.9305 11.9435 16.9305 8.36631C16.9305 4.78421 13.5618 1.93824 9.49981 1.94419ZM9.49981 1.94419C9.49975 1.94419 9.49969 1.94419 9.49963 1.94419L9.5 2.19419V1.94419C9.49994 1.94419 9.49988 1.94419 9.49981 1.94419Z" fill="#3960FF" stroke="white" stroke-width="0.5"/>
</svg>
