<svg width="25" height="24" viewBox="0 0 25 24" fill="none" xmlns="http://www.w3.org/2000/svg">
<mask id="path-1-inside-1_231_259" fill="white">
<path d="M11.9325 23.996C11.4001 23.8319 10.8747 23.6714 10.3493 23.5114C7.90955 22.7685 5.46981 22.0257 3.03012 21.2828C2.80179 21.2133 2.71147 21.0903 2.71146 20.8499C2.71138 19.2565 2.71142 17.6631 2.71143 16.0698C2.71143 16.0513 2.71164 16.0328 2.71139 16.0144C2.70999 15.9077 2.72479 15.9303 2.62366 15.8949C1.8587 15.6278 1.0931 15.3626 0.327736 15.0967C0.295877 15.0857 0.263578 15.0754 0.232819 15.0617C0.0180871 14.9665 -0.0637237 14.7148 0.053824 14.5117C0.0676463 14.4878 0.0837031 14.4652 0.0995513 14.4426C0.979295 13.1859 1.85993 11.9299 2.73756 10.6717C2.81547 10.56 2.91152 10.4889 3.03917 10.4449C3.94763 10.132 4.85493 9.81574 5.7626 9.50052C5.77999 9.49448 5.79724 9.488 5.81476 9.48235C5.83919 9.47447 5.84815 9.4633 5.83746 9.43515C5.78272 9.29093 5.81702 9.16171 5.89532 9.03296C6.19066 8.54732 6.48142 8.0589 6.77389 7.57151C6.78495 7.55306 6.796 7.53461 6.80699 7.51613C6.81849 7.49681 6.81505 7.4819 6.79483 7.47057C6.77607 7.46006 6.75807 7.44823 6.73962 7.43716C6.24963 7.14319 5.75959 6.84933 5.26976 6.55509C5.2356 6.53457 5.20044 6.51438 5.17033 6.48869C4.97893 6.32538 4.99055 6.02906 5.19365 5.88052C5.2258 5.857 5.26055 5.83695 5.29478 5.8164C5.77944 5.52554 6.26423 5.2349 6.7489 4.94407C6.77236 4.93 6.79506 4.91464 6.821 4.89803C6.80376 4.86806 6.78898 4.84138 6.77331 4.81524C6.47622 4.31984 6.17955 3.82419 5.88131 3.32951C5.8339 3.25086 5.80499 3.16965 5.80969 3.07687C5.81962 2.88064 5.97284 2.7235 6.16934 2.71058C6.19999 2.70857 6.23084 2.70923 6.2616 2.70923C6.84926 2.70916 7.43692 2.70918 8.02458 2.70917C8.04611 2.70917 8.06769 2.70828 8.08917 2.70931C8.11613 2.71061 8.12887 2.69942 8.12786 2.67192C8.12707 2.65041 8.1279 2.62886 8.1279 2.60732C8.12791 2.149 8.12778 1.69067 8.12814 1.23234C8.12816 1.19554 8.12881 1.15838 8.13365 1.12199C8.16881 0.8577 8.41475 0.708258 8.66404 0.80417C8.95324 0.915441 9.2404 1.03208 9.52817 1.14707C9.77894 1.24727 10.0302 1.34623 10.2792 1.45075C10.34 1.47626 10.3757 1.46759 10.4216 1.42137C10.8462 0.993252 11.2737 0.568007 11.6995 0.141142C11.7548 0.0857382 11.8144 0.0381008 11.8904 0.0169786C12.0394 -0.024444 12.1707 0.0101034 12.2803 0.118689C12.4618 0.298349 12.6417 0.479514 12.8223 0.660054C13.0768 0.91455 13.3327 1.16765 13.5845 1.42487C13.6288 1.4702 13.6631 1.47544 13.7194 1.45266C14.2457 1.23972 14.7732 1.02965 15.3001 0.818163C15.3811 0.785641 15.4626 0.762296 15.5512 0.779634C15.7483 0.818233 15.8744 0.97184 15.8748 1.18043C15.8759 1.64184 15.8752 2.10324 15.8752 2.56464C15.8752 2.5831 15.875 2.60155 15.8752 2.62001C15.876 2.72018 15.8655 2.709 15.9634 2.70903C16.5603 2.70928 17.1572 2.70909 17.7541 2.70928C17.8062 2.70929 17.8579 2.70894 17.9095 2.72357C18.1457 2.79054 18.2631 3.04621 18.1566 3.267C18.1433 3.29458 18.1267 3.32059 18.1109 3.34692C17.8154 3.83973 17.5198 4.33241 17.2246 4.82537C17.2108 4.84849 17.1912 4.86924 17.188 4.8982C17.209 4.92234 17.2382 4.93382 17.2643 4.94951C17.762 5.24849 18.2596 5.54775 18.7579 5.84572C18.8667 5.91077 18.9424 5.99816 18.9622 6.12586C18.9882 6.29455 18.93 6.42926 18.7871 6.52231C18.6817 6.59103 18.5717 6.6528 18.4637 6.71764C18.058 6.96119 17.6525 7.20495 17.2466 7.44811C17.1722 7.49268 17.1769 7.48318 17.2209 7.55643C17.5182 8.05169 17.8138 8.54803 18.1132 9.04205C18.1879 9.16519 18.2198 9.28973 18.1678 9.42742C18.1473 9.48192 18.1893 9.48136 18.2185 9.49156C18.5285 9.59997 18.8388 9.70777 19.1491 9.81575C19.7666 10.0307 20.3839 10.2466 21.002 10.4597C21.1024 10.4943 21.1796 10.5515 21.2402 10.6381C22.1299 11.9104 23.0204 13.182 23.911 14.4536C23.9484 14.5071 23.9828 14.561 23.9936 14.631C24 14.6712 24 14.7089 24 14.7546C23.9912 14.9614 23.8671 15.0571 23.694 15.1179C23.0266 15.3522 22.358 15.5833 21.6896 15.8148C21.5907 15.8491 21.4941 15.8895 21.3939 15.9195C21.3342 15.9374 21.3085 15.9739 21.3119 16.0349C21.3136 16.0656 21.312 16.0964 21.312 16.1272C21.312 17.7018 21.309 19.2765 21.3149 20.8511C21.3159 21.1296 21.159 21.2578 20.9657 21.316C19.785 21.6721 18.6059 22.0337 17.4257 22.3917C16.3986 22.7033 15.3719 23.0166 14.3448 23.3281C13.6708 23.5326 12.9969 23.7371 12.3237 23.9442C12.265 23.9623 12.2063 23.9809 12.1374 23.9909C12.0663 23.9972 12.0032 24.0048 11.9325 23.996Z"/>
</mask>
<path d="M11.9325 23.996C11.4001 23.8319 10.8747 23.6714 10.3493 23.5114C7.90955 22.7685 5.46981 22.0257 3.03012 21.2828C2.80179 21.2133 2.71147 21.0903 2.71146 20.8499C2.71138 19.2565 2.71142 17.6631 2.71143 16.0698C2.71143 16.0513 2.71164 16.0328 2.71139 16.0144C2.70999 15.9077 2.72479 15.9303 2.62366 15.8949C1.8587 15.6278 1.0931 15.3626 0.327736 15.0967C0.295877 15.0857 0.263578 15.0754 0.232819 15.0617C0.0180871 14.9665 -0.0637237 14.7148 0.053824 14.5117C0.0676463 14.4878 0.0837031 14.4652 0.0995513 14.4426C0.979295 13.1859 1.85993 11.9299 2.73756 10.6717C2.81547 10.56 2.91152 10.4889 3.03917 10.4449C3.94763 10.132 4.85493 9.81574 5.7626 9.50052C5.77999 9.49448 5.79724 9.488 5.81476 9.48235C5.83919 9.47447 5.84815 9.4633 5.83746 9.43515C5.78272 9.29093 5.81702 9.16171 5.89532 9.03296C6.19066 8.54732 6.48142 8.0589 6.77389 7.57151C6.78495 7.55306 6.796 7.53461 6.80699 7.51613C6.81849 7.49681 6.81505 7.4819 6.79483 7.47057C6.77607 7.46006 6.75807 7.44823 6.73962 7.43716C6.24963 7.14319 5.75959 6.84933 5.26976 6.55509C5.2356 6.53457 5.20044 6.51438 5.17033 6.48869C4.97893 6.32538 4.99055 6.02906 5.19365 5.88052C5.2258 5.857 5.26055 5.83695 5.29478 5.8164C5.77944 5.52554 6.26423 5.2349 6.7489 4.94407C6.77236 4.93 6.79506 4.91464 6.821 4.89803C6.80376 4.86806 6.78898 4.84138 6.77331 4.81524C6.47622 4.31984 6.17955 3.82419 5.88131 3.32951C5.8339 3.25086 5.80499 3.16965 5.80969 3.07687C5.81962 2.88064 5.97284 2.7235 6.16934 2.71058C6.19999 2.70857 6.23084 2.70923 6.2616 2.70923C6.84926 2.70916 7.43692 2.70918 8.02458 2.70917C8.04611 2.70917 8.06769 2.70828 8.08917 2.70931C8.11613 2.71061 8.12887 2.69942 8.12786 2.67192C8.12707 2.65041 8.1279 2.62886 8.1279 2.60732C8.12791 2.149 8.12778 1.69067 8.12814 1.23234C8.12816 1.19554 8.12881 1.15838 8.13365 1.12199C8.16881 0.8577 8.41475 0.708258 8.66404 0.80417C8.95324 0.915441 9.2404 1.03208 9.52817 1.14707C9.77894 1.24727 10.0302 1.34623 10.2792 1.45075C10.34 1.47626 10.3757 1.46759 10.4216 1.42137C10.8462 0.993252 11.2737 0.568007 11.6995 0.141142C11.7548 0.0857382 11.8144 0.0381008 11.8904 0.0169786C12.0394 -0.024444 12.1707 0.0101034 12.2803 0.118689C12.4618 0.298349 12.6417 0.479514 12.8223 0.660054C13.0768 0.91455 13.3327 1.16765 13.5845 1.42487C13.6288 1.4702 13.6631 1.47544 13.7194 1.45266C14.2457 1.23972 14.7732 1.02965 15.3001 0.818163C15.3811 0.785641 15.4626 0.762296 15.5512 0.779634C15.7483 0.818233 15.8744 0.97184 15.8748 1.18043C15.8759 1.64184 15.8752 2.10324 15.8752 2.56464C15.8752 2.5831 15.875 2.60155 15.8752 2.62001C15.876 2.72018 15.8655 2.709 15.9634 2.70903C16.5603 2.70928 17.1572 2.70909 17.7541 2.70928C17.8062 2.70929 17.8579 2.70894 17.9095 2.72357C18.1457 2.79054 18.2631 3.04621 18.1566 3.267C18.1433 3.29458 18.1267 3.32059 18.1109 3.34692C17.8154 3.83973 17.5198 4.33241 17.2246 4.82537C17.2108 4.84849 17.1912 4.86924 17.188 4.8982C17.209 4.92234 17.2382 4.93382 17.2643 4.94951C17.762 5.24849 18.2596 5.54775 18.7579 5.84572C18.8667 5.91077 18.9424 5.99816 18.9622 6.12586C18.9882 6.29455 18.93 6.42926 18.7871 6.52231C18.6817 6.59103 18.5717 6.6528 18.4637 6.71764C18.058 6.96119 17.6525 7.20495 17.2466 7.44811C17.1722 7.49268 17.1769 7.48318 17.2209 7.55643C17.5182 8.05169 17.8138 8.54803 18.1132 9.04205C18.1879 9.16519 18.2198 9.28973 18.1678 9.42742C18.1473 9.48192 18.1893 9.48136 18.2185 9.49156C18.5285 9.59997 18.8388 9.70777 19.1491 9.81575C19.7666 10.0307 20.3839 10.2466 21.002 10.4597C21.1024 10.4943 21.1796 10.5515 21.2402 10.6381C22.1299 11.9104 23.0204 13.182 23.911 14.4536C23.9484 14.5071 23.9828 14.561 23.9936 14.631C24 14.6712 24 14.7089 24 14.7546C23.9912 14.9614 23.8671 15.0571 23.694 15.1179C23.0266 15.3522 22.358 15.5833 21.6896 15.8148C21.5907 15.8491 21.4941 15.8895 21.3939 15.9195C21.3342 15.9374 21.3085 15.9739 21.3119 16.0349C21.3136 16.0656 21.312 16.0964 21.312 16.1272C21.312 17.7018 21.309 19.2765 21.3149 20.8511C21.3159 21.1296 21.159 21.2578 20.9657 21.316C19.785 21.6721 18.6059 22.0337 17.4257 22.3917C16.3986 22.7033 15.3719 23.0166 14.3448 23.3281C13.6708 23.5326 12.9969 23.7371 12.3237 23.9442C12.265 23.9623 12.2063 23.9809 12.1374 23.9909C12.0663 23.9972 12.0032 24.0048 11.9325 23.996Z" fill="#3960FF"/>
<path d="M11.9325 23.996L11.7852 24.4738L11.8269 24.4866L11.8702 24.4921L11.9325 23.996ZM10.3493 23.5114L10.2036 23.9897L10.2036 23.9897L10.3493 23.5114ZM3.03012 21.2828L3.17577 20.8045L3.17576 20.8045L3.03012 21.2828ZM2.71146 20.8499L3.21146 20.8499L2.71146 20.8499ZM2.71143 16.0698L3.21143 16.0698V16.0698H2.71143ZM2.71139 16.0144L2.21144 16.0209L2.21144 16.021L2.71139 16.0144ZM2.62366 15.8949L2.45883 16.367L2.45883 16.367L2.62366 15.8949ZM0.327736 15.0967L0.491827 14.6244L0.491775 14.6244L0.327736 15.0967ZM0.232819 15.0617L0.0301395 15.5188L0.0302047 15.5189L0.232819 15.0617ZM0.053824 14.5117L0.486575 14.7622L0.486598 14.7621L0.053824 14.5117ZM0.0995513 14.4426L-0.310052 14.1558L-0.310053 14.1558L0.0995513 14.4426ZM2.73756 10.6717L2.32747 10.3857L2.32747 10.3857L2.73756 10.6717ZM3.03917 10.4449L2.87634 9.9722L2.87634 9.9722L3.03917 10.4449ZM5.7626 9.50052L5.92663 9.97285L5.9267 9.97282L5.7626 9.50052ZM5.81476 9.48235L5.96812 9.95825L5.9683 9.95819L5.81476 9.48235ZM5.83746 9.43515L5.37001 9.61259L5.37001 9.6126L5.83746 9.43515ZM5.89532 9.03296L6.32252 9.29278L6.32253 9.29276L5.89532 9.03296ZM6.77389 7.57151L7.20262 7.82878L7.20265 7.82873L6.77389 7.57151ZM6.80699 7.51613L6.37732 7.26043L6.3773 7.26046L6.80699 7.51613ZM6.79483 7.47057L6.55041 7.90675L6.55044 7.90677L6.79483 7.47057ZM6.73962 7.43716L6.48238 7.86592L6.4825 7.86598L6.73962 7.43716ZM5.26976 6.55509L5.52724 6.12648L5.52722 6.12647L5.26976 6.55509ZM5.17033 6.48869L5.49489 6.10835L5.49486 6.10832L5.17033 6.48869ZM5.19365 5.88052L5.48881 6.2841L5.48886 6.28407L5.19365 5.88052ZM5.29478 5.8164L5.55207 6.24512L5.55207 6.24512L5.29478 5.8164ZM6.7489 4.94407L7.00617 5.37281L7.00617 5.37281L6.7489 4.94407ZM6.821 4.89803L7.09059 5.31913L7.49211 5.06208L7.25445 4.64879L6.821 4.89803ZM6.77331 4.81524L7.20214 4.55814L7.20211 4.55808L6.77331 4.81524ZM5.88131 3.32951L6.30952 3.07135L6.30951 3.07133L5.88131 3.32951ZM5.80969 3.07687L6.30905 3.10217L6.30905 3.10215L5.80969 3.07687ZM6.16934 2.71058L6.13656 2.21166L6.13654 2.21166L6.16934 2.71058ZM6.2616 2.70923V3.20923H6.26166L6.2616 2.70923ZM8.02458 2.70917V2.20917H8.02457L8.02458 2.70917ZM8.08917 2.70931L8.11318 2.20989L8.11312 2.20988L8.08917 2.70931ZM8.12786 2.67192L7.6282 2.69021L7.6282 2.69022L8.12786 2.67192ZM8.1279 2.60732L7.6279 2.60731V2.60732H8.1279ZM8.12814 1.23234L8.62814 1.23273V1.23266L8.12814 1.23234ZM8.13365 1.12199L7.63802 1.05605L7.63801 1.05608L8.13365 1.12199ZM8.66404 0.80417L8.84358 0.337518L8.84358 0.337518L8.66404 0.80417ZM9.52817 1.14707L9.7137 0.682765L9.71369 0.682762L9.52817 1.14707ZM10.2792 1.45075L10.4728 0.989741L10.4728 0.989735L10.2792 1.45075ZM10.4216 1.42137L10.0666 1.06928L10.0666 1.06929L10.4216 1.42137ZM11.6995 0.141142L12.0535 0.494275L12.0535 0.494255L11.6995 0.141142ZM11.8904 0.0169786L12.0243 0.498719L12.0243 0.498707L11.8904 0.0169786ZM12.2803 0.118689L12.6321 -0.236601L12.6321 -0.236608L12.2803 0.118689ZM12.8223 0.660054L13.1758 0.306483L13.1758 0.306482L12.8223 0.660054ZM13.5845 1.42487L13.2271 1.77459L13.2271 1.77461L13.5845 1.42487ZM13.7194 1.45266L13.5319 0.989163L13.5318 0.989189L13.7194 1.45266ZM15.3001 0.818163L15.1139 0.354139L15.1138 0.354147L15.3001 0.818163ZM15.5512 0.779634L15.6473 0.288951L15.6472 0.288946L15.5512 0.779634ZM15.8748 1.18043L15.3748 1.18154V1.18155L15.8748 1.18043ZM15.8752 2.62001L16.3752 2.61596V2.61593L15.8752 2.62001ZM15.9634 2.70903L15.9636 2.20903H15.9636L15.9634 2.70903ZM17.7541 2.70928L17.754 3.20928H17.754L17.7541 2.70928ZM17.9095 2.72357L17.7731 3.20461L17.7731 3.20462L17.9095 2.72357ZM18.1566 3.267L18.607 3.48419L18.607 3.48416L18.1566 3.267ZM18.1109 3.34692L17.6821 3.08977L17.682 3.08982L18.1109 3.34692ZM17.2246 4.82537L16.7956 4.56852L16.7956 4.56859L17.2246 4.82537ZM17.188 4.8982L16.691 4.84356L16.6671 5.06116L16.8108 5.22634L17.188 4.8982ZM17.2643 4.94951L17.5217 4.52089V4.52089L17.2643 4.94951ZM18.7579 5.84572L19.0145 5.41659L19.0145 5.41658L18.7579 5.84572ZM18.9622 6.12586L19.4563 6.04946L19.4563 6.04945L18.9622 6.12586ZM18.7871 6.52231L18.5142 6.10337L18.5142 6.10337L18.7871 6.52231ZM18.4637 6.71764L18.721 7.14631L18.7211 7.1463L18.4637 6.71764ZM17.2466 7.44811L17.5036 7.87704L17.5036 7.87703L17.2466 7.44811ZM17.2209 7.55643L16.7922 7.8138L16.7922 7.81382L17.2209 7.55643ZM18.1132 9.04205L18.5408 8.78289L18.5408 8.78288L18.1132 9.04205ZM18.1678 9.42742L17.7 9.25101L17.7 9.25103L18.1678 9.42742ZM18.2185 9.49156L18.0534 9.96354L18.0534 9.96355L18.2185 9.49156ZM19.1491 9.81575L19.3134 9.34354L19.1491 9.81575ZM21.002 10.4597L20.839 10.9324L20.8391 10.9324L21.002 10.4597ZM21.2402 10.6381L21.65 10.3516V10.3516L21.2402 10.6381ZM23.911 14.4536L24.3205 14.1668L24.3205 14.1668L23.911 14.4536ZM23.9936 14.631L23.4994 14.7071L23.4999 14.7101L23.9936 14.631ZM24 14.7546L24.4995 14.7759L24.5 14.7653V14.7546H24ZM23.694 15.1179L23.5284 14.6461L23.5283 14.6461L23.694 15.1179ZM21.6896 15.8148L21.5259 15.3424L21.5259 15.3424L21.6896 15.8148ZM21.3939 15.9195L21.2503 15.4405L21.2503 15.4405L21.3939 15.9195ZM21.3119 16.0349L20.8127 16.0629V16.0629L21.3119 16.0349ZM21.312 16.1272L21.812 16.1272V16.1272H21.312ZM21.3149 20.8511L21.8149 20.8493V20.8493L21.3149 20.8511ZM20.9657 21.316L21.1101 21.7947L21.1101 21.7947L20.9657 21.316ZM17.4257 22.3917L17.2805 21.9133L17.2805 21.9133L17.4257 22.3917ZM14.3448 23.3281L14.1996 22.8497H14.1996L14.3448 23.3281ZM12.3237 23.9442L12.1767 23.4663L12.1766 23.4664L12.3237 23.9442ZM12.1374 23.9909L12.1814 24.489L12.1954 24.4878L12.2092 24.4858L12.1374 23.9909ZM12.0797 23.5181C11.5466 23.3538 11.0207 23.1932 10.4949 23.0331L10.2036 23.9897C10.7288 24.1496 11.2536 24.31 11.7852 24.4738L12.0797 23.5181ZM10.4949 23.0331C8.0551 22.2901 5.61552 21.5474 3.17577 20.8045L2.88446 21.7611C5.32409 22.504 7.764 23.2468 10.2036 23.9897L10.4949 23.0331ZM3.17576 20.8045C3.14792 20.796 3.14148 20.791 3.14678 20.7942C3.15411 20.7988 3.17119 20.8114 3.18792 20.8341C3.20461 20.8568 3.21126 20.8764 3.21314 20.8837C3.21445 20.8887 3.21146 20.88 3.21146 20.8499L2.21146 20.8499C2.21147 21.0279 2.24431 21.239 2.38242 21.4267C2.52101 21.6151 2.71332 21.709 2.88447 21.7611L3.17576 20.8045ZM3.21146 20.8499C3.21138 19.2565 3.21142 17.6631 3.21143 16.0698L2.21143 16.0697C2.21142 17.6631 2.21138 19.2565 2.21146 20.8499L3.21146 20.8499ZM3.21143 16.0698C3.21143 16.0591 3.21165 16.0304 3.21135 16.0078L2.21144 16.021C2.21163 16.0353 2.21143 16.0435 2.21143 16.0698H3.21143ZM3.21135 16.0078C3.21125 16.0001 3.21128 15.9932 3.21135 15.9838C3.2114 15.9778 3.21163 15.9591 3.2111 15.9412C3.21069 15.9269 3.21293 15.7713 3.10434 15.6271C2.99921 15.4875 2.85332 15.4445 2.84555 15.4418C2.83059 15.4365 2.81333 15.4311 2.80888 15.4297C2.80105 15.4271 2.79502 15.4252 2.78848 15.4229L2.45883 16.367C2.47757 16.3735 2.4932 16.3786 2.50393 16.382C2.51803 16.3865 2.51622 16.386 2.51412 16.3852C2.51286 16.3848 2.48608 16.3758 2.45254 16.3571C2.41441 16.3359 2.35658 16.2965 2.30551 16.2287C2.25387 16.1601 2.23123 16.0919 2.22108 16.0451C2.21222 16.0044 2.21162 15.9735 2.21153 15.9702C2.21139 15.9656 2.21148 15.963 2.21138 15.9763C2.21131 15.9862 2.21119 16.002 2.21144 16.0209L3.21135 16.0078ZM2.78848 15.4229C2.02304 15.1556 1.25662 14.8901 0.491827 14.6244L0.163644 15.569C0.929583 15.8351 1.69437 16.1001 2.45883 16.367L2.78848 15.4229ZM0.491775 14.6244C0.482338 14.6211 0.472405 14.6177 0.465608 14.6154C0.457979 14.6128 0.452379 14.6109 0.447441 14.6091C0.437399 14.6055 0.434684 14.6043 0.435434 14.6046L0.0302047 15.5189C0.0858457 15.5435 0.148959 15.5639 0.163696 15.569L0.491775 14.6244ZM0.435499 14.6047C0.459663 14.6154 0.483506 14.6397 0.494189 14.6725C0.504868 14.7053 0.499924 14.7391 0.486575 14.7622L-0.378927 14.2613C-0.645473 14.7218 -0.456279 15.3031 0.0301395 15.5188L0.435499 14.6047ZM0.486598 14.7621C0.485977 14.7632 0.486829 14.7617 0.490771 14.7558C0.495248 14.7491 0.499896 14.7425 0.509156 14.7293L-0.310053 14.1558C-0.322051 14.1729 -0.352055 14.2148 -0.37895 14.2613L0.486598 14.7621ZM0.509155 14.7293C1.38863 13.473 2.2697 12.2164 3.14764 10.9578L2.32747 10.3857C1.45016 11.6433 0.569964 12.8988 -0.310052 14.1558L0.509155 14.7293ZM3.14764 10.9578C3.15915 10.9413 3.16641 10.9354 3.16948 10.9331C3.17271 10.9307 3.18119 10.9249 3.202 10.9177L2.87634 9.9722C2.65109 10.0498 2.46746 10.185 2.32747 10.3857L3.14764 10.9578ZM3.20199 10.9177C4.11127 10.6045 5.01971 10.2878 5.92663 9.97285L5.59856 9.02819C4.69015 9.34368 3.784 9.65958 2.87634 9.9722L3.20199 10.9177ZM5.9267 9.97282C5.96116 9.96085 5.95647 9.962 5.96812 9.95825L5.6614 9.00645C5.638 9.01399 5.59881 9.02811 5.59849 9.02822L5.9267 9.97282ZM5.9683 9.95819C6.00026 9.94788 6.1765 9.89331 6.27878 9.70475C6.38899 9.50158 6.32607 9.31343 6.30492 9.2577L5.37001 9.6126C5.35954 9.58501 5.29749 9.41652 5.39977 9.22795C5.49414 9.05397 5.6537 9.00893 5.66122 9.00651L5.9683 9.95819ZM6.30492 9.25771C6.3064 9.2616 6.30901 9.27023 6.31017 9.28242C6.31132 9.29461 6.31056 9.30555 6.30915 9.31369C6.30782 9.32134 6.3064 9.32383 6.30789 9.32022C6.30949 9.31633 6.31361 9.30742 6.32252 9.29278L5.46813 8.77314C5.34299 8.97889 5.24124 9.27336 5.37001 9.61259L6.30492 9.25771ZM6.32253 9.29276C6.61889 8.80545 6.91136 8.31415 7.20262 7.82878L6.34515 7.31424C6.05147 7.80365 5.76244 8.2892 5.46812 8.77316L6.32253 9.29276ZM7.20265 7.82873C7.21386 7.81004 7.22525 7.79101 7.23669 7.7718L6.3773 7.26046C6.36674 7.27821 6.35604 7.29609 6.34512 7.3143L7.20265 7.82873ZM7.23667 7.77183C7.27738 7.70341 7.34551 7.55365 7.29695 7.36544C7.24775 7.17476 7.11292 7.07565 7.03922 7.03436L6.55044 7.90677C6.49696 7.87681 6.37396 7.79082 6.32866 7.61527C6.284 7.44218 6.3481 7.30953 6.37732 7.26043L7.23667 7.77183ZM7.03925 7.03438C7.03948 7.03451 7.03764 7.03348 7.02992 7.02871C7.02809 7.02758 7.02619 7.0264 7.02387 7.02497C7.02168 7.0236 7.01903 7.02196 7.01634 7.0203C7.01095 7.01697 7.00418 7.0128 6.99675 7.00834L6.4825 7.86598C6.48793 7.86924 6.49099 7.87121 6.50431 7.87944C6.51488 7.88597 6.53142 7.89611 6.55041 7.90675L7.03925 7.03438ZM6.99686 7.00841C6.50674 6.71436 6.0169 6.42062 5.52724 6.12648L5.01229 6.9837C5.50227 7.27804 5.99253 7.57202 6.48238 7.86592L6.99686 7.00841ZM5.52722 6.12647C5.52243 6.12359 5.51749 6.12064 5.51359 6.11831C5.50941 6.11581 5.50592 6.11372 5.50265 6.11174C5.49606 6.10775 5.49193 6.10519 5.48904 6.10332C5.48284 6.09934 5.48672 6.10137 5.49489 6.10835L4.84578 6.86904C4.91504 6.92814 4.99365 6.9725 5.0123 6.98371L5.52722 6.12647ZM5.49486 6.10832C5.54999 6.15536 5.54526 6.24282 5.48881 6.2841L4.89848 5.47694C4.43584 5.8153 4.40786 6.49541 4.8458 6.86906L5.49486 6.10832ZM5.48886 6.28407C5.49767 6.27762 5.50667 6.27237 5.55207 6.24512L5.03749 5.38768C5.01443 5.40152 4.95392 5.43638 4.89843 5.47698L5.48886 6.28407ZM5.55207 6.24512C6.037 5.9541 6.52099 5.66394 7.00617 5.37281L6.49164 4.51534C6.00748 4.80586 5.52188 5.09698 5.03749 5.38768L5.55207 6.24512ZM7.00617 5.37281C7.03736 5.3541 7.07928 5.32637 7.09059 5.31913L6.55142 4.47693C6.51084 4.50291 6.50736 4.5059 6.49164 4.51534L7.00617 5.37281ZM7.25445 4.64879C7.24259 4.62817 7.22074 4.58916 7.20214 4.55814L6.34447 5.07233C6.35722 5.09361 6.36493 5.10794 6.38756 5.14728L7.25445 4.64879ZM7.20211 4.55808C6.90532 4.06318 6.60815 3.5667 6.30952 3.07135L5.45311 3.58766C5.75095 4.08169 6.04712 4.57651 6.3445 5.07239L7.20211 4.55808ZM6.30951 3.07133C6.30161 3.05823 6.30242 3.05669 6.30472 3.06432C6.30593 3.06832 6.30731 3.07408 6.30822 3.08121C6.30914 3.0884 6.30939 3.09555 6.30905 3.10217L5.31033 3.05157C5.29908 3.27373 5.37229 3.45361 5.45312 3.58768L6.30951 3.07133ZM6.30905 3.10215C6.30628 3.15693 6.26117 3.20563 6.20213 3.20951L6.13654 2.21166C5.68451 2.24137 5.33297 2.60435 5.31033 3.0516L6.30905 3.10215ZM6.20212 3.20951C6.21126 3.20891 6.21616 3.20923 6.2616 3.20923V2.20923C6.24553 2.20923 6.18872 2.20823 6.13656 2.21166L6.20212 3.20951ZM6.26166 3.20923C6.84929 3.20916 7.43689 3.20918 8.02459 3.20917L8.02457 2.20917C7.43695 2.20918 6.84924 2.20916 6.26154 2.20923L6.26166 3.20923ZM8.02458 3.20917C8.03319 3.20917 8.0411 3.20908 8.047 3.20901C8.05384 3.20892 8.05713 3.20887 8.06126 3.20884C8.06885 3.20877 8.06859 3.2089 8.06523 3.20874L8.11312 2.20988C8.08827 2.20869 8.06648 2.20875 8.05252 2.20887C8.03269 2.20905 8.03353 2.20917 8.02458 2.20917V3.20917ZM8.06516 3.20873C8.1344 3.21206 8.31098 3.20791 8.46239 3.06485C8.6191 2.91679 8.63045 2.73342 8.62753 2.65362L7.6282 2.69022C7.62628 2.63791 7.63177 2.47389 7.77562 2.33798C7.91417 2.20706 8.07091 2.20786 8.11318 2.20989L8.06516 3.20873ZM8.62753 2.65363C8.62756 2.65462 8.62747 2.65306 8.62756 2.64461C8.62761 2.63975 8.62766 2.63671 8.62774 2.62949C8.62782 2.62345 8.6279 2.61572 8.6279 2.60732H7.6279C7.6279 2.61506 7.62778 2.61751 7.62761 2.63465C7.62748 2.64775 7.62737 2.6677 7.6282 2.69021L8.62753 2.65363ZM8.6279 2.60734C8.62791 2.14881 8.62778 1.69081 8.62814 1.23273L7.62814 1.23195C7.62778 1.69053 7.62791 2.14919 7.6279 2.60731L8.6279 2.60734ZM8.62814 1.23266C8.62815 1.21648 8.62831 1.20603 8.62865 1.19787C8.62898 1.18999 8.62937 1.18725 8.62929 1.1879L7.63801 1.05608C7.62852 1.1275 7.62816 1.19288 7.62814 1.23203L8.62814 1.23266ZM8.62928 1.18792C8.62779 1.19917 8.61576 1.2327 8.57639 1.25639C8.53621 1.28058 8.49808 1.27605 8.4845 1.27082L8.84358 0.337518C8.28643 0.123157 7.71492 0.477956 7.63802 1.05605L8.62928 1.18792ZM8.4845 1.27082C8.76971 1.38056 9.05134 1.49498 9.34264 1.61137L9.71369 0.682762C9.42946 0.569188 9.13678 0.450325 8.84358 0.337518L8.4845 1.27082ZM9.34263 1.61137C9.59664 1.71287 9.84191 1.80944 10.0857 1.91177L10.4728 0.989735C10.2186 0.883024 9.96123 0.781676 9.7137 0.682765L9.34263 1.61137ZM10.0856 1.91177C10.1619 1.94377 10.2971 1.98683 10.4604 1.95193C10.6206 1.91773 10.7245 1.82601 10.7766 1.77345L10.0666 1.06929C10.0729 1.06295 10.136 0.998681 10.2515 0.973991C10.3704 0.948606 10.4573 0.983247 10.4728 0.989741L10.0856 1.91177ZM10.7766 1.77346C11.2007 1.34582 11.6256 0.92316 12.0535 0.494275L11.3455 -0.211992C10.9217 0.212854 10.4916 0.640686 10.0666 1.06928L10.7766 1.77346ZM12.0535 0.494255C12.0611 0.486675 12.0661 0.482087 12.0692 0.479426C12.0722 0.47682 12.0724 0.476904 12.07 0.478514C12.0645 0.482269 12.0487 0.491927 12.0243 0.498719L11.7565 -0.464762C11.5558 -0.408982 11.4218 -0.288386 11.3455 -0.211971L12.0535 0.494255ZM12.0243 0.498707C12.0259 0.498275 12.0054 0.503619 11.9736 0.495325C11.942 0.487056 11.927 0.472501 11.9285 0.473985L12.6321 -0.236608C12.3955 -0.470866 12.0791 -0.554451 11.7564 -0.46475L12.0243 0.498707ZM11.9285 0.473979C12.1088 0.65252 12.2865 0.831446 12.4687 1.01363L13.1758 0.306482C12.9969 0.127582 12.8147 -0.0558222 12.6321 -0.236601L11.9285 0.473979ZM12.4687 1.01362C12.7259 1.27075 12.9779 1.51994 13.2271 1.77459L13.9418 1.07516C13.6876 0.815347 13.4277 0.558354 13.1758 0.306483L12.4687 1.01362ZM13.2271 1.77461C13.2836 1.83227 13.3898 1.92344 13.5517 1.95505C13.7111 1.98615 13.841 1.94285 13.907 1.91614L13.5318 0.989189C13.5415 0.985247 13.6262 0.950716 13.7432 0.973566C13.8629 0.996911 13.9297 1.0628 13.9418 1.07513L13.2271 1.77461ZM13.9069 1.91616C14.4325 1.70352 14.9577 1.49438 15.4863 1.28218L15.1138 0.354147C14.5887 0.564921 14.0589 0.775911 13.5319 0.989163L13.9069 1.91616ZM15.4863 1.28219C15.4992 1.277 15.5074 1.27412 15.5125 1.27249C15.5175 1.27091 15.5177 1.27113 15.5143 1.27177C15.5106 1.27245 15.5029 1.2736 15.492 1.27373C15.481 1.27386 15.4684 1.27291 15.4551 1.27032L15.6472 0.288946C15.4121 0.242921 15.2178 0.312408 15.1139 0.354139L15.4863 1.28219ZM15.4551 1.27032C15.4478 1.26889 15.4217 1.25994 15.3985 1.23126C15.3755 1.20299 15.3748 1.1797 15.3748 1.18154L16.3748 1.17932C16.3739 0.739287 16.0857 0.374789 15.6473 0.288951L15.4551 1.27032ZM15.3748 1.18155C15.3759 1.64222 15.3752 2.1022 15.3752 2.56464H16.3752C16.3752 2.10427 16.3759 1.64145 16.3748 1.17932L15.3748 1.18155ZM15.3752 2.56464C15.3752 2.57829 15.375 2.60308 15.3752 2.62408L16.3752 2.61593C16.375 2.60002 16.3752 2.58791 16.3752 2.56464H15.3752ZM15.3752 2.62405C15.3753 2.63321 15.3752 2.63949 15.3752 2.65158C15.3752 2.65989 15.3751 2.68001 15.3762 2.70138C15.3765 2.70707 15.375 2.90109 15.5291 3.05538C15.6852 3.2117 15.8816 3.20851 15.8881 3.20878C15.9095 3.20965 15.9297 3.20936 15.9374 3.20927C15.9489 3.20914 15.955 3.20903 15.9633 3.20903L15.9636 2.20903C15.9474 2.20903 15.9324 2.20926 15.9257 2.20934C15.9153 2.20946 15.9202 2.20926 15.9288 2.20961C15.935 2.20986 15.9724 2.21114 16.0207 2.22392C16.075 2.23831 16.1595 2.27153 16.2367 2.34876C16.3134 2.42558 16.3461 2.5093 16.3603 2.56172C16.373 2.60871 16.3746 2.64505 16.3749 2.65096C16.3753 2.6593 16.3752 2.66386 16.3752 2.65361C16.3752 2.64713 16.3753 2.63184 16.3752 2.61596L15.3752 2.62405ZM15.9632 3.20903C16.5596 3.20928 17.158 3.20909 17.754 3.20928L17.7543 2.20928C17.1564 2.20909 16.5611 2.20928 15.9636 2.20903L15.9632 3.20903ZM17.754 3.20928C17.7611 3.20928 17.7665 3.20927 17.7721 3.20929C17.7774 3.20931 17.7817 3.20934 17.7855 3.2094C17.7932 3.20952 17.7969 3.20971 17.7984 3.20981C17.8012 3.21 17.7905 3.20954 17.7731 3.20461L18.0459 2.24253C17.9158 2.20564 17.7925 2.20928 17.7542 2.20928L17.754 3.20928ZM17.7731 3.20462C17.7473 3.1973 17.7208 3.17609 17.7066 3.14508C17.6923 3.11364 17.6931 3.07706 17.7062 3.04983L18.607 3.48416C18.8507 2.97873 18.5756 2.3927 18.0459 2.24253L17.7731 3.20462ZM17.7063 3.0498C17.708 3.04608 17.7082 3.04625 17.7039 3.05365C17.7017 3.05726 17.6992 3.06149 17.6954 3.06774C17.6921 3.07318 17.6869 3.08166 17.6821 3.08977L18.5397 3.60408C18.545 3.59515 18.5807 3.53866 18.607 3.48419L17.7063 3.0498ZM17.682 3.08982C17.3867 3.5824 17.0909 4.07539 16.7956 4.56852L17.6536 5.08223C17.9487 4.58943 18.2441 4.09705 18.5397 3.60403L17.682 3.08982ZM16.7956 4.56859C16.8006 4.56024 16.8048 4.55423 16.7996 4.5619C16.7971 4.56559 16.7854 4.58268 16.7735 4.60241C16.7482 4.64458 16.7037 4.72833 16.691 4.84356L17.685 4.95284C17.6756 5.0391 17.6424 5.09799 17.6311 5.11678C17.6263 5.1248 17.6222 5.13057 17.6274 5.12296C17.6298 5.11933 17.6417 5.10206 17.6536 5.08216L16.7956 4.56859ZM16.8108 5.22634C16.8707 5.29522 16.9337 5.33595 16.9683 5.35654C16.9849 5.36643 17.0006 5.37487 17.0055 5.37755C17.0135 5.38189 17.0109 5.3806 17.0068 5.37814L17.5217 4.52089C17.5046 4.51058 17.4886 4.50197 17.4831 4.49899C17.4746 4.49435 17.4768 4.49547 17.4802 4.4975C17.4884 4.50239 17.5264 4.52532 17.5653 4.57005L16.8108 5.22634ZM17.0068 5.37813C17.5042 5.6769 18.0024 5.97655 18.5013 6.27486L19.0145 5.41658C18.5167 5.11895 18.0198 4.82008 17.5217 4.52089L17.0068 5.37813ZM18.5013 6.27485C18.5158 6.28354 18.5085 6.2821 18.4957 6.26526C18.4891 6.25662 18.4825 6.2458 18.4772 6.23334C18.4719 6.22088 18.4692 6.21 18.468 6.20228L19.4563 6.04945C19.4076 5.73491 19.2119 5.53462 19.0145 5.41659L18.5013 6.27485ZM18.468 6.20226C18.4692 6.20978 18.4646 6.18683 18.4802 6.15138C18.496 6.1153 18.5173 6.10133 18.5142 6.10337L19.06 6.94126C19.1998 6.85024 19.3216 6.72239 19.3958 6.55352C19.4697 6.38528 19.4812 6.21064 19.4563 6.04946L18.468 6.20226ZM18.5142 6.10337C18.4185 6.16571 18.3314 6.21386 18.2063 6.28898L18.7211 7.1463C18.8119 7.09173 18.9448 7.01635 19.0601 6.94125L18.5142 6.10337ZM18.2063 6.28897C17.8004 6.53269 17.3953 6.7762 16.9897 7.0192L17.5036 7.87703C17.9097 7.6337 18.3157 7.38969 18.721 7.14631L18.2063 6.28897ZM16.9897 7.01919C16.9861 7.02131 16.9827 7.02335 16.9786 7.02578C16.9749 7.02798 16.9698 7.03098 16.9649 7.03393C16.9567 7.03885 16.9385 7.04985 16.9188 7.06359C16.9033 7.07442 16.7455 7.17607 16.7004 7.38704C16.6573 7.58885 16.7511 7.74349 16.7559 7.75248C16.7659 7.77101 16.7761 7.78749 16.78 7.79386C16.786 7.80362 16.7883 7.80726 16.7922 7.8138L17.6495 7.29906C17.6238 7.25622 17.6346 7.27511 17.6358 7.27727C17.6394 7.28392 17.6565 7.31549 17.67 7.36137C17.6848 7.41204 17.6997 7.49576 17.6783 7.59599C17.6566 7.69781 17.6072 7.7707 17.5677 7.81505C17.5326 7.85453 17.4998 7.87752 17.4913 7.88349C17.4815 7.89029 17.4663 7.89936 17.5036 7.87704L16.9897 7.01919ZM16.7922 7.81382C17.0883 8.30692 17.3856 8.8061 17.6856 9.30121L18.5408 8.78288C18.2421 8.28996 17.9482 7.79646 17.6495 7.29904L16.7922 7.81382ZM17.6856 9.3012C17.7017 9.3277 17.6979 9.32978 17.695 9.3129C17.6935 9.30375 17.6927 9.29195 17.694 9.27894C17.6952 9.26593 17.698 9.25625 17.7 9.25101L18.6357 9.60383C18.7601 9.27398 18.6636 8.98552 18.5408 8.78289L17.6856 9.3012ZM17.7 9.25103C17.6784 9.30819 17.6459 9.41886 17.6721 9.55397C17.7027 9.71225 17.797 9.82343 17.8915 9.8883C17.9677 9.94064 18.0415 9.96089 18.0564 9.96519C18.1027 9.97861 18.0609 9.96615 18.0534 9.96354L18.3835 9.01958C18.3614 9.01187 18.3034 8.99566 18.3344 9.00461C18.3381 9.00569 18.3526 9.0099 18.3715 9.01755C18.3904 9.02518 18.4219 9.03943 18.4575 9.06391C18.5404 9.12083 18.6263 9.22129 18.6539 9.36403C18.677 9.4836 18.647 9.5739 18.6357 9.60381L17.7 9.25103ZM18.0534 9.96355C18.364 10.0721 18.6749 10.1801 18.9847 10.288L19.3134 9.34354C19.0028 9.23543 18.6931 9.12784 18.3835 9.01957L18.0534 9.96355ZM18.9847 10.288C19.6013 10.5026 20.22 10.719 20.839 10.9324L21.165 9.98705C20.5478 9.77422 19.9319 9.55883 19.3134 9.34354L18.9847 10.288ZM20.8391 10.9324C20.8427 10.9337 20.8436 10.9343 20.8427 10.9338C20.8417 10.9333 20.8396 10.932 20.8369 10.9301C20.8342 10.9281 20.832 10.9261 20.8306 10.9245C20.8292 10.9231 20.8292 10.9228 20.8305 10.9247L21.65 10.3516C21.5269 10.1756 21.362 10.055 21.165 9.98705L20.8391 10.9324ZM20.8305 10.9247C21.7202 12.1971 22.6108 13.4689 23.5014 14.7404L24.3205 14.1668C23.4299 12.8952 22.5395 11.6237 21.65 10.3516L20.8305 10.9247ZM23.5014 14.7404C23.5091 14.7513 23.5131 14.7574 23.5157 14.7615C23.5181 14.7653 23.5177 14.765 23.516 14.7617C23.5143 14.7581 23.511 14.7512 23.5077 14.7415C23.5044 14.7315 23.5014 14.7199 23.4994 14.7071L24.4877 14.5549C24.458 14.3617 24.362 14.2259 24.3205 14.1668L23.5014 14.7404ZM23.4999 14.7101C23.4991 14.7056 23.4993 14.7045 23.4996 14.7107C23.4997 14.714 23.4999 14.7189 23.4999 14.7264C23.5 14.7342 23.5 14.7427 23.5 14.7546H24.5C24.5 14.7154 24.501 14.6379 24.4873 14.5519L23.4999 14.7101ZM23.5005 14.7334C23.5003 14.7364 23.5005 14.7246 23.5085 14.7046C23.5168 14.6837 23.5296 14.6643 23.5438 14.6491C23.557 14.635 23.5664 14.6299 23.5645 14.631C23.5621 14.6324 23.5516 14.638 23.5284 14.6461L23.8596 15.5896C23.9814 15.5469 24.1413 15.4739 24.2734 15.3329C24.4175 15.1793 24.4906 14.9859 24.4995 14.7759L23.5005 14.7334ZM23.5283 14.6461C22.8622 14.88 22.1949 15.1106 21.5259 15.3424L21.8533 16.2873C22.5211 16.0559 23.191 15.8244 23.8596 15.5896L23.5283 14.6461ZM21.5259 15.3424C21.3818 15.3923 21.3433 15.4127 21.2503 15.4405L21.5374 16.3984C21.6448 16.3662 21.7997 16.3058 21.8533 16.2873L21.5259 15.3424ZM21.2503 15.4405C21.152 15.47 21.019 15.5339 20.9212 15.672C20.8229 15.8108 20.8068 15.9585 20.8127 16.0629L21.8111 16.007C21.8135 16.0503 21.8087 16.1492 21.7372 16.2501C21.6663 16.3501 21.5761 16.3869 21.5374 16.3984L21.2503 15.4405ZM20.8127 16.0629C20.8126 16.0613 20.8128 16.0635 20.8126 16.0752C20.8126 16.0816 20.8125 16.0866 20.8123 16.0963C20.8122 16.1047 20.812 16.1155 20.812 16.1272H21.812C21.812 16.1147 21.8123 16.1124 21.8126 16.0868C21.8128 16.0678 21.8129 16.0392 21.8111 16.007L20.8127 16.0629ZM20.812 16.1272C20.812 17.7005 20.809 19.2771 20.8149 20.853L21.8149 20.8493C21.809 19.2759 21.812 17.7031 21.812 16.1272L20.812 16.1272ZM20.8149 20.853C20.815 20.8754 20.8119 20.88 20.8142 20.8731C20.8154 20.8697 20.8174 20.8647 20.8208 20.8587C20.8242 20.8527 20.8283 20.8468 20.8328 20.8416C20.8421 20.8307 20.8494 20.8265 20.849 20.8267C20.8479 20.8273 20.8398 20.8318 20.8214 20.8373L21.1101 21.7947C21.2639 21.7483 21.4481 21.6611 21.5935 21.4907C21.7459 21.3122 21.8158 21.0892 21.8149 20.8493L20.8149 20.853ZM20.8214 20.8373C19.6405 21.1934 18.4583 21.556 17.2805 21.9133L17.5708 22.8702C18.7534 22.5114 19.9294 22.1508 21.1101 21.7947L20.8214 20.8373ZM17.2805 21.9133C16.2419 22.2284 15.2373 22.5349 14.1996 22.8497L14.4899 23.8066C15.5065 23.4982 16.5553 23.1783 17.5708 22.8702L17.2805 21.9133ZM14.1996 22.8497C13.5258 23.0541 12.8509 23.2589 12.1767 23.4663L12.4708 24.4221C13.1428 24.2153 13.8159 24.0111 14.4899 23.8066L14.1996 22.8497ZM12.1766 23.4664C12.1111 23.4865 12.0896 23.4926 12.0655 23.4961L12.2092 24.4858C12.3229 24.4692 12.4189 24.4381 12.4708 24.4221L12.1766 23.4664ZM12.0934 23.4929C12.0835 23.4938 12.0738 23.4947 12.0656 23.4954C12.057 23.4962 12.0496 23.4969 12.0427 23.4975C12.0287 23.4987 12.019 23.4993 12.0113 23.4997C11.9969 23.5004 11.9936 23.4997 11.9948 23.4999L11.8702 24.4921C12.0063 24.5092 12.1319 24.4934 12.1814 24.489L12.0934 23.4929Z" fill="white" mask="url(#path-1-inside-1_231_259)"/>
<path d="M6.78843 8.58182C6.7538 8.57982 6.71332 8.58901 6.74242 8.54218C6.75344 8.52443 6.76536 8.50716 6.77678 8.48962C7.02962 8.10106 7.28209 7.71228 7.53559 7.32408C7.58615 7.24665 7.61511 7.16542 7.60418 7.07424C7.58831 6.94196 7.51267 6.84807 7.38998 6.78079C7.06302 6.60149 6.73728 6.42033 6.41106 6.23988C6.29416 6.17522 6.17715 6.11072 6.06056 6.0456C6.03933 6.03374 6.01344 6.02675 6 6.00009C6.18407 5.89828 6.36847 5.79632 6.55285 5.69433C6.83289 5.53945 7.11253 5.38397 7.39312 5.22994C7.51587 5.16255 7.58976 5.06712 7.60467 4.9349C7.61496 4.84361 7.58439 4.76269 7.53396 4.68548C7.29023 4.31232 7.04745 3.93865 6.80439 3.56512C6.77843 3.52522 6.75286 3.48509 6.72415 3.44047C6.75513 3.42124 6.78715 3.4303 6.81625 3.43026C7.34016 3.42965 7.86407 3.43028 8.38797 3.42956C8.58236 3.42929 8.73136 3.33177 8.78646 3.17235C8.80504 3.1186 8.80593 3.06307 8.80591 3.0074C8.80583 2.6299 8.80565 2.2524 8.8063 1.8749C8.80636 1.84334 8.79835 1.81066 8.81429 1.78009C8.84943 1.77133 8.87637 1.7918 8.90464 1.80218C9.33705 1.961 9.76982 2.11903 10.2005 2.28177C10.404 2.35865 10.5717 2.32692 10.727 2.18119C11.1231 1.80966 11.5253 1.4436 11.9244 1.07479C11.9467 1.05423 11.9634 1.02864 11.9872 1C12.0246 1.03191 12.0499 1.05224 12.0736 1.07408C12.4757 1.44431 12.8793 1.81312 13.2785 2.18596C13.4314 2.32872 13.5978 2.35758 13.7975 2.2822C14.2283 2.11962 14.6614 1.962 15.0939 1.80317C15.1224 1.79268 15.1493 1.77408 15.1954 1.78005C15.1954 1.803 15.1954 1.82772 15.1954 1.85244C15.1954 2.24165 15.1955 2.63086 15.1952 3.02005C15.1952 3.07882 15.1973 3.13691 15.2205 3.19281C15.2797 3.33533 15.4243 3.42863 15.5973 3.42934C15.9561 3.43078 16.3149 3.42979 16.6737 3.4298C16.8705 3.4298 17.0673 3.4298 17.2678 3.4298C17.2727 3.46672 17.2447 3.48953 17.2282 3.51494C16.9744 3.90639 16.7204 4.29778 16.4642 4.68792C16.3997 4.78606 16.3776 4.88882 16.4078 4.99879C16.4374 5.10691 16.5156 5.18019 16.6183 5.23658C17.0541 5.47588 17.4887 5.71703 17.9237 5.95756C17.9481 5.97106 17.9723 5.98491 18 6.00051C17.9816 6.03176 17.9473 6.04154 17.9193 6.05706C17.4819 6.29957 17.0442 6.54169 16.6061 6.78325C16.4554 6.86634 16.3846 6.98679 16.3965 7.1488C16.4016 7.21837 16.4346 7.27731 16.4725 7.33547C16.724 7.72141 16.9748 8.10765 17.2259 8.49381C17.2418 8.51829 17.2575 8.54287 17.2769 8.57302C17.2365 8.58709 17.2021 8.58146 17.169 8.58149C16.661 8.58195 16.153 8.58198 15.6449 8.58157C15.5875 8.58153 15.5303 8.58347 15.4753 8.59893C15.3162 8.64363 15.2025 8.77585 15.1976 8.93092C15.1928 9.08004 15.1956 9.22937 15.1955 9.3786C15.1953 9.63612 15.1954 9.89364 15.1954 10.1512C15.1954 10.1794 15.1954 10.2076 15.1954 10.2458C15.0975 10.2101 15.0098 10.1783 14.9222 10.1461C14.5428 10.0066 14.1625 9.86894 13.7844 9.7264C13.5904 9.65327 13.4294 9.68657 13.2828 9.82308C12.883 10.1954 12.4797 10.5645 12.078 10.9351C12.0557 10.9557 12.0359 10.9788 12.0157 11C11.9711 10.9905 11.9528 10.9609 11.9294 10.9394C11.527 10.5695 11.1249 10.1992 10.7236 9.82828C10.6622 9.77152 10.5966 9.72253 10.5114 9.70008C10.4122 9.67392 10.3173 9.68819 10.2233 9.72298C9.79429 9.88187 9.36495 10.04 8.9357 10.1983C8.89778 10.2123 8.85961 10.2257 8.81761 10.2408C8.79811 10.2083 8.80645 10.176 8.80639 10.1457C8.80569 9.76532 8.80571 9.38489 8.80619 9.00447C8.80625 8.95452 8.80749 8.90372 8.79181 8.85633C8.74333 8.70984 8.63898 8.61646 8.47242 8.58949C8.43211 8.58296 8.39034 8.58216 8.34923 8.58213C7.83165 8.58166 7.31412 8.58182 6.78843 8.58182Z" fill="black"/>
<path d="M16.9116 21.5241C16.1301 21.7613 15.3554 21.9956 14.5806 22.2298C13.7481 22.4814 12.9155 22.7329 12.0829 22.9847C12.0572 22.9925 12.0324 23.0047 12 22.9981C12 20.3357 12 17.673 12 15C12.033 15.0261 12.0462 15.0562 12.0631 15.0826C12.689 16.0596 13.3149 17.0365 13.9395 18.0143C14.0081 18.1217 14.0966 18.1947 14.225 18.2171C14.3028 18.2307 14.3751 18.2123 14.447 18.1874C15.0438 17.9812 15.6405 17.775 16.2371 17.5685C17.4618 17.1448 18.6863 16.7209 19.9111 16.2978C19.936 16.2892 19.9601 16.273 19.9896 16.278C20.0062 16.3059 19.9979 16.3365 19.998 16.3655C19.9984 17.7447 19.9985 19.1239 19.998 20.5031C19.9979 20.5932 20.0198 20.5832 19.9104 20.6162C18.9129 20.9176 17.9156 21.2195 16.9116 21.5241Z" fill="black"/>
<path d="M9.91619 22.3711C9.01817 22.0998 8.12727 21.8301 7.23635 21.5605C6.18628 21.2428 5.13618 20.9251 4.0861 20.6074C4.06875 20.6021 4.05162 20.596 4.03402 20.5918C4.01001 20.586 3.99793 20.5731 4.00029 20.5475C4.00167 20.5326 4.00048 20.5174 4.00048 20.5023C4.00048 19.1144 4.00048 17.7265 4.00048 16.3386C4.00048 16.3177 4.00048 16.2968 4.00048 16.2761C4.03639 16.2612 4.06275 16.2829 4.08918 16.292C5.90581 16.9182 7.72209 17.5453 9.53832 18.1726C9.60133 18.1944 9.66388 18.2184 9.73212 18.2144C9.87628 18.2058 9.9815 18.1364 10.0582 18.0154C10.2761 17.6718 10.4965 17.3298 10.716 16.9872C11.1225 16.3528 11.5289 15.7183 11.9358 15.0842C11.9531 15.0573 11.9659 15.0266 12 15C12 17.6691 12 20.3306 12 23C11.3055 22.7902 10.6144 22.5815 9.91619 22.3711Z" fill="black"/>
<path d="M21.8329 12.6169C22.2251 13.1431 22.6132 13.6639 23 14.183C22.9825 14.2187 22.9481 14.2164 22.9228 14.2247C20.111 15.1446 17.2987 16.0634 14.4864 16.9823C14.4008 17.0102 14.4002 17.0103 14.3554 16.9443C13.5794 15.7989 12.8036 14.6535 12.0277 13.5081C12.0191 13.4953 12.0111 13.4821 12 13.4648C12.0849 13.4265 12.1734 13.4092 12.259 13.3847C15.0113 12.5979 17.7639 11.8117 20.5165 11.0254C20.5382 11.0192 20.5611 11.0153 20.5816 11.0064C20.6111 10.9935 20.6307 11.0002 20.6468 11.0254C20.6569 11.0411 20.6691 11.0555 20.6803 11.0705C21.0632 11.5842 21.4461 12.0978 21.8329 12.6169Z" fill="black"/>
<path d="M10.8974 13.14C11.2682 13.2456 11.6312 13.3497 12 13.4553C11.9784 13.489 11.9623 13.5153 11.945 13.5408C11.183 14.6656 10.421 15.7905 9.65844 16.915C9.58316 17.026 9.61292 17.0095 9.49375 16.9706C6.69245 16.0563 3.89146 15.1411 1.09041 14.226C1.06048 14.2163 1.03069 14.2061 1 14.1958C1.00402 14.1588 1.0301 14.1379 1.04808 14.1137C1.80159 13.1007 2.55562 12.088 3.30959 11.0753C3.31892 11.0628 3.32986 11.0511 3.33762 11.0377C3.35955 11 3.3844 10.9925 3.43224 11.0067C3.70189 11.0871 3.97334 11.1621 4.24403 11.2394C6.447 11.8683 8.64993 12.4973 10.8529 13.1263C10.8653 13.1298 10.8774 13.1343 10.8974 13.14Z" fill="black"/>
<path d="M13.0194 12.717C12.7004 12.8086 12.3878 12.8981 12.0758 12.9898C12.0278 13.0039 11.9846 13.003 11.9368 12.9892C10.4475 12.5594 8.95782 12.1304 7.46821 11.7013C6.67896 11.474 5.88968 11.2467 5.10045 11.0193C5.07172 11.011 5.04335 11.0016 5 10.9881C5.03268 10.9747 5.05118 10.9657 5.07062 10.9593C6.02241 10.6465 6.97433 10.334 7.9259 10.0206C7.96668 10.0072 8.00677 9.99967 8.04969 10C8.15696 10.0009 8.26424 10.0004 8.37151 10.0003C8.4588 10.0002 8.45197 9.99517 8.45197 10.0799C8.45196 10.4806 8.45195 10.8812 8.45201 11.2818C8.45201 11.3058 8.45116 11.33 8.45326 11.3539C8.47525 11.605 8.70985 11.7443 8.95796 11.6519C9.22518 11.5524 9.49144 11.4506 9.75811 11.3498C9.98294 11.2649 10.2087 11.182 10.4319 11.0933C10.4856 11.0719 10.5147 11.0803 10.5541 11.1179C10.9458 11.4914 11.3399 11.8626 11.7327 12.2351C11.8029 12.3018 11.882 12.3469 11.984 12.352C12.0986 12.3576 12.1928 12.3196 12.2728 12.2431C12.4158 12.1064 12.5601 11.9709 12.7038 11.835C12.9573 11.5951 13.2115 11.3559 13.4635 11.1147C13.5001 11.0797 13.5279 11.0725 13.5789 11.0921C14.0588 11.2768 14.5406 11.4572 15.0212 11.6405C15.1128 11.6755 15.2047 11.6944 15.3014 11.669C15.456 11.6285 15.5592 11.4989 15.5605 11.3409C15.5624 11.1166 15.561 10.8922 15.561 10.6679C15.5611 10.4649 15.5607 10.2619 15.5613 10.0589C15.5614 10.0019 15.5625 10.0009 15.6209 10.0005C15.7423 9.9998 15.8637 10.0007 15.9851 10C16.0168 9.99981 16.0465 10.0062 16.076 10.0159C17.0358 10.3318 17.9956 10.6477 18.9552 10.9643C18.9695 10.9691 18.9892 10.9668 19 10.9882C18.9806 11.0088 18.9501 11.0089 18.9253 11.016C16.967 11.5803 15.0084 12.1437 13.0498 12.7072C13.0418 12.7095 13.034 12.7128 13.0194 12.717Z" fill="black"/>
<path d="M9.2175 7C9.1925 7 9.18 6.9875 9.18 6.9625V5.038C9.18 5.013 9.1925 5.0005 9.2175 5.0005H10.0695C10.0935 5.0005 10.1135 5.0085 10.1295 5.0245L10.4295 5.3245C10.4465 5.3415 10.455 5.3615 10.455 5.3845V6.9625C10.455 6.9875 10.4425 7 10.4175 7H9.993C9.968 7 9.9555 6.9875 9.9555 6.9625V5.3995H9.6795V6.9625C9.6795 6.9875 9.667 7 9.642 7H9.2175ZM10.8523 7C10.8273 7 10.8148 6.9875 10.8148 6.9625V5.038C10.8148 5.013 10.8273 5.0005 10.8523 5.0005H11.8978C11.9228 5.0005 11.9353 5.013 11.9353 5.038V5.362C11.9353 5.387 11.9228 5.3995 11.8978 5.3995H11.3143V5.8255H11.8468C11.8718 5.8255 11.8843 5.838 11.8843 5.863V6.1375C11.8843 6.1625 11.8718 6.175 11.8468 6.175H11.3143V6.5995H11.8978C11.9228 6.5995 11.9353 6.612 11.9353 6.637V6.9625C11.9353 6.9875 11.9228 7 11.8978 7H10.8523ZM12.6798 7C12.6558 7 12.6358 6.9915 12.6198 6.9745L12.3198 6.6745C12.3028 6.6585 12.2943 6.6385 12.2943 6.6145V5.038C12.2943 5.013 12.3068 5.0005 12.3318 5.0005H12.7563C12.7813 5.0005 12.7938 5.013 12.7938 5.038V6.598H13.1298V5.038C13.1298 5.013 13.1423 5.0005 13.1673 5.0005H13.5918C13.6168 5.0005 13.6293 5.013 13.6293 5.038V6.598H13.9638V5.038C13.9638 5.013 13.9763 5.0005 14.0013 5.0005H14.4273C14.4523 5.0005 14.4648 5.013 14.4648 5.038V6.6145C14.4648 6.6385 14.4563 6.6585 14.4393 6.6745L14.1393 6.9745C14.1223 6.9915 14.1023 7 14.0793 7H13.7268C13.7038 7 13.6838 6.9915 13.6668 6.9745L13.4148 6.7225H13.3443L13.0923 6.9745C13.0753 6.9915 13.0553 7 13.0323 7H12.6798Z" fill="white"/>
</svg>
