<svg width="25" height="24" viewBox="0 0 25 24" fill="none" xmlns="http://www.w3.org/2000/svg">
<rect width="14" height="5" transform="translate(5 12)" fill="white"/>
<path d="M11.564 7.79972V0.379783C11.564 0.170052 11.7528 0 11.9937 0H12.0132C12.2541 0.0056684 12.443 0.17572 12.443 0.379783V7.79405C12.2997 7.76571 12.1565 7.7487 12.0067 7.7487C11.8505 7.7487 11.7072 7.76571 11.564 7.79972Z" fill="#3960FF"/>
<path fill-rule="evenodd" clip-rule="evenodd" d="M10.0207 15.8372L9.70167 16.6761C9.64307 16.8348 9.46727 16.9368 9.28496 16.9368C9.23938 16.9368 9.19381 16.9312 9.14823 16.9198C8.92034 16.8518 8.79012 16.6364 8.86825 16.438L9.27845 15.344C9.27845 15.3383 9.28496 15.3327 9.28496 15.327L10.4049 12.3568C10.4635 12.198 10.6328 12.096 10.8216 12.096C11.0104 12.096 11.1797 12.2037 11.2383 12.3568L12.3582 15.327C12.3582 15.3327 12.3647 15.3383 12.3647 15.344L12.7749 16.4323C12.8531 16.6307 12.7228 16.8461 12.4949 16.9141C12.2671 16.9822 12.0196 16.8688 11.9415 16.6704L11.6225 15.8315H10.0207V15.8372ZM8.34085 14.9982V16.0752C8.34085 16.5514 7.95018 16.9368 7.47487 16.9368H6.51773C6.04242 16.9368 5.65176 16.5514 5.65176 16.0752C5.65176 15.8655 5.84709 15.6954 6.088 15.6954C6.32891 15.6954 6.52425 15.8655 6.52425 16.0752C6.52425 16.1206 6.53727 16.1603 6.55029 16.1773H7.42278C7.4358 16.1603 7.44883 16.1262 7.44883 16.0752V14.9982C7.44883 14.9529 7.4358 14.9132 7.42278 14.8962H6.51122C6.03591 14.8962 5.64524 14.5107 5.64524 14.0346V12.9576C5.64524 12.4815 6.03591 12.096 6.51122 12.096H7.46836C7.94367 12.096 8.33434 12.4815 8.33434 12.9576C8.33434 13.1673 8.139 13.3374 7.89809 13.3374C7.65718 13.3374 7.46185 13.1673 7.46185 12.9576C7.46185 12.9123 7.44883 12.8726 7.4358 12.8556H6.56331C6.55029 12.8726 6.53727 12.9066 6.53727 12.9576V14.0346C6.53727 14.0799 6.55029 14.1196 6.56331 14.1366H7.47487C7.95669 14.1366 8.34085 14.5221 8.34085 14.9982ZM3.57471 11.5745C3.80911 12.2094 3.92631 12.8669 3.92631 13.5415C3.92631 14.2103 3.80911 14.8735 3.57471 15.5084C4.14117 15.9562 4.623 16.4777 5.00715 17.0559C5.39131 17.634 5.66478 18.2576 5.82756 18.9151C6.57633 19.0568 7.29907 19.2949 7.9632 19.6293C8.62734 19.9637 9.22636 20.3832 9.74074 20.8764C10.47 20.6723 11.2253 20.5703 12.0001 20.5703C12.7684 20.5703 13.5302 20.6723 14.2595 20.8764C14.7738 20.3832 15.3729 19.9637 16.037 19.6293C16.7011 19.2949 17.4174 19.0568 18.1726 18.9151C18.3354 18.2576 18.6089 17.634 18.993 17.0559C19.3772 16.4777 19.859 15.9562 20.4255 15.5084C20.1911 14.8735 20.0739 14.216 20.0739 13.5415C20.0739 12.8726 20.1911 12.2094 20.4255 11.5745C19.859 11.1267 19.3772 10.6052 18.993 10.027C18.6089 9.44887 18.3354 8.82534 18.1726 8.16781C17.4239 8.0261 16.7011 7.78803 16.037 7.45359C15.3664 7.11916 14.7738 6.69969 14.2595 6.20654C13.9469 6.29157 13.6344 6.35959 13.3153 6.41061V8.1338C13.3153 8.17348 13.3153 8.21316 13.3088 8.25284C13.5953 8.52492 13.7711 8.8877 13.7711 9.29015C13.7711 10.1404 12.9768 10.8263 12.0066 10.8263C11.0299 10.8263 10.2421 10.1347 10.2421 9.29015C10.2421 8.89336 10.4179 8.53059 10.7044 8.25284C10.6979 8.21316 10.6979 8.17348 10.6979 8.1338V6.41061C10.3788 6.35959 10.0598 6.29157 9.75376 6.20654C9.23938 6.69969 8.64036 7.11916 7.97623 7.45359C7.31209 7.78803 6.59587 8.0261 5.84058 8.16781C5.6778 8.82534 5.40433 9.44887 5.02018 10.027C4.623 10.6052 4.14117 11.1267 3.57471 11.5745ZM17.9122 16.9368H17.1244C16.8834 16.9368 16.6881 16.7668 16.6881 16.557V12.4758C16.6881 12.2661 16.8834 12.096 17.1244 12.096H17.9122C18.1531 12.096 18.3484 12.2661 18.3484 12.4758C18.3484 12.6855 18.1531 12.8556 17.9122 12.8556H17.5606V14.131H17.821C18.062 14.131 18.2573 14.301 18.2573 14.5107C18.2573 14.7205 18.062 14.8905 17.821 14.8905H17.5606V16.1659H17.9122C18.1531 16.1659 18.3484 16.336 18.3484 16.5457C18.3484 16.7668 18.1531 16.9368 17.9122 16.9368ZM15.1515 16.9368H13.9274C13.6865 16.9368 13.4911 16.7668 13.4911 16.557C13.4911 16.5514 13.4911 16.54 13.4911 16.5344C13.4911 16.5287 13.4911 16.5174 13.4911 16.5117V12.4758C13.4911 12.2661 13.6865 12.096 13.9274 12.096C14.1683 12.096 14.3636 12.2661 14.3636 12.4758V16.1773H15.145C15.3859 16.1773 15.5812 16.3473 15.5812 16.557C15.5877 16.7668 15.3924 16.9368 15.1515 16.9368Z" fill="#3960FF"/>
<path d="M14.7347 5.50946C15.223 6.01962 15.8155 6.45042 16.4797 6.78485C17.1438 7.11929 17.8665 7.34603 18.6218 7.45939C18.8041 7.48774 18.9474 7.61244 18.9799 7.77116C19.1101 8.43436 19.3706 9.06355 19.7547 9.63606C20.1389 10.2142 20.6338 10.7244 21.2198 11.1552M14.7347 5.50946L14.9168 5.33825C14.9166 5.33795 14.9163 5.33764 14.916 5.33733M14.7347 5.50946L14.9153 5.33659C14.9155 5.33684 14.9157 5.33708 14.916 5.33733M14.7347 5.50946C14.6175 5.38476 14.4221 5.33941 14.2463 5.3961M14.916 5.33733C15.383 5.82508 15.9518 6.23911 16.5921 6.56157C17.2317 6.88363 17.9289 7.10258 18.6589 7.21216L18.6602 7.21236C18.9271 7.25384 19.1677 7.4426 19.2248 7.72092L19.2253 7.72298C19.349 8.35328 19.5965 8.95154 19.9623 9.49676L19.963 9.4977C20.3295 10.0493 20.8029 10.5382 21.3665 10.9528M14.916 5.33733C14.7262 5.13616 14.4277 5.07493 14.1696 5.15816L14.2463 5.3961M21.3665 10.9528C21.3659 10.9524 21.3654 10.952 21.3648 10.9516L21.2198 11.1552M21.3665 10.9528C21.3669 10.9531 21.3674 10.9534 21.3678 10.9538L21.2198 11.1552M21.3665 10.9528C21.5961 11.1174 21.6944 11.409 21.5801 11.678M21.2198 11.1552C21.363 11.2572 21.4151 11.4273 21.35 11.5803M21.35 11.5803L21.5801 11.678M21.35 11.5803C21.083 12.2095 20.9528 12.8614 20.9528 13.5359C20.9528 14.2048 21.0895 14.8623 21.35 15.4915M21.35 11.5803L21.58 11.6782C21.5801 11.6781 21.5801 11.678 21.5801 11.678M21.5801 11.678C21.3264 12.2759 21.2028 12.8946 21.2028 13.5359C21.2028 14.1702 21.3324 14.7953 21.581 15.3959L21.35 15.4915M21.35 15.4915L21.58 15.3936C21.6946 15.663 21.596 15.955 21.3657 16.1196C20.8037 16.5275 20.3301 17.0215 19.963 17.5741C19.5964 18.1258 19.3489 18.7246 19.2252 19.3492L19.2248 19.3509C19.1677 19.6292 18.9271 19.818 18.6602 19.8595L18.6586 19.8597C17.9226 19.9693 17.232 20.1881 16.5921 20.5103C15.9529 20.8321 15.3901 21.246 14.9153 21.7352C14.7255 21.9358 14.4274 21.9968 14.1696 21.9137C13.4728 21.6896 12.75 21.58 12 21.58C11.2581 21.58 10.5285 21.6948 9.82982 21.9139C9.74906 21.94 9.6771 21.9484 9.60391 21.9484C9.41059 21.9484 9.22206 21.8733 9.08815 21.7387L9.0847 21.7353L9.08473 21.7352C8.61754 21.2472 8.04857 20.8329 7.40791 20.5103C6.76834 20.1882 6.07114 19.9693 5.34108 19.8597L5.33978 19.8595C5.07294 19.818 4.83226 19.6292 4.77517 19.3509L4.77475 19.3489C4.651 18.7186 4.4035 18.1203 4.03766 17.5751L4.03702 17.5741C3.67052 17.0225 3.19708 16.5336 2.63349 16.119C2.40386 15.9544 2.30556 15.6629 2.41988 15.3939M21.35 15.4915L2.41988 15.3939M2.41988 15.3939C2.67354 14.796 2.79721 14.1717 2.79721 13.5359C2.79721 12.9016 2.66763 12.2765 2.41903 11.6759L2.65003 11.5803L2.41998 11.6782C2.30539 11.4088 2.40401 11.1169 2.63423 10.9523C3.19625 10.5444 3.66987 10.0503 4.03702 9.49771C4.40356 8.94605 4.65113 8.34725 4.77484 7.72259L4.77517 7.72092C4.83226 7.4426 5.07294 7.25384 5.33978 7.21236L5.34139 7.21211L5.34139 7.21212C6.07799 7.1025 6.7747 6.88358 7.40702 6.56201L7.40791 6.56156C8.04709 6.2397 8.60991 5.82581 9.08467 5.33664C9.27429 5.13625 9.57189 5.07517 9.82951 5.15788C10.0296 5.22085 10.232 5.27617 10.4348 5.32225V4.22032C9.88039 4.05714 9.35516 3.81134 8.893 3.48925C8.47886 4.40123 7.72622 5.17728 6.7473 5.67039C5.76981 6.16278 4.63053 6.34106 3.53532 6.19988C3.68837 7.16175 3.47558 8.15339 2.91072 9.00861L2.91032 9.00921C2.34645 9.85759 1.47301 10.5052 0.4617 10.8644C1.12977 11.6195 1.51316 12.5637 1.51316 13.5473C1.51316 14.5308 1.12982 15.4749 0.461832 16.23C1.47267 16.5881 2.34652 17.2317 2.91072 18.0859C3.47585 18.9365 3.68831 19.9321 3.53531 20.8945C3.77784 20.8632 4.02319 20.8476 4.2713 20.8476C5.12885 20.8476 5.98788 21.0429 6.74699 21.424L6.7473 21.4241C7.72483 21.9165 8.48327 22.6918 8.89426 23.6045C9.76897 22.9944 10.8665 22.6501 12 22.6501C13.134 22.6501 14.232 22.9947 15.107 23.6053C15.5211 22.6933 16.2738 21.9172 17.2527 21.4241C18.2302 20.9317 19.3695 20.7534 20.4647 20.8946C20.3116 19.9328 20.5244 18.9411 21.0893 18.0859L21.0897 18.0853C21.6535 17.2369 22.527 16.5893 23.5383 16.2301C22.8702 15.475 22.4868 14.5308 22.4868 13.5473C22.4868 12.5637 22.8702 11.6196 23.5382 10.8645C22.5276 10.5065 21.6539 9.86313 21.0897 9.00921C20.5242 8.15845 20.3116 7.16257 20.4647 6.1999C19.3704 6.34107 18.2361 6.16264 17.2533 5.67067L17.2527 5.67039C16.2753 5.17804 15.5169 4.40288 15.1059 3.49035C14.6449 3.81248 14.1202 4.0611 13.5652 4.22154V5.32225C13.7683 5.27611 13.971 5.22071 14.1713 5.15764L14.2463 5.3961M2.41988 15.3939L13.5652 5.5784C13.7941 5.52827 14.022 5.46675 14.2463 5.3961M21.2198 15.9166C20.6338 16.3418 20.1389 16.8576 19.7547 17.4358C19.3706 18.014 19.1101 18.6431 18.9799 19.3007C18.9474 19.4594 18.8041 19.5841 18.6218 19.6124C17.86 19.7258 17.1438 19.9525 16.4797 20.287C15.8155 20.6214 15.2295 21.0522 14.7347 21.5624C14.6175 21.6871 14.4221 21.7324 14.2463 21.6757C13.5236 21.4433 12.7748 21.33 12 21.33C11.2317 21.33 10.4764 21.449 9.75366 21.6757C9.70157 21.6927 9.656 21.6984 9.60391 21.6984C9.47368 21.6984 9.34997 21.6474 9.26533 21.5624C8.77699 21.0522 8.18448 20.6214 7.52035 20.287C6.85621 19.9525 6.13348 19.7258 5.37819 19.6124C5.19588 19.5841 5.05263 19.4594 5.02008 19.3007C4.88985 18.6375 4.62941 18.0083 4.24525 17.4358C3.8611 16.8576 3.36625 16.3474 2.78025 15.9166C2.637 15.8146 2.58492 15.6446 2.65003 15.4915L21.2198 15.9166ZM5.37819 7.45939C6.13999 7.34603 6.86272 7.11929 7.52035 6.78485L5.02008 7.77116C5.05263 7.61244 5.19588 7.48774 5.37819 7.45939Z" fill="#3960FF" stroke="white" stroke-width="0.5"/>
<path fill-rule="evenodd" clip-rule="evenodd" d="M10.8279 13.7007L10.3135 15.0781H11.3487L10.8279 13.7007Z" fill="#3960FF"/>
<path fill-rule="evenodd" clip-rule="evenodd" d="M11.1143 9.28487C11.1143 9.71 11.5114 10.0614 12.0063 10.0614C12.4946 10.0614 12.8983 9.71567 12.8983 9.28487C12.8983 8.85974 12.5011 8.5083 12.0063 8.5083C11.5114 8.51397 11.1143 8.85974 11.1143 9.28487Z" fill="#3960FF"/>
</svg>
