<svg width="36" height="36" viewBox="0 0 36 36" fill="none" xmlns="http://www.w3.org/2000/svg">
<path d="M18.2352 35.4958C28.0371 35.4958 35.9831 27.5498 35.9831 17.7479C35.9831 7.94601 28.0371 0 18.2352 0C8.43331 0 0.487305 7.94601 0.487305 17.7479C0.487305 27.5498 8.43331 35.4958 18.2352 35.4958Z" fill="#507CBE"/>
<path d="M21.1933 11.3881H23.4118V7.8385H20.6017H20.0101C20.0101 7.8385 17.9396 7.8385 16.6085 9.46539C16.6085 9.46539 15.7211 10.3528 15.7211 12.7192V15.2335H12.4673V18.9309H15.7211V28.3965H19.5664V18.9309H22.8202L23.2639 15.2335H19.5664V12.8671C19.5664 12.5713 19.7143 11.2402 21.1933 11.3881Z" fill="white"/>
</svg>
