<svg width="37" height="36" viewBox="0 0 37 36" fill="none" xmlns="http://www.w3.org/2000/svg">
<path d="M18.7308 35.4958C28.5327 35.4958 36.4787 27.5498 36.4787 17.7479C36.4787 7.94601 28.5327 0 18.7308 0C8.92892 0 0.98291 7.94601 0.98291 17.7479C0.98291 27.5498 8.92892 35.4958 18.7308 35.4958Z" fill="url(#paint0_radial_337_1901)"/>
<path d="M22.872 7.39514H14.8855C11.3359 7.39514 8.37793 10.2052 8.37793 13.7548V21.7414C8.37793 25.2909 11.3359 28.101 14.8855 28.101H22.872C26.4216 28.101 29.3796 25.2909 29.3796 21.7414V13.7548C29.3796 10.2052 26.4216 7.39514 22.872 7.39514ZM27.309 21.0019C27.309 23.8119 24.9426 26.1783 22.1326 26.1783H15.625C12.8149 26.1783 10.4485 23.8119 10.4485 21.0019V14.4943C10.4485 11.6842 12.8149 9.31783 15.625 9.31783H22.1326C24.9426 9.31783 27.309 11.6842 27.309 14.4943V21.0019ZM19.1746 12.2758C16.0687 12.2758 13.7023 14.6422 13.7023 17.7481C13.7023 20.7061 16.2166 23.2204 19.1746 23.2204C22.2805 23.2204 24.6468 20.7061 24.6468 17.7481C24.6468 14.7901 22.1326 12.2758 19.1746 12.2758ZM19.1746 21.0019C17.3998 21.0019 15.9208 19.5229 15.9208 17.7481C15.9208 15.9733 17.3998 14.4943 19.1746 14.4943C20.9494 14.4943 22.4284 15.9733 22.4284 17.7481C22.4284 19.5229 20.9494 21.0019 19.1746 21.0019ZM24.2031 13.6069C24.9426 13.6069 25.6821 13.0153 25.6821 12.2758C25.6821 11.5363 25.0905 10.9447 24.2031 10.9447C23.4636 10.9447 22.7241 11.5363 22.7241 12.2758C22.872 13.0153 23.4636 13.6069 24.2031 13.6069Z" fill="white"/>
<defs>
<radialGradient id="paint0_radial_337_1901" cx="0" cy="0" r="1" gradientUnits="userSpaceOnUse" gradientTransform="translate(10.5848 38.0177) rotate(-55.7276) scale(46.0085 45.8791)">
<stop stop-color="#FEDB7F"/>
<stop offset="0.3378" stop-color="#FA6C2A"/>
<stop offset="0.5867" stop-color="#D92D76"/>
<stop offset="1" stop-color="#525DD0"/>
</radialGradient>
</defs>
</svg>
