<svg width="86" height="26" viewBox="0 0 86 26" fill="none" xmlns="http://www.w3.org/2000/svg">
<path fill-rule="evenodd" clip-rule="evenodd" d="M37.2544 4.41064C37.2544 4.41064 37.2544 4.41064 39.0444 4.41064C39.6966 4.41064 40.0252 4.68631 40.0252 5.30864C40.0252 5.30864 40.0252 5.30864 40.0252 7.51394C40.0252 7.51394 40.0252 7.51394 43.5316 7.51394C43.5316 7.51394 43.5316 7.51394 43.5316 5.30864C43.5316 4.68631 43.8553 4.41064 44.5909 4.41064C44.5909 4.41064 44.5909 4.41064 46.3024 4.41064C46.3024 4.41064 46.3024 4.41065 46.3024 5.85996C46.3024 5.85996 46.3024 5.85996 45.5717 5.85996L45.4884 5.93097C45.4884 5.93097 45.4884 5.93097 45.4884 12.1376C45.4884 12.1376 45.4884 12.1376 43.5316 12.1376C43.5316 12.1376 43.5316 12.1376 43.5316 9.03426C43.5316 9.03426 43.5316 9.03426 40.0252 9.03426C40.0252 9.03426 40.0252 9.03426 40.0252 12.1376C40.0252 12.1376 40.0252 12.1376 38.0685 12.1376C38.0685 12.1376 38.0685 12.1376 38.0685 5.93097C38.0685 5.93097 38.0685 5.85996 37.9851 5.85996C37.9851 5.85996 37.9851 5.85996 37.2544 5.85996C37.2544 5.85996 37.2544 5.85996 37.2544 4.41064Z" fill="#22372D"/>
<path fill-rule="evenodd" clip-rule="evenodd" d="M51.4365 4.27295L51.4807 4.27712V5.86845L51.4365 5.8601C49.9702 5.8601 48.8275 6.89592 48.8275 8.20741C48.8275 9.58572 49.9702 10.6884 51.4365 10.6884L51.4807 10.68V12.2713L51.4365 12.2755C48.8276 12.2755 46.709 10.4837 46.709 8.20741C46.709 5.99793 48.8276 4.27295 51.4365 4.27295Z" fill="#22372D"/>
<path fill-rule="evenodd" clip-rule="evenodd" d="M51.481 4.27686L52.3882 4.35204C54.5411 4.71124 56.1644 6.27332 56.1644 8.20714C56.1644 10.1953 54.5411 11.82 52.3882 12.1917L51.481 12.2711V10.6797L52.4765 10.496C53.4377 10.1201 54.1292 9.23879 54.1292 8.20714C54.1292 7.22144 53.4377 6.39445 52.4765 6.0436L51.481 5.86818V4.27686Z" fill="#22372D"/>
<path fill-rule="evenodd" clip-rule="evenodd" d="M56.5713 4.41064C56.5713 4.41064 56.5713 4.41064 59.3029 4.41064H60.6074V5.85996H60.4848C60.3229 5.85996 59.9943 5.85996 59.3421 5.85996C59.3421 5.85996 59.3421 5.85996 59.3421 7.44711C59.3421 7.44711 59.3421 7.44711 59.8963 7.44711H60.6074V8.82542H60.1905C59.9845 8.82542 59.7099 8.82542 59.3421 8.82542C59.3421 8.82542 59.3421 8.82542 59.3421 10.5504C59.3421 10.6214 59.3421 10.6214 59.4255 10.6214C59.4255 10.6214 59.4255 10.6214 60.0091 10.6214H60.6074V12.1376H60.4357C60.1415 12.1376 59.5481 12.1376 58.3662 12.1376C57.7139 12.1376 57.3903 11.8619 57.3903 11.2396V5.85996C57.3903 5.85996 57.3903 5.85996 56.5713 5.85996C56.5713 5.85996 56.5713 5.85996 56.5713 4.41064Z" fill="#22372D"/>
<path fill-rule="evenodd" clip-rule="evenodd" d="M60.6069 4.41064H60.6462C62.4411 4.41064 63.5003 5.23763 63.5003 6.48229C63.5003 7.23828 63.0933 7.72277 62.6863 8.06944C63.4219 8.3451 63.9074 9.03426 63.9074 9.79024C63.9074 11.2396 62.6029 12.1376 60.7295 12.1376C60.7295 12.1376 60.7295 12.1376 60.6952 12.1376H60.6069V10.6214H60.808C61.4602 10.6214 61.8722 10.2747 61.8722 9.72342C61.8722 9.17209 61.4602 8.82542 60.808 8.82542C60.808 8.82542 60.808 8.82542 60.6265 8.82542H60.6069V7.44711H60.6462C61.2199 7.44711 61.5436 7.10045 61.5436 6.62012C61.5436 6.13563 61.2199 5.85996 60.6462 5.85996C60.6462 5.85996 60.6462 5.85996 60.6265 5.85996H60.6069V4.41064Z" fill="#22372D"/>
<path fill-rule="evenodd" clip-rule="evenodd" d="M67.6592 4.41064C67.6592 4.41064 67.6592 4.41064 68.4831 4.41064H68.6351V6.62012C68.5566 6.75796 68.4732 6.96261 68.4732 7.17145C68.4732 7.17145 68.4732 7.17145 67.821 8.7586C67.821 8.7586 67.821 8.7586 68.5125 8.7586H68.6351V10.2037H68.1937C67.9436 10.2037 67.6592 10.2037 67.3355 10.2037C67.3355 10.2037 67.3355 10.2037 66.7617 11.4484C66.5999 11.9287 66.2762 12.1376 65.624 12.1376C65.624 12.1376 65.624 12.1376 64.3979 12.1376C64.3979 12.1376 64.3979 12.1376 64.3979 10.6214C64.3979 10.6214 64.3979 10.6214 64.805 10.6214C64.9717 10.6214 64.9717 10.6214 65.0502 10.5504C65.0502 10.5504 65.0502 10.5504 67.6592 4.41064Z" fill="#22372D"/>
<path fill-rule="evenodd" clip-rule="evenodd" d="M68.6348 4.41064H69.6156C69.6156 4.41064 69.6156 4.41064 72.2246 10.5504C72.303 10.6214 72.303 10.6214 72.4649 10.6214C72.4649 10.6214 72.4649 10.6214 72.7934 10.6214C72.7934 10.6214 72.7934 10.6214 72.7934 12.1376C72.7934 12.1376 72.7934 12.1376 71.6508 12.1376C70.9985 12.1376 70.6749 11.9287 70.5081 11.3774C70.5081 11.3774 70.5081 11.3774 69.9393 10.2037C69.9393 10.2037 69.9393 10.2037 68.8407 10.2037H68.6348V8.7586H69.4488C69.4488 8.7586 69.4488 8.7586 68.8015 7.17145C68.8015 6.96261 68.7181 6.75796 68.6348 6.62012V4.41064Z" fill="#22372D"/>
<path fill-rule="evenodd" clip-rule="evenodd" d="M37.2544 14.3428C37.2544 14.3428 37.2544 14.3428 44.3457 14.3428C44.998 14.3428 45.405 14.6184 45.405 15.2408C45.405 15.2408 45.405 15.2408 45.405 20.4825C45.405 20.5494 45.405 20.5494 45.4884 20.5494C45.4884 20.5494 45.4884 20.5494 46.1406 20.5494C46.1406 20.5494 46.1406 20.5494 46.1406 22.0697C46.1406 22.0697 46.1406 22.0697 44.4291 22.0697C43.6935 22.0697 43.3698 21.794 43.3698 21.1717C43.3698 21.1717 43.3698 21.1717 43.3698 15.8631C43.3698 15.8631 43.3698 15.7921 43.2864 15.7921C43.2864 15.7921 43.2864 15.7921 40.0252 15.7921C40.0252 15.7921 40.0252 15.7921 40.0252 22.0697C40.0252 22.0697 40.0252 22.0697 38.0685 22.0697C38.0685 22.0697 38.0685 22.0697 38.0685 15.7921C38.0685 15.7921 38.0685 15.7921 37.2544 15.7921C37.2544 15.7921 37.2544 15.7921 37.2544 14.3428Z" fill="#22372D"/>
<path fill-rule="evenodd" clip-rule="evenodd" d="M51.2751 14.2051L51.3143 14.2093V15.8006L51.2751 15.7922C49.8038 15.7922 48.6661 16.8281 48.6661 18.1395C48.6661 19.5179 49.8038 20.6205 51.2751 20.6205L51.3143 20.6121V22.2035L51.2751 22.2076C48.6661 22.2076 46.626 20.4117 46.626 18.1395C46.626 15.9301 48.6661 14.2051 51.2751 14.2051Z" fill="#22372D"/>
<path fill-rule="evenodd" clip-rule="evenodd" d="M51.314 14.209L52.2506 14.2842C54.4428 14.6434 56.0023 16.2055 56.0023 18.1393C56.0023 20.1274 54.4428 21.7521 52.2506 22.1238L51.314 22.2032V20.6119L52.3487 20.4281C53.3246 20.0522 53.9671 19.1709 53.9671 18.1393C53.9671 17.1536 53.3246 16.3266 52.3487 15.9757L51.314 15.8003V14.209Z" fill="#22372D"/>
<path fill-rule="evenodd" clip-rule="evenodd" d="M56.4092 14.3428C56.4092 14.3428 56.4092 14.3428 58.2041 14.3428C58.8563 14.3428 59.18 14.6184 59.18 15.2408C59.18 15.2408 59.18 15.2408 59.18 20.4825C59.18 20.5494 59.18 20.5494 59.2634 20.5494C59.2634 20.5494 59.2634 20.5494 61.6271 20.5494C61.6271 20.5494 61.6271 20.5494 61.6271 14.3428C61.6271 14.3428 61.6271 14.3428 63.5839 14.3428C63.5839 14.3428 63.5839 14.3428 63.5839 20.5494C63.5839 20.5494 63.5839 20.5494 65.9476 20.5494C66.031 20.5494 66.031 20.5494 66.031 20.4825C66.031 20.4825 66.031 20.4825 66.031 15.2408C66.031 14.6184 66.3547 14.3428 67.0069 14.3428C67.0069 14.3428 67.0069 14.3428 68.8018 14.3428C68.8018 14.3428 68.8018 14.3428 68.8018 15.7921C68.8018 15.7921 68.8018 15.7921 68.0662 15.7921C67.9828 15.7921 67.9828 15.8631 67.9828 15.8631C67.9828 15.8631 67.9828 15.8631 67.9828 21.1717C67.9828 21.794 67.6592 22.0697 67.0069 22.0697C67.0069 22.0697 67.0069 22.0697 58.2825 22.0697C57.5518 22.0697 57.2233 21.794 57.2233 21.1717C57.2233 21.1717 57.2233 21.1717 57.2233 15.8631C57.2233 15.8631 57.2233 15.7921 57.1448 15.7921C57.1448 15.7921 57.1448 15.7921 56.4092 15.7921C56.4092 15.7921 56.4092 15.7921 56.4092 14.3428Z" fill="#22372D"/>
<path fill-rule="evenodd" clip-rule="evenodd" d="M70.3467 14.3428C70.3467 14.3428 70.3467 14.3428 76.4621 14.3428C77.1977 14.3428 77.4429 14.6184 77.4429 15.1698C77.4429 15.1698 77.4429 15.1698 77.4429 16.4812H75.648C75.648 16.4812 75.648 16.4812 75.648 15.8631C75.648 15.7921 75.648 15.7921 75.5646 15.7921C75.5646 15.7921 75.5646 15.7921 74.4269 15.7921C74.4269 15.7921 74.4269 15.7921 74.4269 22.0697C74.4269 22.0697 74.4269 22.0697 72.4652 22.0697C72.4652 22.0697 72.4652 22.0697 72.4652 15.7921C72.4652 15.7921 72.4652 15.7921 71.3275 15.7921C71.2441 15.7921 71.2441 15.7921 71.2441 15.8631C71.2441 15.8631 71.2441 15.8631 71.2441 16.4812C71.2441 16.4812 71.2441 16.4812 69.4492 16.4812C69.4492 16.4812 69.4492 16.4812 69.4492 15.1698C69.4492 14.6184 69.6944 14.3428 70.3467 14.3428Z" fill="#22372D"/>
<path fill-rule="evenodd" clip-rule="evenodd" d="M79.9687 14.3428C79.9687 14.3428 79.9687 14.3428 80.7926 14.3428H80.9447V16.5523C80.8613 16.6901 80.7828 16.8947 80.7828 17.1036C80.7828 17.1036 80.7828 17.1036 80.1306 18.6907C80.1306 18.6907 80.1306 18.6907 80.8171 18.6907H80.9447V20.1359H80.5033C80.2532 20.1359 79.9687 20.1359 79.6402 20.1359C79.6402 20.1359 79.6402 20.1359 79.0713 21.3095C78.9095 21.8608 78.5809 22.0697 77.9286 22.0697C77.9286 22.0697 77.9286 22.0697 76.7075 22.0697C76.7075 22.0697 76.7075 22.0697 76.7075 20.5494C76.7075 20.5494 76.7075 20.5494 77.1146 20.5494C77.2813 20.5494 77.2813 20.5494 77.3598 20.4825C77.3598 20.4825 77.3598 20.4825 79.9687 14.3428Z" fill="#22372D"/>
<path fill-rule="evenodd" clip-rule="evenodd" d="M80.9443 14.3428H81.9203C81.9203 14.3428 81.9202 14.3428 84.5341 20.4825C84.6126 20.5494 84.6126 20.5494 84.7793 20.5494H85.103C85.103 20.5494 85.103 20.5494 85.103 22.0697C85.103 22.0697 85.103 22.0697 83.9604 22.0697C83.3081 22.0697 82.9844 21.8608 82.8177 21.3095C82.8177 21.3095 82.8177 21.3095 82.2488 20.1359C82.2488 20.1359 82.2488 20.1359 81.1503 20.1359H80.9443V18.6907H81.7584C81.7584 18.6907 81.7584 18.6907 81.1062 17.1036C81.1062 16.8947 81.0277 16.6901 80.9443 16.5523V14.3428Z" fill="#22372D"/>
<path fill-rule="evenodd" clip-rule="evenodd" d="M24.6896 7.69761C24.7828 7.67255 24.9054 7.72268 25.028 7.86051C25.028 7.86051 25.028 7.86051 30.5696 12.4799C30.8933 12.7556 30.8933 13.1733 30.5696 13.3779C30.5696 13.3779 30.5696 13.3779 25.028 18.0684C24.9054 18.2062 24.7828 18.2396 24.6896 18.1979C24.5964 18.1561 24.5376 18.035 24.5376 17.8595V7.99834C24.5376 7.82709 24.5964 7.72267 24.6896 7.69761Z" fill="#22372D"/>
<path fill-rule="evenodd" clip-rule="evenodd" d="M15.2103 0H15.6026L15.9802 0.133655C15.9802 0.133655 15.9802 0.133655 21.6837 4.96193C21.9289 5.23759 21.8455 5.44642 21.4385 5.44642C21.4385 5.44642 21.4385 5.44642 19.0747 5.44642C18.6677 5.44642 18.344 5.72209 18.344 6.06875C18.344 6.06875 18.344 6.06875 18.344 9.65237C18.344 9.99903 18.0154 10.2747 17.525 10.2747C17.525 10.2747 17.525 10.2747 13.3712 10.2747C12.9642 10.2747 12.6356 9.99903 12.6356 9.65237C12.6356 9.65237 12.6356 9.65237 12.6356 6.06875C12.6356 5.72209 12.3119 5.44642 11.9 5.44642H9.3744C8.96736 5.44642 8.88399 5.23759 9.1292 4.96193C9.1292 4.96193 9.1292 4.96193 14.8376 0.133655L15.2103 0Z" fill="#22372D"/>
<path fill-rule="evenodd" clip-rule="evenodd" d="M6.27478 7.59324C6.37777 7.63501 6.44152 7.75613 6.44152 7.93155V17.9974C6.44152 18.1728 6.37777 18.2773 6.27478 18.3107C6.1767 18.3441 6.03448 18.3107 5.86774 18.2063C5.86774 18.2063 5.86774 18.2063 0.242752 13.378C-0.0809175 13.1733 -0.0809175 12.7556 0.242752 12.48C0.242752 12.48 0.242753 12.48 5.86774 7.72272C6.03448 7.58488 6.1767 7.55147 6.27478 7.59324Z" fill="#22372D"/>
<path fill-rule="evenodd" clip-rule="evenodd" d="M13.3707 15.5166C13.3707 15.5166 13.3707 15.5166 17.5244 15.5166C18.0148 15.5166 18.3434 15.7923 18.3434 16.1389C18.3434 16.1389 18.3434 16.1389 18.3434 19.9314C18.3434 20.3449 18.6671 20.6205 19.0741 20.6205H21.276C21.6831 20.6205 21.8449 20.8252 21.5212 21.034C21.5212 21.034 21.5212 21.034 15.9796 25.7913C15.8129 25.9291 15.6118 26.0001 15.4058 26.0001C15.2048 26.0001 14.9988 25.9291 14.837 25.7913C14.837 25.7913 14.837 25.7913 9.29536 21.034C8.96678 20.8252 9.12862 20.6205 9.53566 20.6205C9.53566 20.6205 9.53566 20.6205 11.8994 20.6205C12.3114 20.6205 12.635 20.3449 12.635 19.9314C12.635 19.9314 12.635 19.9314 12.635 16.1389C12.635 15.7923 12.9636 15.5166 13.3707 15.5166Z" fill="#22372D"/>
</svg>
