<svg width="36" height="36" viewBox="0 0 36 36" fill="none" xmlns="http://www.w3.org/2000/svg">
<path d="M18.2435 35.4958C28.0049 35.4958 35.9914 27.5092 35.9914 17.7479C35.9914 7.98656 28.0049 0 18.2435 0C8.48216 0 0.495605 7.98656 0.495605 17.7479C0.495605 27.5092 8.48216 35.4958 18.2435 35.4958Z" fill="#2CA5E0"/>
<path d="M26.0821 11.6843C26.0821 12.128 25.9343 12.7196 25.7864 13.1633C24.899 17.3045 24.1595 21.4457 23.2721 25.5869C23.1242 25.8827 23.1242 26.0306 22.9763 26.3264C22.8284 26.6222 22.3847 26.77 22.0889 26.6221C21.7931 26.4742 21.6452 26.4743 21.4973 26.3264C20.1662 25.2911 18.983 24.4037 17.6519 23.3684C17.504 23.2205 17.3561 23.2205 17.3561 23.3684C16.7645 23.96 16.1729 24.5516 15.4334 25.2911C15.1376 25.5869 14.8418 25.5869 14.546 25.5869C14.2502 25.5869 14.2502 25.439 14.1023 25.2911C13.8065 24.1079 13.3628 22.7768 12.9191 21.4457C12.7712 21.002 12.6233 20.5583 12.4754 20.1146C12.3275 19.9667 12.3275 19.8188 12.1796 19.8188C10.9964 19.523 9.66533 19.0793 8.33424 18.6356C8.18634 18.4877 8.03846 18.4877 7.89056 18.4877C7.59476 18.1919 7.59475 17.8961 7.74265 17.7482C7.89055 17.6003 8.18635 17.4524 8.48215 17.3045C10.109 16.565 11.8838 15.9734 13.6586 15.2339C17.3561 13.7549 21.0536 12.276 24.899 10.797H25.0469C25.4906 10.5012 26.0821 10.7969 26.0821 11.6843ZM14.3981 24.4037C14.546 24.4037 14.546 24.4037 14.3981 24.4037C14.546 23.3684 14.6939 22.481 14.6939 21.5936C14.6939 21.2978 14.8418 21.1499 14.9897 21.002C17.3561 18.7835 19.8704 16.565 22.2368 14.1986C22.3847 14.0507 22.5326 13.9028 22.6805 13.7549C22.8284 13.607 22.8284 13.607 22.8284 13.4591C22.6805 13.3112 22.6805 13.3112 22.5326 13.3112C22.3847 13.3112 22.2368 13.4591 21.941 13.4591C18.983 15.3818 16.025 17.3045 12.9191 19.2272C12.7712 19.3751 12.7712 19.3751 12.7712 19.523C13.067 20.7062 13.5107 21.8894 13.8065 22.9247C14.1023 23.6642 14.2502 24.1079 14.3981 24.4037Z" fill="white"/>
</svg>
