<svg width="108" height="26" viewBox="0 0 108 26" fill="none" xmlns="http://www.w3.org/2000/svg">
<path d="M19.6128 14.926C19.6121 14.9258 10.213 12.9779 10.213 12.9779C7.41146 12.3973 5.65403 9.84659 6.28783 7.28073C6.92201 4.71487 9.70715 3.10573 12.5087 3.68618C15.3104 4.26684 17.0676 6.81748 16.4338 9.38317C16.1162 10.6678 15.2594 11.7116 14.1313 12.3619C14.1311 12.3619 14.1284 12.3641 14.1273 12.3646C14.0941 12.3864 14.0726 12.4219 14.0726 12.4618C14.0726 12.5178 14.1148 12.5648 14.1718 12.5774C14.172 12.5775 18.3531 13.4434 18.3538 13.4434C18.4533 13.4641 18.5566 13.4289 18.6178 13.355C18.6181 13.3543 18.6179 13.3548 18.6179 13.3548C19.7698 11.9589 20.4617 10.2172 20.4617 8.33335C20.4617 3.89686 16.677 0.271246 11.9032 0.0137329C11.8606 0.0115776 11.6019 0.00232315 11.5145 0.00118256C9.40086 -0.0292053 7.25783 0.525839 5.39425 1.72109C0.688015 4.73896 -0.45542 10.6791 2.8395 14.989L11.2019 25.9265C11.2376 25.9711 11.2951 26 11.3596 26C11.4247 26 11.4824 25.9706 11.5179 25.9257C11.5179 25.9257 19.7296 15.2008 19.7303 15.1999C19.7513 15.1715 19.7637 15.137 19.7637 15.1C19.7637 15.0151 19.6993 14.9441 19.6128 14.926Z" fill="#22372D"/>
<path d="M27.6602 5.12126C27.7608 5.12126 27.8275 5.15178 27.8608 5.21302L30.6492 9.57081H30.7826L33.1536 5.27396C33.2036 5.16682 33.304 5.12126 33.4375 5.12126H35.1406C35.2909 5.12126 35.3742 5.25891 35.3073 5.36576L30.3984 13.3174C30.3485 13.409 30.2485 13.4551 30.1147 13.4551H28.4451C28.2614 13.4551 28.2448 13.3479 28.3117 13.2256L29.6305 11.1611L25.6902 5.32003C25.6231 5.21302 25.6734 5.12126 25.7903 5.12126H27.6602Z" fill="#22372D"/>
<path d="M38.2355 5.12126C38.3858 5.12126 38.4693 5.19751 38.4693 5.3352V8.60551L42.2265 5.2434C42.3265 5.16682 42.4767 5.12126 42.6603 5.12126H44.6974C44.8477 5.12126 44.898 5.24341 44.7808 5.35054L40.7901 8.77587L45.0314 13.2256C45.1482 13.3324 45.0817 13.4551 44.9313 13.4551H42.9277C42.744 13.4551 42.6106 13.409 42.51 13.3019L39.3326 9.86944L38.4693 10.6048V13.2408C38.4693 13.3785 38.3858 13.4551 38.2355 13.4551H36.7663C36.616 13.4551 36.5327 13.3785 36.5327 13.2408V5.3352C36.5327 5.19751 36.616 5.12126 36.7663 5.12126H38.2355Z" fill="#22372D"/>
<path d="M50.5713 9.55576C51.5898 9.55576 52.174 8.97481 52.174 8.1644C52.174 7.36913 51.5898 6.80352 50.5713 6.80352H48.1499V9.55576H50.5713ZM50.5713 5.12126C52.5912 5.12126 54.1104 6.45155 54.1104 8.1644C54.1104 9.93812 52.5912 11.2379 50.5713 11.2379H48.1499V13.241C48.1499 13.3785 48.0663 13.4551 47.9164 13.4551H46.4467C46.2966 13.4551 46.2129 13.3785 46.2129 13.241V5.33537C46.2129 5.19768 46.2966 5.12126 46.4467 5.12126H50.5713Z" fill="#22372D"/>
<path d="M63.2366 5.12126C63.3866 5.12126 63.4706 5.19751 63.4706 5.3352V13.2408C63.4706 13.3785 63.3866 13.4551 63.2366 13.4551H61.7668C61.6173 13.4551 61.5333 13.3785 61.5333 13.2408V6.78784H57.4925V13.2408C57.4925 13.3785 57.409 13.4551 57.259 13.4551H55.7896C55.6392 13.4551 55.5557 13.3785 55.5557 13.2408V5.3352C55.5557 5.19751 55.6392 5.12126 55.7896 5.12126H63.2366Z" fill="#22372D"/>
<path d="M67.1483 9.29548C67.1483 10.8094 68.3168 11.91 69.9864 11.91C71.6399 11.91 72.8088 10.8094 72.8088 9.29548C72.8088 7.75104 71.6399 6.66542 69.9864 6.66542C68.3168 6.66542 67.1483 7.75104 67.1483 9.29548ZM69.9864 4.99846C72.6081 4.99846 74.7623 6.8488 74.7623 9.29548C74.7623 11.7573 72.6081 13.5771 69.9864 13.5771C67.3486 13.5771 65.1948 11.7573 65.1948 9.29548C65.1948 6.8488 67.3486 4.99846 69.9864 4.99846Z" fill="#22372D"/>
<path d="M81.2447 11.7883V5.33503C81.2447 5.19768 81.3277 5.12126 81.4786 5.12126H82.9143C83.0648 5.12126 83.1483 5.19768 83.1483 5.33503V11.7883H86.0035V5.33503C86.0035 5.19768 86.0865 5.12126 86.237 5.12126H87.6731C87.8236 5.12126 87.9066 5.19768 87.9066 5.33503V13.2408C87.9066 13.3785 87.8236 13.4551 87.6731 13.4551H76.7198C76.6031 13.4551 76.4858 13.3785 76.4858 13.2408V5.33503C76.4858 5.19768 76.5689 5.12126 76.7198 5.12126H78.1555C78.3059 5.12126 78.3895 5.19768 78.3895 5.33503V11.7883H81.2447Z" fill="#22372D"/>
<path d="M97.1835 5.12126C97.333 5.12126 97.417 5.19751 97.417 5.3352V6.58907C97.417 6.72677 97.333 6.80305 97.1835 6.80305H94.278V13.2408C94.278 13.3785 94.194 13.4551 94.044 13.4551H92.5746C92.4247 13.4551 92.3411 13.3785 92.3411 13.2408V6.80305H89.4356C89.2857 6.80305 89.2017 6.72677 89.2017 6.58907V5.3352C89.2017 5.19751 89.2857 5.12126 89.4356 5.12126H97.1835Z" fill="#22372D"/>
<path d="M100.487 10.1982H103.659L102.19 6.77301H102.007L100.487 10.1982ZM104.327 11.8037H99.7854L99.1514 13.2715C99.1015 13.394 99.0014 13.4551 98.8675 13.4551H97.2145C97.0479 13.4551 96.9976 13.3785 97.0479 13.241L100.988 5.24374C101.021 5.16716 101.088 5.12126 101.205 5.12126H103.109C103.225 5.12126 103.292 5.16716 103.325 5.24374L107.082 13.2102C107.133 13.3329 107.049 13.4551 106.899 13.4551H105.313C105.146 13.4551 105.028 13.3785 104.962 13.241L104.327 11.8037Z" fill="#22372D"/>
<path d="M26.9751 20.5996V17.0308H29.5389V17.4419H27.4901V20.5996H26.9751Z" fill="#22372D"/>
<path d="M30.801 18.81C30.801 19.7023 31.3322 20.2786 32.1594 20.2786C32.9757 20.2786 33.507 19.697 33.507 18.81C33.507 17.9279 32.9757 17.3565 32.1484 17.3565C31.2282 17.3565 30.801 18.048 30.801 18.81ZM34.0222 18.7849C34.0222 19.8327 33.3921 20.6846 32.154 20.6846C30.9052 20.6846 30.2861 19.8124 30.2861 18.7748C30.2861 17.6624 31.0146 16.9454 32.1484 16.9454C33.3591 16.9454 34.0222 17.7222 34.0222 18.7849Z" fill="#22372D"/>
<path d="M38.0527 20.6005H37.5379V17.4428H36.0972L36.0206 19.4526C35.9932 20.1696 35.7082 20.6758 35.1167 20.6758C35.007 20.6758 34.8428 20.6406 34.7441 20.6055V20.2045C34.8155 20.2447 34.9633 20.2548 35.0234 20.2548C35.3028 20.2548 35.5058 20.1143 35.533 19.207L35.6042 17.0317H38.0527V20.6005Z" fill="#22372D"/>
<path d="M39.7828 18.81C39.7828 19.7023 40.314 20.2786 41.1413 20.2786C41.9574 20.2786 42.4888 19.697 42.4888 18.81C42.4888 17.9279 41.9574 17.3565 41.1303 17.3565C40.21 17.3565 39.7828 18.048 39.7828 18.81ZM43.0036 18.7849C43.0036 19.8327 42.374 20.6846 41.1359 20.6846C39.8868 20.6846 39.2676 19.8124 39.2676 18.7748C39.2676 17.6624 39.9964 16.9454 41.1303 16.9454C42.341 16.9454 43.0036 17.7222 43.0036 18.7849Z" fill="#22372D"/>
<path d="M44.7187 20.2036H45.7487C46.269 20.2036 46.7784 20.1737 46.7784 19.5471C46.7784 18.9256 46.1814 18.9305 45.6611 18.9305H44.7187V20.2036ZM44.7187 18.5596H45.6445C46.0828 18.5596 46.6088 18.5295 46.6088 17.9933C46.6088 17.4567 46.1538 17.4318 45.6939 17.4318H44.7187V18.5596ZM45.8802 17.0308C46.5266 17.0308 47.1233 17.2665 47.1233 17.923C47.1233 18.2738 46.899 18.5747 46.5484 18.6898C47.0304 18.7904 47.2987 19.1209 47.2987 19.5922C47.2987 20.4142 46.5648 20.5996 45.8199 20.5996H44.2148V17.0308H45.8802Z" fill="#22372D"/>
<path d="M51.6189 20.5996H51.1039V18.9305H49.0443V20.5996H48.5293V17.0308H49.0443V18.5193H51.1039V17.0308H51.6189V20.5996Z" fill="#22372D"/>
<path d="M54.4943 17.4818L53.8206 19.1311H55.1575L54.4943 17.4818ZM56.3186 20.5996H55.7436L55.3107 19.507H53.6729L53.2294 20.5996H52.6812L54.2151 17.0308H54.7957L56.3186 20.5996Z" fill="#22372D"/>
<path d="M62.6697 20.5996H62.1547V17.4419H60.0951V20.5996H59.5801V17.0308H62.6697V20.5996Z" fill="#22372D"/>
<path d="M64.4037 18.81C64.4037 19.7023 64.9349 20.2786 65.7618 20.2786C66.5782 20.2786 67.1094 19.697 67.1094 18.81C67.1094 17.9279 66.5782 17.3565 65.7512 17.3565C64.8306 17.3565 64.4037 18.048 64.4037 18.81ZM67.6244 18.7849C67.6244 19.8327 66.9945 20.6846 65.7568 20.6846C64.5075 20.6846 63.8887 19.8124 63.8887 18.7748C63.8887 17.6624 64.6169 16.9454 65.7512 16.9454C66.9617 16.9454 67.6244 17.7222 67.6244 18.7849Z" fill="#22372D"/>
<path d="M68.8359 17.0308H69.351V20.1887H71.082V17.0308H71.5965V20.1887H73.3276V17.0308H73.8426V20.5996H68.8359V17.0308Z" fill="#22372D"/>
<path d="M78.0729 17.4419H76.7637V20.5996H76.2487V17.4419H74.9395V17.0308H78.0729V17.4419Z" fill="#22372D"/>
<path d="M80.0666 17.4818L79.3933 19.1311H80.7297L80.0666 17.4818ZM81.8913 20.5996H81.3158L80.883 19.507H79.2451L78.8017 20.5996H78.2534L79.7874 17.0308H80.3679L81.8913 20.5996Z" fill="#22372D"/>
<path d="M86.6757 18.4645L88.3846 20.5996H87.7274L86.3139 18.7851L85.6678 19.3467V20.5996H85.1528V17.0308H85.6678V18.8002L87.6453 17.0308H88.3191L86.6757 18.4645Z" fill="#22372D"/>
<path d="M89.9847 18.74H90.976C91.4749 18.74 91.8584 18.6147 91.8584 18.0886C91.8584 17.517 91.4144 17.4368 90.9049 17.4368H89.9847V18.74ZM91.0748 17.0308C91.8201 17.0308 92.3729 17.3164 92.3729 18.0583C92.3729 18.8655 91.8034 19.1361 91.042 19.1361H89.9847V20.5996H89.4697V17.0308H91.0748Z" fill="#22372D"/>
<path d="M94.6525 17.4818L93.9788 19.1311H95.3152L94.6525 17.4818ZM96.4768 20.5996H95.9018L95.4689 19.507H93.8311L93.3871 20.5996H92.8394L94.3729 17.0308H94.9539L96.4768 20.5996Z" fill="#22372D"/>
<path d="M98.5734 16.7251H98.08V16.2189H98.5734V16.7251ZM98.0639 20.5996H97.5489V17.0308H98.0639V20.5996ZM97.5378 16.7251H97.0449V16.2189H97.5378V16.7251Z" fill="#22372D"/>
<path d="M102.578 20.5996H102.064V18.9305H100.004V20.5996H99.4893V17.0308H100.004V18.5193H102.064V17.0308H102.578V20.5996Z" fill="#22372D"/>
<path d="M103.994 17.0308H104.509V20.0533H104.52L106.432 17.0308H107.083V20.5996H106.569V17.567H106.558L104.64 20.5996H103.994V17.0308Z" fill="#22372D"/>
</svg>
