<svg width="36" height="36" viewBox="0 0 36 36" fill="none" xmlns="http://www.w3.org/2000/svg">
<path d="M17.7396 35.4958C27.5009 35.4958 35.4875 27.5092 35.4875 17.7479C35.4875 7.98656 27.5009 0 17.7396 0C7.97825 0 -0.00830078 7.98656 -0.00830078 17.7479C-0.00830078 27.5092 7.97825 35.4958 17.7396 35.4958Z" fill="#5BB655"/>
<path d="M6.70017 28.3549C6.90008 27.2547 7.09313 26.1888 7.28732 25.1223C7.38298 24.5978 7.48723 24.0744 7.56915 23.5477C7.58576 23.442 7.54222 23.3099 7.48551 23.2137C6.46875 21.4833 5.93086 19.618 5.90852 17.624C5.87759 14.8558 6.73797 12.3709 8.52405 10.2234C10.5536 7.78354 13.1829 6.3556 16.3678 5.9958C22.7737 5.27171 28.3015 9.57071 29.3778 15.3539C30.5378 21.5873 26.3711 27.5673 20.0345 28.7518C17.3055 29.2623 14.706 28.8862 12.2302 27.6522C12.0968 27.5858 11.9169 27.556 11.7697 27.5785C10.1692 27.8236 8.57102 28.0834 6.97169 28.3375C6.89779 28.3493 6.82161 28.3476 6.70017 28.3543V28.3549ZM9.06194 26.1062C9.17249 26.0972 9.2292 26.0977 9.28362 26.0876C10.1916 25.9206 11.0983 25.7452 12.0086 25.5923C12.1586 25.567 12.3517 25.5968 12.4806 25.6733C14.7077 26.9955 17.0993 27.42 19.6529 26.9511C25.4654 25.8835 29.0221 20.0284 27.2223 14.4999C25.698 9.81976 20.8198 7.00773 15.8333 7.93533C9.13984 9.18 5.67595 16.6126 9.16963 22.3142C9.56717 22.963 9.66741 23.5151 9.46578 24.2082C9.28878 24.8154 9.19884 25.4473 9.06194 26.1067V26.1062Z" fill="white"/>
<path d="M12.1118 14.7233C12.1491 13.6832 12.5672 12.836 13.3864 12.1828C13.6264 11.9911 13.9048 11.9118 14.2158 11.9601C14.2914 11.9719 14.3688 11.9955 14.4427 11.9877C14.9473 11.9343 15.1799 12.1991 15.3185 12.6404C15.515 13.265 15.7212 13.8895 15.9795 14.4905C16.1617 14.915 16.0489 15.2326 15.7693 15.5384C15.5843 15.7402 15.3924 15.9364 15.1931 16.1242C15.0155 16.2917 14.9874 16.4671 15.0985 16.6796C15.9538 18.3111 17.2209 19.5209 18.9256 20.2827C19.1318 20.3749 19.314 20.3439 19.4704 20.1781C19.7814 19.8481 20.1051 19.5288 20.4001 19.1859C20.5902 18.9649 20.7936 18.8913 21.0502 19.0279C21.8373 19.4473 22.6243 19.8678 23.4 20.3074C23.4968 20.3619 23.5815 20.5373 23.5747 20.6515C23.5271 21.4329 23.2768 22.1098 22.5333 22.5331C21.6465 23.0385 20.7449 23.1734 19.7413 22.8653C17.0129 22.0271 14.9456 20.3861 13.4459 18.0199C12.9367 17.2165 12.4131 16.4216 12.2252 15.4726C12.176 15.2253 12.1496 14.974 12.1124 14.7249L12.1118 14.7233Z" fill="white"/>
</svg>
