<svg width="36" height="36" viewBox="0 0 36 36" fill="none" xmlns="http://www.w3.org/2000/svg">
<path d="M17.7479 35.4958C27.5092 35.4958 35.4958 27.5092 35.4958 17.7479C35.4958 7.98656 27.5092 0 17.7479 0C7.98656 0 0 7.98656 0 17.7479C0 27.5092 7.98656 35.4958 17.7479 35.4958Z" fill="#7C529D"/>
<path d="M27.8053 13.1632C27.2137 11.0926 24.9952 9.02204 23.0725 8.57834C19.8187 7.98674 16.417 7.98674 13.1633 8.57834C11.0927 9.02204 8.87421 11.0926 8.43051 13.1632C7.83892 15.9733 7.83892 18.7834 8.43051 21.5934C8.87421 23.5161 10.9448 25.5867 13.0154 26.1783V28.3968C13.0154 29.1363 14.0506 29.58 14.4943 28.9884L16.7128 26.622C17.3044 26.622 17.7481 26.622 18.1918 26.622C19.8187 26.622 21.4456 26.4741 23.2204 26.1783C25.291 25.7346 27.5095 23.664 27.9532 21.5934C28.3969 18.7834 28.3969 15.9733 27.8053 13.1632ZM26.0305 21.1498C25.7347 22.4809 23.9599 24.1077 22.6288 24.4035C20.854 24.6993 19.0793 24.8472 17.3045 24.8472H17.1566C16.8608 25.143 15.5297 26.4741 15.5297 26.4741L13.7548 28.2489C13.6069 28.3968 13.4591 28.2489 13.4591 28.101V24.4035C13.4591 24.2556 13.4591 24.2556 13.3112 24.2556C11.9801 23.9598 10.3532 22.333 9.90951 21.0019C9.31791 18.4876 9.31791 15.8254 9.90951 13.3111C10.2053 11.98 11.9801 10.3531 13.3112 10.0573C16.417 9.46574 19.523 9.46574 22.4809 10.0573C23.812 10.3531 25.4389 11.98 25.8826 13.3111C26.4742 15.9733 26.4742 18.6355 26.0305 21.1498ZM21.5935 19.8186C21.2977 19.6707 21.0019 19.375 20.7061 19.2271C20.4103 19.0792 19.9666 19.0792 19.6708 19.2271C19.375 19.5229 19.2272 19.9665 18.7835 19.9665C18.4877 19.9665 18.3398 19.8186 18.044 19.8186C16.7129 19.227 15.8254 18.1917 15.3817 16.8607C15.2338 16.7128 15.2338 16.5649 15.3817 16.2691C15.5296 16.1212 15.5297 16.1212 15.5297 16.1212C15.6776 15.9733 15.6776 15.9733 15.8255 15.9733C16.1213 15.6775 16.2691 15.2338 16.1212 14.7901C15.8254 14.1985 15.3818 13.6069 14.9381 13.0153C14.6423 12.7195 14.3465 12.7195 14.1986 12.8674C13.9028 13.0153 13.4591 13.3111 13.1633 13.6069C12.8675 13.9027 12.5717 14.4943 12.8675 14.938C13.0154 15.5296 13.3112 15.9733 13.4591 16.417C14.0507 17.4523 14.6423 18.4876 15.3817 19.375C16.8607 21.0019 18.4876 21.8892 20.4103 22.7766C20.5582 22.9245 20.7061 22.9245 21.0019 22.9245C21.1498 22.7766 21.2977 22.7766 21.5935 22.7766C22.1851 22.4808 22.6288 22.0371 22.7767 21.4455C22.9246 21.1497 22.9246 20.8539 22.6288 20.5581C22.1851 20.2623 21.8893 19.9665 21.5935 19.8186ZM18.044 11.98C17.8961 11.98 20.4103 12.1279 18.044 11.98V11.98ZM18.044 11.98C17.8961 11.98 17.8961 11.98 17.8961 11.98C17.7482 11.98 17.6002 12.1279 17.6002 12.2758C17.6002 12.4237 17.8961 12.5716 18.044 12.5716C18.3398 12.5716 18.6356 12.5716 18.7835 12.7195C20.7061 13.0153 22.0372 14.6422 22.333 16.417C22.4809 16.7128 22.4809 17.1565 22.4809 17.4523C22.4809 17.6002 22.6288 17.7481 22.7767 17.7481C22.9246 17.7481 23.0725 17.6002 23.0725 17.4523C23.0725 17.0086 22.9246 16.5649 22.9246 16.2691C22.4809 13.7548 20.4103 12.1279 18.044 11.98ZM21.1498 16.8607C21.1498 17.0086 21.1498 17.0086 21.1498 17.1565C21.2977 17.4523 21.5935 17.3044 21.7414 17.1565C21.7414 17.0086 21.7414 17.0086 21.7414 17.0086C21.7414 16.8607 21.7414 16.7128 21.7414 16.5649C21.7414 16.417 21.7414 16.417 21.7414 16.417C21.5935 15.2338 21.0019 14.3464 19.9666 13.9027C19.375 13.6069 18.9313 13.6069 18.3397 13.459C18.1918 13.459 18.044 13.6069 18.044 13.7548C18.044 13.9027 18.1918 14.0506 18.3397 14.0506C18.4876 14.0506 18.6356 14.0506 18.7835 14.1985C19.0793 14.3464 19.375 14.3464 19.8187 14.4943C20.2624 14.7901 20.7061 15.0859 21.0019 15.6775C21.0019 15.8254 21.1498 16.417 21.1498 16.8607ZM20.2624 16.8607C20.4103 16.8607 20.4103 16.7128 20.4103 16.7128C20.4103 16.7128 20.4103 16.5649 20.4103 16.417C20.2624 15.2338 19.6708 14.7901 18.6355 14.7901C18.4876 14.7901 18.3397 14.938 18.3397 15.0859C18.3397 15.2338 18.4876 15.3817 18.6355 15.3817C18.7834 15.3817 18.9313 15.3817 19.0792 15.5296C19.2271 15.5296 19.375 15.6775 19.375 15.6775C19.5229 15.8254 19.6708 15.9733 19.8187 16.2691C19.8187 16.417 19.8187 16.5649 19.9666 16.5649C19.8187 16.8607 19.9666 16.8607 20.2624 16.8607C20.1145 16.8607 19.9666 16.8607 20.2624 16.8607Z" fill="white"/>
</svg>
