<?xml version="1.0" encoding="UTF-8"?>
<!DOCTYPE svg PUBLIC "-//W3C//DTD SVG 1.1//EN" "http://www.w3.org/Graphics/SVG/1.1/DTD/svg11.dtd">
<svg xmlns="http://www.w3.org/2000/svg" version="1.1" width="256px" height="256px" style="shape-rendering:geometricPrecision; text-rendering:geometricPrecision; image-rendering:optimizeQuality; fill-rule:evenodd; clip-rule:evenodd" xmlns:xlink="http://www.w3.org/1999/xlink">
<g><path style="opacity:1" fill="#fafafa" d="M -0.5,-0.5 C 84.8333,-0.5 170.167,-0.5 255.5,-0.5C 255.5,84.8333 255.5,170.167 255.5,255.5C 170.167,255.5 84.8333,255.5 -0.5,255.5C -0.5,170.167 -0.5,84.8333 -0.5,-0.5 Z"/></g>
<g><path style="opacity:1" fill="#0b0b0b" d="M 117.5,14.5 C 175.626,13.9546 215.126,40.6213 236,94.5C 241.141,113.344 241.808,132.344 238,151.5C 236.267,153.602 234.267,153.935 232,152.5C 239.473,101.097 221.306,61.9305 177.5,35C 135.658,15.3155 96.325,19.3155 59.5,47C 25.4699,78.4357 14.6365,116.602 27,161.5C 30.1667,169.999 34,178.166 38.5,186C 37.5527,189.072 35.5527,190.072 32.5,189C 23.3256,175.147 17.4923,159.981 15,143.5C 11.1494,85.0073 35.9827,44.1739 89.5,21C 98.8388,18.2627 108.172,16.096 117.5,14.5 Z"/></g>
<g><path style="opacity:1" fill="#0a0a0a" d="M 121.5,30.5 C 161.83,30.2405 192.33,47.2405 213,81.5C 223.059,100.396 226.392,120.396 223,141.5C 221,142.833 219,142.833 217,141.5C 219.782,99.8876 203.282,68.7209 167.5,48C 125.498,30.5329 88.9979,38.3662 58,71.5C 38.2516,97.082 33.085,125.415 42.5,156.5C 42.4933,160.013 40.8266,161.513 37.5,161C 34.3738,156.35 32.5405,151.183 32,145.5C 26.4559,104.43 40.2893,71.5964 73.5,47C 88.2189,37.3727 104.219,31.8727 121.5,30.5 Z"/></g>
<g><path style="opacity:1" fill="#0c0c0c" d="M 117.5,47.5 C 135.182,45.0984 150.015,50.4317 162,63.5C 176.964,87.0184 174.131,108.185 153.5,127C 130.383,140.452 109.883,137.286 92,117.5C 78.6323,95.3158 81.1323,75.1492 99.5,57C 105.15,53.01 111.15,49.8433 117.5,47.5 Z"/></g>
<g><path style="opacity:1" fill="#fbfbfb" d="M 118.5,55.5 C 148.978,53.8131 163.811,68.1464 163,98.5C 156.875,118.479 143.375,127.979 122.5,127C 106.533,123.7 96.3668,114.2 92,98.5C 89.7005,77.0677 98.5338,62.7344 118.5,55.5 Z"/></g>
<g><path style="opacity:1" fill="#0c0c0c" d="M 94.5,134.5 C 96.1992,134.34 97.8659,134.506 99.5,135C 107.509,140.756 116.509,143.59 126.5,143.5C 132.573,143.158 138.573,142.324 144.5,141C 148.982,138.675 153.482,136.508 158,134.5C 160.54,135.185 163.04,136.019 165.5,137C 167.27,143.334 164.937,145.167 158.5,142.5C 137.736,154.36 117.069,154.36 96.5,142.5C 87.4623,145.568 78.4623,148.735 69.5,152C 61.5807,156.679 56.7474,163.512 55,172.5C 54.0576,181.602 54.3909,190.602 56,199.5C 56.7504,200.126 57.5838,200.626 58.5,201C 84.1732,201.167 109.84,201.667 135.5,202.5C 136.767,204.371 136.767,206.204 135.5,208C 109.587,209.648 83.5871,209.981 57.5,209C 51.5529,207.387 48.0529,203.553 47,197.5C 46.3333,188.833 46.3333,180.167 47,171.5C 49.4858,160.693 55.3192,152.193 64.5,146C 74.4817,141.844 84.4817,138.011 94.5,134.5 Z"/></g>
<g><path style="opacity:1" fill="#090d0e" d="M 183.5,144.5 C 212.2,142.727 231.034,155.394 240,182.5C 243.368,211.608 231.202,230.775 203.5,240C 173.699,244.178 154.199,232.012 145,203.5C 141.818,173.162 154.651,153.495 183.5,144.5 Z"/></g>
<g><path style="opacity:1" fill="#018afb" d="M 186.5,152.5 C 209.002,151.52 224.169,161.52 232,182.5C 235.713,205.246 227.213,221.413 206.5,231C 177.414,237.578 159.247,226.412 152,197.5C 151.664,173.345 163.164,158.345 186.5,152.5 Z"/></g>
<g><path style="opacity:1" fill="#020a0a" d="M 210.5,175.5 C 215,175.164 216.833,177.164 216,181.5C 206.5,191 197,200.5 187.5,210C 186.167,210.667 184.833,210.667 183.5,210C 178.667,205.167 173.833,200.333 169,195.5C 167.795,192.132 168.795,189.798 172,188.5C 176.637,192.301 181.137,196.301 185.5,200.5C 194.188,192.479 202.521,184.146 210.5,175.5 Z"/></g>
<g><path style="opacity:1" fill="#0a0a0a" d="M 68.5,217.5 C 76.3203,221.24 84.3203,224.74 92.5,228C 110.498,233.924 128.831,235.09 147.5,231.5C 152.671,232.357 153.671,234.857 150.5,239C 122.737,244.239 96.4037,240.239 71.5,227C 66.3698,224.96 65.3698,221.793 68.5,217.5 Z"/></g>
</svg>
