<?xml version="1.0" encoding="UTF-8"?>
<!DOCTYPE svg PUBLIC "-//W3C//DTD SVG 1.1//EN" "http://www.w3.org/Graphics/SVG/1.1/DTD/svg11.dtd">
<svg xmlns="http://www.w3.org/2000/svg" version="1.1" width="256px" height="256px" style="shape-rendering:geometricPrecision; text-rendering:geometricPrecision; image-rendering:optimizeQuality; fill-rule:evenodd; clip-rule:evenodd" xmlns:xlink="http://www.w3.org/1999/xlink">
<g><path style="opacity:1" fill="#fdfdfd" d="M -0.5,-0.5 C 84.8333,-0.5 170.167,-0.5 255.5,-0.5C 255.5,84.8333 255.5,170.167 255.5,255.5C 170.167,255.5 84.8333,255.5 -0.5,255.5C -0.5,170.167 -0.5,84.8333 -0.5,-0.5 Z"/></g>
<g><path style="opacity:1" fill="#0d0d0d" d="M 51.5,12.5 C 103.168,12.3333 154.834,12.5 206.5,13C 215.114,14.2804 220.614,19.1137 223,27.5C 223.667,95.8333 223.667,164.167 223,232.5C 219.877,238.996 214.71,241.496 207.5,240C 183.046,226.957 158.379,214.29 133.5,202C 130.833,201.333 128.167,201.333 125.5,202C 101.5,214.333 77.5,226.667 53.5,239C 45.6974,242.512 40.1974,240.345 37,232.5C 36.3333,163.833 36.3333,95.1667 37,26.5C 39.774,19.5569 44.6073,14.8903 51.5,12.5 Z"/></g>
<g><path style="opacity:1" fill="#f9f9f9" d="M 52.5,19.5 C 104.168,19.3333 155.834,19.5 207.5,20C 212.099,21.5981 214.932,24.7647 216,29.5C 216.667,96.5 216.667,163.5 216,230.5C 214.695,233.306 212.528,234.14 209.5,233C 183.296,219.148 156.796,205.981 130,193.5C 128.112,193.796 126.278,194.296 124.5,195C 99.6245,207.938 74.6245,220.604 49.5,233C 47.2992,233.825 45.4659,233.325 44,231.5C 43.3333,163.5 43.3333,95.5 44,27.5C 46.0738,23.9231 48.9072,21.2565 52.5,19.5 Z"/></g>
<g><path style="opacity:1" fill="#08090a" d="M 101.5,64.5 C 111.749,63.298 121.082,65.6313 129.5,71.5C 146.745,60.5242 162.245,62.5242 176,77.5C 184.587,90.4829 184.587,103.483 176,116.5C 161.167,131.333 146.333,146.167 131.5,161C 129.833,161.667 128.167,161.667 126.5,161C 112.667,147.167 98.8333,133.333 85,119.5C 74.9204,106.466 73.9204,92.7996 82,78.5C 87.0621,71.7289 93.5621,67.0622 101.5,64.5 Z"/></g>
<g><path style="opacity:1" fill="#058afd" d="M 102.5,71.5 C 106.846,71.3343 111.179,71.501 115.5,72C 120.547,73.9021 125.214,76.4021 129.5,79.5C 141.246,69.9169 153.58,69.0836 166.5,77C 176.681,87.2988 178.181,98.7988 171,111.5C 157.682,125.985 143.848,139.985 129.5,153.5C 116.514,141.014 103.681,128.347 91,115.5C 80.3188,101.521 81.1522,88.3545 93.5,76C 96.5919,74.4541 99.5919,72.9541 102.5,71.5 Z"/></g>
</svg>
