<?xml version="1.0" encoding="UTF-8"?>
<!DOCTYPE svg PUBLIC "-//W3C//DTD SVG 1.1//EN" "http://www.w3.org/Graphics/SVG/1.1/DTD/svg11.dtd">
<svg xmlns="http://www.w3.org/2000/svg" version="1.1" width="256px" height="256px" style="shape-rendering:geometricPrecision; text-rendering:geometricPrecision; image-rendering:optimizeQuality; fill-rule:evenodd; clip-rule:evenodd" xmlns:xlink="http://www.w3.org/1999/xlink">
<g><path style="opacity:1" fill="#fcfcfc" d="M -0.5,-0.5 C 84.8333,-0.5 170.167,-0.5 255.5,-0.5C 255.5,84.8333 255.5,170.167 255.5,255.5C 170.167,255.5 84.8333,255.5 -0.5,255.5C -0.5,170.167 -0.5,84.8333 -0.5,-0.5 Z"/></g>
<g><path style="opacity:1" fill="#090c0c" d="M 136.5,13.5 C 171.391,12.3457 194.891,28.0123 207,60.5C 214.129,98.0791 200.296,124.579 165.5,140C 138.505,147.873 115.339,141.706 96,121.5C 74.5069,93.3168 74.1736,64.9834 95,36.5C 106.225,23.9741 120.058,16.3075 136.5,13.5 Z"/></g>
<g><path style="opacity:1" fill="#018afd" d="M 134.5,21.5 C 170.181,19.2367 192.681,35.2367 202,69.5C 204.669,98.3419 193.169,119.175 167.5,132C 136.933,142.367 112.767,134.201 95,107.5C 80.8285,77.3498 86.6618,51.8498 112.5,31C 119.554,26.9678 126.887,23.8011 134.5,21.5 Z"/></g>
<g><path style="opacity:1" fill="#040909" d="M 127.5,44.5 C 139.498,43.9968 144.665,49.6634 143,61.5C 139.061,67.373 133.561,69.5397 126.5,68C 119.412,64.783 116.912,59.283 119,51.5C 121.217,48.3227 124.05,45.9893 127.5,44.5 Z"/></g>
<g><path style="opacity:1" fill="#050b0b" d="M 155.5,46.5 C 160.006,45.5272 162.172,47.1939 162,51.5C 152.743,70.3481 143.743,89.3481 135,108.5C 131.573,110.286 129.073,109.452 127.5,106C 128.528,102.779 129.694,99.6123 131,96.5C 138.924,79.6531 147.091,62.9864 155.5,46.5 Z"/></g>
<g><path style="opacity:1" fill="#088af0" d="M 128.5,51.5 C 134.086,51.8444 136.086,54.6777 134.5,60C 129.736,62.8113 127.069,61.478 126.5,56C 126.519,54.167 127.185,52.667 128.5,51.5 Z"/></g>
<g><path style="opacity:1" fill="#020606" d="M 157.5,83.5 C 164.743,82.6299 170.576,84.9632 175,90.5C 176.47,106.029 169.637,111.862 154.5,108C 151.337,106.52 149.504,104.02 149,100.5C 147.199,92.3541 150.032,86.6874 157.5,83.5 Z"/></g>
<g><path style="opacity:1" fill="#038bf7" d="M 159.5,90.5 C 167.972,91.3521 169.639,95.1855 164.5,102C 155.943,101.523 154.276,97.69 159.5,90.5 Z"/></g>
<g><path style="opacity:1" fill="#0b0b0b" d="M 189.5,141.5 C 200.872,140.025 210.539,143.359 218.5,151.5C 228.294,147.472 235.794,150.139 241,159.5C 242.324,165.343 241.324,170.676 238,175.5C 198.895,196.97 159.395,217.804 119.5,238C 111.572,240.623 103.572,240.956 95.5,239C 79.063,232.616 62.7297,225.949 46.5,219C 37.8591,217.302 29.1924,217.135 20.5,218.5C 18.3066,218.674 16.4733,218.007 15,216.5C 14.3333,195.833 14.3333,175.167 15,154.5C 15.5,154 16,153.5 16.5,153C 35.6584,148.876 54.9917,146.042 74.5,144.5C 101.939,145.411 129.273,147.577 156.5,151C 158.722,151.695 160.889,152.528 163,153.5C 171.983,149.588 180.816,145.588 189.5,141.5 Z"/></g>
<g><path style="opacity:1" fill="#f5f5f5" d="M 190.5,149.5 C 198.154,148.174 204.82,150.008 210.5,155C 196.714,162.309 182.881,169.476 169,176.5C 169.667,170.833 169.667,165.167 169,159.5C 176.294,156.245 183.461,152.912 190.5,149.5 Z"/></g>
<g><path style="opacity:1" fill="#fafafa" d="M 25.5,209.5 C 23.5146,193.2 22.8479,176.534 23.5,159.5C 40.7439,155.554 58.2439,153.221 76,152.5C 102.926,153.492 129.759,155.658 156.5,159C 161.223,162.254 162.723,166.754 161,172.5C 159.773,174.726 157.939,176.226 155.5,177C 129.833,177.333 104.167,177.667 78.5,178C 75.8333,180.333 75.8333,182.667 78.5,185C 87.8333,185.333 97.1667,185.667 106.5,186C 111.5,191 116.5,196 121.5,201C 126.139,202.932 130.806,202.932 135.5,201C 164.654,186.923 193.654,172.589 222.5,158C 232.412,156.92 235.579,161.087 232,170.5C 192.861,191.653 153.361,212.153 113.5,232C 108.167,232.667 102.833,232.667 97.5,232C 80.8333,225 64.1667,218 47.5,211C 40.2075,209.884 32.8742,209.384 25.5,209.5 Z"/></g>
<g><path style="opacity:1" fill="#b6b6b6" d="M 23.5,159.5 C 22.8479,176.534 23.5146,193.2 25.5,209.5C 24.791,210.404 23.791,210.737 22.5,210.5C 22.1701,193.325 22.5034,176.325 23.5,159.5 Z"/></g>
<g><path style="opacity:1" fill="#f4f4f4" d="M 117.5,186.5 C 127.658,185.341 137.992,185.175 148.5,186C 142.061,189.303 135.561,192.469 129,195.5C 124.729,193.063 120.896,190.063 117.5,186.5 Z"/></g>
</svg>
