<svg width="45" height="46" viewBox="0 0 45 46" fill="none" xmlns="http://www.w3.org/2000/svg">
<path d="M35.9041 34.6292L38.119 39.6119C38.1518 39.6857 38.1988 39.7524 38.2574 39.8081C38.316 39.8638 38.385 39.9074 38.4605 39.9364C38.5359 39.9654 38.6163 39.9793 38.6971 39.9772C38.7779 39.9752 38.8575 39.9572 38.9314 39.9244C39.0053 39.8916 39.072 39.8445 39.1276 39.7859C39.1833 39.7273 39.2269 39.6583 39.256 39.5829C39.285 39.5075 39.2989 39.427 39.2968 39.3462C39.2947 39.2654 39.2768 39.1858 39.244 39.1119L37.0291 34.1293C36.9963 34.0554 36.9492 33.9887 36.8906 33.933C36.832 33.8773 36.7631 33.8337 36.6876 33.8047C36.6122 33.7757 36.5317 33.7618 36.4509 33.7639C36.3701 33.7659 36.2905 33.7839 36.2166 33.8167C36.1428 33.8495 36.0761 33.8966 36.0204 33.9552C35.9647 34.0138 35.9211 34.0828 35.8921 34.1582C35.8631 34.2337 35.8492 34.3141 35.8513 34.3949C35.8533 34.4757 35.8713 34.5553 35.9041 34.6292Z" fill="#3960FF"/>
<path d="M43.2772 42.9959L37.058 28.9998C37.0097 28.891 36.9308 28.7986 36.8309 28.7338C36.7311 28.669 36.6146 28.6345 36.4955 28.6345H29.4717C31.3659 25.5868 33.0249 22.3771 34.0234 19.4419C34.5852 17.9238 34.9006 16.3255 34.9575 14.7077C34.9662 13.0662 34.6504 11.4391 34.0282 9.92C33.4061 8.40089 32.4898 7.01972 31.3321 5.85588C30.1745 4.69203 28.7982 3.76846 27.2824 3.13824C25.7666 2.50803 24.1412 2.18359 22.4997 2.18359C20.8581 2.18359 19.2327 2.50803 17.7169 3.13824C16.2011 3.76846 14.8249 4.69203 13.6672 5.85588C12.5095 7.01972 11.5933 8.40089 10.9711 9.92C10.3489 11.4391 10.0332 13.0662 10.0419 14.7077C10.0988 16.3256 10.4141 17.924 10.976 19.4422C11.9744 22.3788 13.6338 25.5868 15.528 28.6345H8.50414C8.38509 28.6345 8.26858 28.669 8.16874 28.7338C8.0689 28.7986 7.99001 28.891 7.94164 28.9998L1.7225 42.9959C1.68084 43.0896 1.66326 43.1922 1.67135 43.2944C1.67945 43.3966 1.71297 43.4952 1.76886 43.5812C1.82475 43.6671 1.90125 43.7378 1.99139 43.7867C2.08153 43.8355 2.18246 43.8611 2.285 43.8611H42.7147C42.8172 43.8611 42.9182 43.8355 43.0083 43.7867C43.0984 43.7378 43.1749 43.6671 43.2308 43.5812C43.2867 43.4952 43.3202 43.3966 43.3283 43.2944C43.3364 43.1922 43.3188 43.0896 43.2772 42.9959ZM11.2723 14.7081C11.2641 13.2284 11.5484 11.7617 12.1089 10.3923C12.6694 9.02283 13.4951 7.7777 14.5384 6.72847C15.5818 5.67924 16.8223 4.8466 18.1886 4.27843C19.5549 3.71026 21.02 3.41777 22.4997 3.41777C23.9794 3.41777 25.4445 3.71026 26.8108 4.27843C28.177 4.8466 29.4175 5.67924 30.4609 6.72847C31.5043 7.7777 32.33 9.02283 32.8905 10.3923C33.451 11.7617 33.7353 13.2284 33.727 14.7081C33.6693 16.1911 33.3761 17.6555 32.8583 19.0464C31.7892 22.1911 29.9364 25.6635 27.852 28.8993C27.8475 28.9059 27.8432 28.913 27.839 28.9197C26.2191 31.4393 24.4356 33.8499 22.4998 36.1358C20.564 33.85 18.7803 31.4395 17.1603 28.92C17.1557 28.913 17.1519 28.9059 17.147 28.8993C15.0625 25.6649 13.2095 22.1911 12.1411 19.0467C11.6233 17.6557 11.33 16.1912 11.2723 14.7081ZM3.23141 42.6306L8.90387 29.8654H16.3123C18.0417 32.5342 19.9554 35.079 22.0393 37.4813C22.097 37.547 22.1681 37.5996 22.2478 37.6356C22.3275 37.6717 22.414 37.6904 22.5014 37.6904C22.5889 37.6904 22.6754 37.6717 22.755 37.6356C22.8347 37.5996 22.9058 37.547 22.9636 37.4813C25.0464 35.0789 26.959 32.5341 28.6873 29.8654H36.0941L41.7665 42.6309L3.23141 42.6306Z" fill="#3960FF"/>
<path d="M22.4996 21.2434C23.7924 21.2434 25.0561 20.86 26.131 20.1418C27.2059 19.4236 28.0437 18.4027 28.5384 17.2084C29.0331 16.014 29.1625 14.6998 28.9103 13.4319C28.658 12.1639 28.0355 10.9993 27.1213 10.0852C26.2072 9.1711 25.0425 8.54861 23.7746 8.29645C22.5066 8.04429 21.1924 8.17378 19.9981 8.66854C18.8037 9.16331 17.7829 10.0011 17.0648 11.0761C16.3466 12.151 15.9633 13.4147 15.9634 14.7075C15.9654 16.4404 16.6547 18.1017 17.8801 19.3269C19.1054 20.5522 20.7668 21.2414 22.4996 21.2434ZM22.4996 9.40137C23.549 9.40137 24.5748 9.71254 25.4473 10.2955C26.3198 10.8785 26.9999 11.7072 27.4015 12.6766C27.8031 13.6461 27.9082 14.7129 27.7035 15.7421C27.4988 16.7713 26.9935 17.7167 26.2515 18.4588C25.5095 19.2008 24.5641 19.7062 23.535 19.9109C22.5058 20.1157 21.4389 20.0107 20.4694 19.6092C19.4999 19.2076 18.6713 18.5276 18.0882 17.6551C17.5052 16.7827 17.1939 15.7569 17.1938 14.7075C17.1954 13.3008 17.7549 11.9522 18.7496 10.9575C19.7443 9.96281 21.0929 9.40295 22.4996 9.40137Z" fill="#3960FF"/>
</svg>
