<svg width="40" height="41" viewBox="0 0 40 41" fill="none" xmlns="http://www.w3.org/2000/svg">
<path d="M23.3333 2.7998H16.6666C16.2987 2.7998 16 3.09848 16 3.46645C16 3.83441 16.2987 4.13309 16.6666 4.13309H23.3333C23.7012 4.13309 23.9999 3.83441 23.9999 3.46645C23.9999 3.09848 23.7012 2.7998 23.3333 2.7998Z" fill="#3960FF"/>
<path d="M27.9998 2.7998H27.3331C26.9652 2.7998 26.6665 3.09848 26.6665 3.46645C26.6665 3.83441 26.9652 4.13309 27.3331 4.13309H27.9998C28.3678 4.13309 28.6664 3.83441 28.6664 3.46645C28.6664 3.09848 28.3678 2.7998 27.9998 2.7998Z" fill="#3960FF"/>
<path d="M20.8276 34.7998H19.1723C18.1583 34.7998 17.333 35.6251 17.333 36.6391V36.9611C17.333 37.9751 18.1583 38.7998 19.1717 38.7998H20.827C21.841 38.7998 22.6663 37.9751 22.6663 36.9611V36.6391C22.6663 35.6251 21.841 34.7998 20.8276 34.7998ZM21.333 36.9611C21.333 37.2398 21.1064 37.4664 20.8277 37.4664H19.1723C18.893 37.4664 18.6663 37.2398 18.6663 36.9611V36.6391C18.6663 36.3598 18.8929 36.1331 19.1723 36.1331H20.827C21.1064 36.1331 21.333 36.3597 21.333 36.6391V36.9611Z" fill="#3960FF"/>
<path d="M28.9238 0.799805H11.0765C9.74783 0.799805 8.6665 1.88113 8.6665 3.2098V38.3898C8.6665 39.7185 9.74783 40.7998 11.0765 40.7998H28.9231C30.2518 40.7998 31.3331 39.7185 31.3331 38.3905V3.2098C31.3332 1.88113 30.2519 0.799805 28.9238 0.799805ZM29.9999 38.3898C29.9999 38.9832 29.5172 39.4664 28.9238 39.4664H11.0765C10.4825 39.4664 9.99986 38.9831 9.99986 38.3904V3.2098C9.99986 2.61645 10.4825 2.13316 11.0765 2.13316H28.9231C29.5171 2.13316 29.9998 2.61652 29.9998 3.2098V38.3898H29.9999Z" fill="#3960FF"/>
<path d="M30.6664 4.7998H9.33314C8.96518 4.7998 8.6665 5.09848 8.6665 5.46645V33.4664C8.6665 33.8344 8.96518 34.1331 9.33314 34.1331H30.6665C31.0345 34.1331 31.3331 33.8344 31.3331 33.4664V5.46645C31.3331 5.09848 31.0345 4.7998 30.6664 4.7998ZM29.9998 32.7998H9.99979V6.13316H29.9998V32.7998Z" fill="#3960FF"/>
</svg>
