<svg width="56" height="52" viewBox="0 0 56 52" fill="none" xmlns="http://www.w3.org/2000/svg">
<mask id="path-1-inside-1_327_1767" fill="white">
<path d="M55.9523 10.4494C55.1169 9.60744 54.2814 8.76546 53.4461 7.92351C51.8813 6.34641 50.3165 4.76934 48.7517 3.19224C48.1371 2.57279 47.5224 1.95333 46.9078 1.33388C46.642 1.06601 46.3846 0.774883 46.1054 0.525192C45.7216 0.181959 45.1339 0.246785 44.6516 0.245623C44.2839 0.244707 43.9163 0.243792 43.5486 0.242876C42.1838 0.239493 40.819 0.23611 39.4542 0.232728C37.531 0.227972 35.6077 0.223181 33.6845 0.218424C32.3843 0.215183 31.0842 0.211976 29.7841 0.208735C29.0425 -0.0768229 28.1285 -0.0602982 27.3896 0.202781C27.3521 0.202676 27.3145 0.202604 27.277 0.202499C25.2468 0.19746 23.2165 0.192423 21.1862 0.187384C19.6072 0.183474 18.0282 0.179562 16.4491 0.175616C15.6583 0.173643 14.8675 0.168887 14.0767 0.169733C14.0416 0.169768 14.0065 0.169557 13.9714 0.169487C13.7543 0.168958 12.8199 0.1555 12.7941 0.544464C12.77 0.909048 13.8454 0.919123 13.9714 0.91944C15.0017 0.922012 16.032 0.92455 17.0623 0.927122C19.5354 0.933252 22.0086 0.939383 24.4818 0.945548C25.0705 0.946993 25.6593 0.948472 26.248 0.949917C26.153 1.03655 26.059 1.12537 25.965 1.2143C25.0748 2.05621 24.1846 2.89809 23.2944 3.74C21.7283 5.22106 20.1623 6.70212 18.5963 8.18321C16.5338 5.56831 14.4714 2.95344 12.4089 0.338531C12.1888 0.0594563 11.5618 0.0591383 11.2736 0.0632252C10.9478 0.0678759 10.3858 0.0455043 10.1384 0.338531C8.53611 2.23604 6.94545 4.1464 5.35497 6.05684C3.8831 7.82479 2.41298 9.59472 0.944053 11.366C0.643487 11.7284 0.342952 12.0908 0.0426005 12.4534C-0.257105 12.8152 1.12079 12.9297 1.17788 12.928C7.94368 12.7335 14.7106 12.5763 21.4786 12.5329C28.2689 12.4893 35.0608 12.5584 41.8475 12.8274C42.0883 12.8369 42.329 12.8467 42.5698 12.8568C42.6386 12.8596 42.7073 12.8626 42.7761 12.8654C42.4916 12.8535 42.9297 12.8721 42.9785 12.8743C43.4589 12.8954 43.9394 12.9176 44.4198 12.9408C45.3777 12.9872 46.3355 13.0378 47.2931 13.0931C48.7999 13.1801 50.3062 13.2795 51.8118 13.3906C48.5331 18.1553 45.3006 22.9615 42.0809 27.7787C38.7085 32.8243 35.349 37.8812 31.9649 42.9165C30.4046 45.2382 28.8386 47.5549 27.2649 49.8646C24.3949 45.6721 21.5448 41.4617 18.6999 37.2469C15.4567 32.4421 12.2206 27.6309 8.97157 22.8312C7.32272 20.3955 5.67017 17.9631 4.01095 15.5366C5.34768 15.5366 6.68439 15.5366 8.02112 15.5366C10.9296 15.5366 13.8381 15.5366 16.7466 15.5366C17.0584 15.5366 17.3702 15.5366 17.682 15.5366C17.9298 16.4654 18.1777 17.3942 18.4256 18.3231C19.0954 20.833 19.7652 23.343 20.435 25.853C21.2499 28.9069 22.0649 31.9609 22.8799 35.0149C23.5798 37.6379 24.2798 40.2609 24.9798 42.884C25.3204 44.1606 25.6192 45.4652 26.0048 46.7253C26.0103 46.7432 26.0145 46.7617 26.0194 46.7799C26.1258 47.1786 26.918 47.1588 27.1967 47.1548C27.4925 47.1506 28.2414 47.1881 28.374 46.7799C28.7067 45.7557 29.0394 44.7315 29.3721 43.7073C30.1707 41.2487 30.9693 38.7901 31.7679 36.3315C32.7272 33.3782 33.6865 30.4249 34.6457 27.4717C35.4804 24.902 36.3151 22.3323 37.1498 19.7626C37.4234 18.9204 37.697 18.0782 37.9705 17.2359C38.0654 16.9439 38.1717 16.6523 38.2654 16.3575C40.4075 16.38 42.5497 16.4025 44.6919 16.425C45.0476 16.4288 45.4034 16.4325 45.7592 16.4362C45.9761 16.4385 46.9109 16.449 46.9366 16.0613C46.9608 15.696 45.8854 15.6876 45.7592 15.6863C43.2633 15.66 40.7673 15.6338 38.2714 15.6075C37.9156 15.6038 37.5598 15.6001 37.204 15.5963C36.9169 15.5933 36.155 15.5763 36.0267 15.9713C35.694 16.9955 35.3613 18.0197 35.0286 19.0439C34.23 21.5025 33.4314 23.961 32.6328 26.4196C31.6736 29.3729 30.7143 32.3262 29.755 35.2795C28.9407 37.7864 28.1264 40.2933 27.3121 42.8002C26.7151 40.563 26.118 38.3257 25.521 36.0885C24.706 33.0345 23.8911 29.9806 23.0761 26.9266C22.3761 24.3036 21.6762 21.6806 20.9762 19.0575C20.6355 17.7809 20.3367 16.4763 19.9511 15.2162C19.9457 15.1983 19.9414 15.1798 19.9366 15.1616C19.8309 14.7657 19.005 14.7867 18.7593 14.7867C16.936 14.7867 15.1128 14.7867 13.2896 14.7867C10.3811 14.7867 7.47255 14.7867 4.56407 14.7867C3.89318 14.7867 3.22233 14.7867 2.55144 14.7867C2.46926 14.7867 1.14434 14.8641 1.41616 15.2613C4.60154 19.9155 7.7611 24.5928 10.9175 29.2728C14.1765 34.105 17.4314 38.941 20.7021 43.7628C22.5059 46.422 24.3147 49.077 26.1323 51.7238C26.3264 52.0065 27.0019 52.0029 27.2676 51.9991C27.4661 51.9963 27.6653 51.9823 27.8618 51.9479C27.9896 51.9256 28.3063 51.8649 28.4028 51.7238C31.8589 46.6727 35.2714 41.5827 38.6746 36.4847C42.0162 31.479 45.3493 26.4658 48.7122 21.4788C50.5777 18.7123 52.4527 15.9541 54.3432 13.21C54.5827 12.8624 53.6029 12.7552 53.5209 12.7488C46.7022 12.2182 39.8687 11.9467 33.0355 11.8337C26.2093 11.7208 19.3816 11.7697 12.5559 11.8994C9.28487 11.9616 6.01414 12.0426 2.74364 12.1337C3.44631 11.2859 4.14923 10.4384 4.85258 9.59145C6.52788 7.57397 8.20446 5.55791 9.88508 3.54629C10.3354 3.00734 10.786 2.46878 11.2372 1.93085C13.2567 4.49136 15.2763 7.05187 17.2958 9.61237C17.516 9.89145 18.1429 9.89176 18.4311 9.88768C18.788 9.8826 19.2759 9.88712 19.5664 9.61237C21.2372 8.03221 22.9081 6.452 24.5789 4.87183C25.4143 4.08175 26.2497 3.29167 27.0852 2.50155C27.496 2.11297 27.9069 1.72439 28.3177 1.33585C28.3809 1.2761 28.4439 1.21479 28.5077 1.1544C28.8314 1.51642 29.1171 1.94301 29.4107 2.31957C29.8701 2.90862 30.3294 3.4977 30.7887 4.08675C31.7073 5.26485 32.626 6.44295 33.5447 7.62104C34.0492 8.26805 34.5537 8.91506 35.0582 9.56203C35.2761 9.84149 35.9072 9.84142 36.1935 9.83733C36.5438 9.83233 37.0473 9.84149 37.3287 9.56203C38.3202 8.57743 39.3117 7.59282 40.3032 6.60822C41.869 5.05339 43.4347 3.49855 45.0004 1.94371C45.73 2.67531 46.4596 3.40691 47.1892 4.13847C48.9509 5.90499 50.7126 7.67146 52.4744 9.43797C52.8768 9.84152 53.2793 10.245 53.6817 10.6486C54.0229 10.9907 54.71 10.9549 55.1299 10.9105C55.2285 10.9002 56.2273 10.7266 55.9523 10.4494ZM36.3379 8.09203C35.245 6.69052 34.1521 5.28898 33.0593 3.88748C32.5721 3.26267 32.0849 2.6379 31.5977 2.01309C31.3381 1.68025 31.0802 1.29533 30.7898 0.961121C31.6681 0.963305 32.5465 0.96549 33.4248 0.967674C36.001 0.974051 38.5772 0.980464 41.1534 0.986841C41.928 0.988778 42.7031 0.998361 43.4781 1.00139C42.6175 1.85606 41.7568 2.71072 40.8962 3.56542C39.3768 5.07431 37.8573 6.58317 36.3379 8.09203Z"/>
</mask>
<path d="M55.9523 10.4494C55.1169 9.60744 54.2814 8.76546 53.4461 7.92351C51.8813 6.34641 50.3165 4.76934 48.7517 3.19224C48.1371 2.57279 47.5224 1.95333 46.9078 1.33388C46.642 1.06601 46.3846 0.774883 46.1054 0.525192C45.7216 0.181959 45.1339 0.246785 44.6516 0.245623C44.2839 0.244707 43.9163 0.243792 43.5486 0.242876C42.1838 0.239493 40.819 0.23611 39.4542 0.232728C37.531 0.227972 35.6077 0.223181 33.6845 0.218424C32.3843 0.215183 31.0842 0.211976 29.7841 0.208735C29.0425 -0.0768229 28.1285 -0.0602982 27.3896 0.202781C27.3521 0.202676 27.3145 0.202604 27.277 0.202499C25.2468 0.19746 23.2165 0.192423 21.1862 0.187384C19.6072 0.183474 18.0282 0.179562 16.4491 0.175616C15.6583 0.173643 14.8675 0.168887 14.0767 0.169733C14.0416 0.169768 14.0065 0.169557 13.9714 0.169487C13.7543 0.168958 12.8199 0.1555 12.7941 0.544464C12.77 0.909048 13.8454 0.919123 13.9714 0.91944C15.0017 0.922012 16.032 0.92455 17.0623 0.927122C19.5354 0.933252 22.0086 0.939383 24.4818 0.945548C25.0705 0.946993 25.6593 0.948472 26.248 0.949917C26.153 1.03655 26.059 1.12537 25.965 1.2143C25.0748 2.05621 24.1846 2.89809 23.2944 3.74C21.7283 5.22106 20.1623 6.70212 18.5963 8.18321C16.5338 5.56831 14.4714 2.95344 12.4089 0.338531C12.1888 0.0594563 11.5618 0.0591383 11.2736 0.0632252C10.9478 0.0678759 10.3858 0.0455043 10.1384 0.338531C8.53611 2.23604 6.94545 4.1464 5.35497 6.05684C3.8831 7.82479 2.41298 9.59472 0.944053 11.366C0.643487 11.7284 0.342952 12.0908 0.0426005 12.4534C-0.257105 12.8152 1.12079 12.9297 1.17788 12.928C7.94368 12.7335 14.7106 12.5763 21.4786 12.5329C28.2689 12.4893 35.0608 12.5584 41.8475 12.8274C42.0883 12.8369 42.329 12.8467 42.5698 12.8568C42.6386 12.8596 42.7073 12.8626 42.7761 12.8654C42.4916 12.8535 42.9297 12.8721 42.9785 12.8743C43.4589 12.8954 43.9394 12.9176 44.4198 12.9408C45.3777 12.9872 46.3355 13.0378 47.2931 13.0931C48.7999 13.1801 50.3062 13.2795 51.8118 13.3906C48.5331 18.1553 45.3006 22.9615 42.0809 27.7787C38.7085 32.8243 35.349 37.8812 31.9649 42.9165C30.4046 45.2382 28.8386 47.5549 27.2649 49.8646C24.3949 45.6721 21.5448 41.4617 18.6999 37.2469C15.4567 32.4421 12.2206 27.6309 8.97157 22.8312C7.32272 20.3955 5.67017 17.9631 4.01095 15.5366C5.34768 15.5366 6.68439 15.5366 8.02112 15.5366C10.9296 15.5366 13.8381 15.5366 16.7466 15.5366C17.0584 15.5366 17.3702 15.5366 17.682 15.5366C17.9298 16.4654 18.1777 17.3942 18.4256 18.3231C19.0954 20.833 19.7652 23.343 20.435 25.853C21.2499 28.9069 22.0649 31.9609 22.8799 35.0149C23.5798 37.6379 24.2798 40.2609 24.9798 42.884C25.3204 44.1606 25.6192 45.4652 26.0048 46.7253C26.0103 46.7432 26.0145 46.7617 26.0194 46.7799C26.1258 47.1786 26.918 47.1588 27.1967 47.1548C27.4925 47.1506 28.2414 47.1881 28.374 46.7799C28.7067 45.7557 29.0394 44.7315 29.3721 43.7073C30.1707 41.2487 30.9693 38.7901 31.7679 36.3315C32.7272 33.3782 33.6865 30.4249 34.6457 27.4717C35.4804 24.902 36.3151 22.3323 37.1498 19.7626C37.4234 18.9204 37.697 18.0782 37.9705 17.2359C38.0654 16.9439 38.1717 16.6523 38.2654 16.3575C40.4075 16.38 42.5497 16.4025 44.6919 16.425C45.0476 16.4288 45.4034 16.4325 45.7592 16.4362C45.9761 16.4385 46.9109 16.449 46.9366 16.0613C46.9608 15.696 45.8854 15.6876 45.7592 15.6863C43.2633 15.66 40.7673 15.6338 38.2714 15.6075C37.9156 15.6038 37.5598 15.6001 37.204 15.5963C36.9169 15.5933 36.155 15.5763 36.0267 15.9713C35.694 16.9955 35.3613 18.0197 35.0286 19.0439C34.23 21.5025 33.4314 23.961 32.6328 26.4196C31.6736 29.3729 30.7143 32.3262 29.755 35.2795C28.9407 37.7864 28.1264 40.2933 27.3121 42.8002C26.7151 40.563 26.118 38.3257 25.521 36.0885C24.706 33.0345 23.8911 29.9806 23.0761 26.9266C22.3761 24.3036 21.6762 21.6806 20.9762 19.0575C20.6355 17.7809 20.3367 16.4763 19.9511 15.2162C19.9457 15.1983 19.9414 15.1798 19.9366 15.1616C19.8309 14.7657 19.005 14.7867 18.7593 14.7867C16.936 14.7867 15.1128 14.7867 13.2896 14.7867C10.3811 14.7867 7.47255 14.7867 4.56407 14.7867C3.89318 14.7867 3.22233 14.7867 2.55144 14.7867C2.46926 14.7867 1.14434 14.8641 1.41616 15.2613C4.60154 19.9155 7.7611 24.5928 10.9175 29.2728C14.1765 34.105 17.4314 38.941 20.7021 43.7628C22.5059 46.422 24.3147 49.077 26.1323 51.7238C26.3264 52.0065 27.0019 52.0029 27.2676 51.9991C27.4661 51.9963 27.6653 51.9823 27.8618 51.9479C27.9896 51.9256 28.3063 51.8649 28.4028 51.7238C31.8589 46.6727 35.2714 41.5827 38.6746 36.4847C42.0162 31.479 45.3493 26.4658 48.7122 21.4788C50.5777 18.7123 52.4527 15.9541 54.3432 13.21C54.5827 12.8624 53.6029 12.7552 53.5209 12.7488C46.7022 12.2182 39.8687 11.9467 33.0355 11.8337C26.2093 11.7208 19.3816 11.7697 12.5559 11.8994C9.28487 11.9616 6.01414 12.0426 2.74364 12.1337C3.44631 11.2859 4.14923 10.4384 4.85258 9.59145C6.52788 7.57397 8.20446 5.55791 9.88508 3.54629C10.3354 3.00734 10.786 2.46878 11.2372 1.93085C13.2567 4.49136 15.2763 7.05187 17.2958 9.61237C17.516 9.89145 18.1429 9.89176 18.4311 9.88768C18.788 9.8826 19.2759 9.88712 19.5664 9.61237C21.2372 8.03221 22.9081 6.452 24.5789 4.87183C25.4143 4.08175 26.2497 3.29167 27.0852 2.50155C27.496 2.11297 27.9069 1.72439 28.3177 1.33585C28.3809 1.2761 28.4439 1.21479 28.5077 1.1544C28.8314 1.51642 29.1171 1.94301 29.4107 2.31957C29.8701 2.90862 30.3294 3.4977 30.7887 4.08675C31.7073 5.26485 32.626 6.44295 33.5447 7.62104C34.0492 8.26805 34.5537 8.91506 35.0582 9.56203C35.2761 9.84149 35.9072 9.84142 36.1935 9.83733C36.5438 9.83233 37.0473 9.84149 37.3287 9.56203C38.3202 8.57743 39.3117 7.59282 40.3032 6.60822C41.869 5.05339 43.4347 3.49855 45.0004 1.94371C45.73 2.67531 46.4596 3.40691 47.1892 4.13847C48.9509 5.90499 50.7126 7.67146 52.4744 9.43797C52.8768 9.84152 53.2793 10.245 53.6817 10.6486C54.0229 10.9907 54.71 10.9549 55.1299 10.9105C55.2285 10.9002 56.2273 10.7266 55.9523 10.4494ZM36.3379 8.09203C35.245 6.69052 34.1521 5.28898 33.0593 3.88748C32.5721 3.26267 32.0849 2.6379 31.5977 2.01309C31.3381 1.68025 31.0802 1.29533 30.7898 0.961121C31.6681 0.963305 32.5465 0.96549 33.4248 0.967674C36.001 0.974051 38.5772 0.980464 41.1534 0.986841C41.928 0.988778 42.7031 0.998361 43.4781 1.00139C42.6175 1.85606 41.7568 2.71072 40.8962 3.56542C39.3768 5.07431 37.8573 6.58317 36.3379 8.09203Z" fill="#3960FF" stroke="#3960FF" stroke-width="2000" mask="url(#path-1-inside-1_327_1767)"/>
</svg>
