<svg width="75" height="75" viewBox="0 0 75 75" fill="none" xmlns="http://www.w3.org/2000/svg">
<path fill-rule="evenodd" clip-rule="evenodd" d="M64.727 15.2121V17.4156C64.727 18.2133 64.0609 18.8628 63.2359 18.8628C62.4139 18.8628 61.7478 18.2163 61.7478 17.4185V11.4308C61.7478 11.2351 61.7875 11.0483 61.8609 10.8792C61.9342 10.7072 62.0411 10.5471 62.1847 10.4107C62.3345 10.2653 62.5086 10.1556 62.695 10.0874C62.8631 10.0221 63.0464 9.98953 63.2389 9.98953H69.4082C70.2302 9.98953 70.8963 10.636 70.8963 11.4368C70.8963 12.2375 70.2302 12.884 69.4082 12.884H66.6123C72.0422 19.2335 75 27.1489 75 35.5032C75 44.9785 71.1958 53.8933 64.2931 60.5928C64.012 60.8656 63.6362 61.0169 63.2389 61.0169C62.8448 61.0169 62.4659 60.8656 62.1847 60.5928C61.6042 60.0293 61.6042 59.1129 62.1847 58.5494C68.5282 52.3927 72.0208 44.2104 72.0208 35.5062C72.0208 28.0356 69.4541 20.9595 64.727 15.2121ZM43.3988 67.7311L41.431 66.6279C40.7191 66.2305 40.4746 65.3438 40.8871 64.6528C41.2966 63.9618 42.2102 63.7245 42.9221 64.1249L48.2634 67.1172C48.4986 67.2477 48.682 67.4346 48.8103 67.6481C48.8745 67.7549 48.9234 67.8705 48.957 67.9951C48.9937 68.1226 49.0089 68.2531 49.0089 68.3806C49.0059 68.6238 48.9417 68.867 48.8103 69.0924L45.7272 74.2764C45.4614 74.7242 44.9694 75 44.4347 75C44.1719 75 43.9183 74.9318 43.6922 74.8072C42.9802 74.4098 42.7358 73.5231 43.1483 72.8321L44.5477 70.4833C42.5158 70.8214 40.4563 70.9934 38.3907 70.9934C31.9769 70.9934 25.7282 69.3385 20.17 66.2246C11.7152 61.4854 5.66504 53.834 3.13804 44.6819C2.9272 43.9138 3.40082 43.1161 4.19223 42.9114C4.98363 42.7068 5.80559 43.1665 6.01643 43.9346C8.3387 52.3423 13.8938 59.3709 21.6612 63.7216C25.4868 65.8657 29.6913 67.2685 34.07 67.829C37.1684 68.2205 40.3127 68.1849 43.3988 67.7311ZM3.86528 27.9615C3.62388 27.834 3.41916 27.6442 3.28166 27.4099L0.198539 22.2259C-0.210913 21.5349 0.0335357 20.6511 0.742438 20.2507C1.4544 19.8533 2.36803 20.0906 2.77748 20.7786L4.1739 23.1275C7.12256 15.387 12.7082 8.94265 20.1639 4.76698C24.3226 2.43596 28.8938 0.90864 33.6575 0.300678C38.4212 -0.31025 43.2674 0.0159745 47.9059 1.223C48.6973 1.42763 49.1709 2.2254 48.96 2.99351C48.7492 3.76162 47.9272 4.2213 47.1358 4.01667C42.8763 2.91047 38.4304 2.61094 34.0609 3.16848C29.6822 3.72899 25.4776 5.13176 21.6551 7.27297C14.9969 11.0038 9.96429 16.6979 7.20201 23.5456L9.16983 22.4424C9.88179 22.045 10.7954 22.2822 11.2049 22.9703C11.6143 23.6613 11.3699 24.548 10.661 24.9454L5.33808 27.9289C5.11197 28.0594 4.84919 28.1335 4.57418 28.1335C4.44279 28.1335 4.31445 28.1157 4.18917 28.0831C4.07306 28.0534 3.96611 28.0119 3.86528 27.9615Z" fill="#3960FF"/>
<path fill-rule="evenodd" clip-rule="evenodd" d="M37.4986 19.4263L20.271 26.3363L37.4986 32.6265L54.7261 26.3363L37.4986 19.4263Z" fill="#3960FF"/>
<path fill-rule="evenodd" clip-rule="evenodd" d="M18.7705 27.5938V48.7568L36.6275 55.2783V34.1123L18.7705 27.5938Z" fill="#3960FF"/>
<path fill-rule="evenodd" clip-rule="evenodd" d="M38.3691 34.1123V55.2783L56.2262 48.7568V27.5938L38.3691 34.1123Z" fill="#3960FF"/>
</svg>
