<svg width="75" height="75" viewBox="0 0 75 75" fill="none" xmlns="http://www.w3.org/2000/svg">
<path d="M2.4268 45.0398L2.42676 45.0397C1.14927 41.7899 0.5 38.3378 0.5 34.7812C0.5 19.6518 12.419 7.2518 27.3611 6.48317L27.8354 6.45877V5.98383V1.49994C27.8354 1.11348 28.0592 0.760681 28.4088 0.595644L28.4098 0.595155C28.7565 0.430499 29.1708 0.482424 29.4717 0.729107C29.4718 0.729169 29.4719 0.729232 29.472 0.729295L48.6913 16.5665L48.6918 16.5669C48.9218 16.756 49.0557 17.039 49.0557 17.3378C49.0557 17.6367 48.9218 17.9197 48.6918 18.1088L48.6913 18.1092L29.4712 33.947C29.4712 33.947 29.4711 33.9471 29.4711 33.9471C29.1712 34.194 28.7574 34.2456 28.4098 34.0805L28.4088 34.08C28.0592 33.915 27.8354 33.5622 27.8354 33.1758V28.7724V28.2434L27.3073 28.2732C16.9898 28.8555 8.05689 35.3049 4.29007 45.0348L4.29001 45.0349C4.14169 45.4184 3.77266 45.6723 3.36068 45.6733H3.36061H3.36058H3.36055H3.36051H3.36048H3.36044H3.36041H3.36037H3.36034H3.36031H3.36027H3.36024H3.3602H3.36017H3.36013H3.3601H3.36007H3.36003H3.36H3.35996H3.35993H3.35989H3.35986H3.35982H3.35979H3.35976H3.35972H3.35969H3.35965H3.35962H3.35958H3.35955H3.35952H3.35948H3.35945H3.35941H3.35938H3.35934H3.35931H3.35928H3.35924H3.35921H3.35917H3.35914H3.3591H3.35907H3.35904H3.359H3.35897H3.35893H3.3589H3.35886H3.35883H3.35879H3.35876H3.35873H3.35869H3.35866H3.35862H3.35859H3.35855H3.35852H3.35849H3.35845H3.35842H3.35838H3.35835H3.35831H3.35828H3.35825H3.35821H3.35818H3.35814H3.35811H3.35807H3.35804H3.35801H3.35797H3.35794H3.3579H3.35787H3.35783H3.3578H3.35776H3.35773H3.3577H3.35766H3.35763H3.35759H3.35756H3.35752H3.35749H3.35746H3.35742C2.94583 45.6733 2.57705 45.4222 2.4268 45.0398ZM30.6534 4.29424L29.8354 3.62026V4.68012V7.44574C29.8354 7.99871 29.3884 8.44575 28.8354 8.44575C14.3137 8.44575 2.5 20.2595 2.5 34.7812C2.5 36.7751 2.7194 38.7343 3.15416 40.6377L3.44584 41.9147L4.07925 40.7681C9.02016 31.8247 18.3639 26.2299 28.8354 26.2299C29.3884 26.2299 29.8354 26.677 29.8354 27.2299V29.9956V31.0554L30.6534 30.3815L46.0152 17.7237L46.4835 17.3378L46.0152 16.952L30.6534 4.29424Z" fill="#3960FF" stroke="#3960FF"/>
<path d="M46.1631 75C45.8218 75 45.4834 74.8829 45.2095 74.6573L25.9893 58.8194C25.6436 58.5352 25.4429 58.1104 25.4429 57.6621C25.4429 57.2139 25.6436 56.7891 25.9893 56.5049L45.2095 40.667C45.6577 40.2979 46.2788 40.2188 46.8032 40.4678C47.3276 40.7153 47.6631 41.2441 47.6631 41.8242V46.2276C57.7852 45.6563 66.5464 39.3311 70.2422 29.7847C70.4648 29.209 71.0186 28.8281 71.6367 28.8267H71.6411C72.2578 28.8267 72.8115 29.2031 73.0371 29.7773C74.3394 33.0894 75 36.6021 75 40.2173C75 55.6157 62.8696 68.2339 47.6631 69.0161V73.5C47.6631 74.0801 47.3276 74.6089 46.8032 74.8565C46.5996 74.9532 46.3799 75 46.1631 75ZM29.3013 57.6621L44.6631 70.3199V67.5542C44.6631 66.7251 45.334 66.0542 46.1631 66.0542C60.4102 66.0542 72 54.4644 72 40.2173C72 38.2617 71.7847 36.3399 71.3569 34.4722C66.3296 43.5747 56.8169 49.27 46.1631 49.27C45.334 49.27 44.6631 48.5991 44.6631 47.77V45.0044L29.3013 57.6621Z" fill="#3960FF"/>
</svg>
