<svg width="73" height="61" viewBox="0 0 73 61" fill="none" xmlns="http://www.w3.org/2000/svg">
<path d="M28.3589 30.0565C28.2185 30.0565 28.0765 30.0234 27.946 29.9557L12.9627 22.08C12.5679 21.8725 12.4325 21.4123 12.6604 21.0529C12.8883 20.6934 13.3937 20.5701 13.7885 20.7777L28.7718 28.6534C29.1665 28.8609 29.302 29.3211 29.074 29.6805C28.9221 29.9212 28.6446 30.0565 28.3589 30.0565ZM35.9216 18.1294C35.7812 18.1294 35.6391 18.0963 35.5087 18.0286L20.527 10.1514C20.1323 9.94383 19.9968 9.48365 20.2248 9.12422C20.4527 8.7648 20.9581 8.64148 21.3528 8.84902L36.3345 16.7263C36.7292 16.9338 36.8646 17.394 36.6367 17.7534C36.4848 17.994 36.2073 18.1294 35.9216 18.1294ZM29.9163 34.8072C29.3284 34.8072 28.7338 34.6719 28.1888 34.3846C27.3894 33.965 26.8163 33.2838 26.5768 32.4672C26.3373 31.6506 26.4579 30.8009 26.9203 30.0715L35.9331 15.857C36.3939 15.1292 37.1421 14.6073 38.0389 14.3893C38.9357 14.1712 39.8689 14.281 40.6699 14.7021C41.4709 15.1231 42.0424 15.8029 42.2819 16.6195C42.523 17.4361 42.4008 18.2858 41.9383 19.0151C41.7104 19.3746 41.205 19.4979 40.8103 19.2903C40.4156 19.0828 40.2801 18.6226 40.5081 18.2632C40.7492 17.8827 40.812 17.4376 40.6864 17.009C40.5609 16.5804 40.2603 16.224 39.8441 16.0044C39.4263 15.7848 38.9374 15.7277 38.4667 15.842C37.996 15.9563 37.6045 16.23 37.3634 16.609L28.3506 30.8235C27.8502 31.613 28.1475 32.6266 29.0146 33.0823C29.8817 33.5379 30.9948 33.2673 31.4953 32.4777C31.7232 32.1183 32.2286 31.995 32.6233 32.2025C33.0181 32.41 33.1535 32.8702 32.9256 33.2297C32.2831 34.2403 31.1154 34.8072 29.9163 34.8072ZM33.4822 38.806C32.8942 38.806 32.2996 38.6706 31.7546 38.3834C30.9552 37.9638 30.3821 37.2826 30.1426 36.466C29.9031 35.6494 30.0237 34.7997 30.4862 34.0703L41.5188 16.6706C41.9796 15.9427 42.7278 15.4209 43.6246 15.2028C44.5215 14.9848 45.4546 15.0946 46.2556 15.5156C47.055 15.9367 47.6281 16.6165 47.8676 17.4331C48.1071 18.2497 47.9865 19.0994 47.5241 19.8287L36.4914 37.2284C35.8489 38.239 34.6812 38.8045 33.4822 38.806ZM44.5281 16.5969C44.3695 16.5969 44.2093 16.6165 44.0507 16.6541C43.58 16.7684 43.1886 17.0421 42.9475 17.421L31.9148 34.8207C31.6737 35.2012 31.6109 35.6464 31.7364 36.075C31.8619 36.5036 32.1625 36.86 32.5787 37.0795C32.9949 37.2991 33.4855 37.3563 33.9562 37.242C34.4269 37.1277 34.8183 36.854 35.0594 36.475L46.0921 19.0753C46.3333 18.6948 46.396 18.2497 46.2705 17.8211C46.145 17.3925 45.8444 17.0361 45.4282 16.8165C45.1507 16.6706 44.8419 16.5969 44.5281 16.5969ZM10.3581 24.5253C9.77013 24.5253 9.17555 24.3899 8.63052 24.1027C7.83115 23.6831 7.25804 23.0019 7.01856 22.1853C6.77908 21.3687 6.89964 20.519 7.36209 19.7896C7.59001 19.4302 8.0954 19.3069 8.49014 19.5144C8.88487 19.722 9.0203 20.1821 8.79238 20.5416C8.55125 20.922 8.48848 21.3672 8.61401 21.7958C8.73953 22.2244 9.04012 22.5808 9.45632 22.8004C9.87418 23.0199 10.3631 23.0771 10.8338 22.9628C11.3045 22.8485 11.6959 22.5748 11.937 22.1958L20.9498 7.98129C21.1909 7.60081 21.2537 7.15567 21.1282 6.72707C21.0027 6.29846 20.7021 5.94205 20.2859 5.72249C19.4188 5.26681 18.3056 5.53751 17.8052 6.32704C17.5772 6.68646 17.0719 6.80978 16.6771 6.60224C16.2824 6.39471 16.147 5.93453 16.3749 5.57511C17.3312 4.06673 19.4551 3.5494 21.1117 4.42014C21.911 4.83972 22.4841 5.52097 22.7236 6.33756C22.9631 7.15416 22.8425 8.00385 22.3801 8.73322L13.3673 22.9477C12.7248 23.9583 11.5572 24.5253 10.3581 24.5253ZM4.77238 23.7132C4.18441 23.7132 3.58984 23.5779 3.04481 23.2906C2.24543 22.871 1.67233 22.1898 1.43285 21.3732C1.19336 20.5566 1.31393 19.7069 1.77638 18.9775L12.8091 1.57784C13.2699 0.849965 14.018 0.328125 14.9149 0.110065C15.8117 -0.1095 16.7448 0.00178672 17.5459 0.422869C18.3452 0.842447 18.9183 1.5237 19.1578 2.34029C19.3973 3.15689 19.2767 4.00658 18.8143 4.73595L7.7816 22.1357C7.14078 23.1462 5.97145 23.7132 4.77238 23.7132ZM15.8199 1.50415C15.6614 1.50415 15.5012 1.5237 15.3426 1.56129C14.8719 1.67559 14.4805 1.94929 14.2394 2.32826L3.20667 19.728C2.96553 20.1084 2.90277 20.5536 3.02829 20.9822C3.15381 21.4108 3.45441 21.7672 3.87061 21.9868C4.7377 22.4424 5.85088 22.1717 6.35131 21.3822L17.384 3.98251C17.6251 3.60204 17.6879 3.15689 17.5624 2.72829C17.4369 2.29969 17.1363 1.94327 16.7201 1.72371C16.4426 1.57934 16.1337 1.50415 15.8199 1.50415ZM21.774 33.174C21.4238 33.174 21.0687 33.0928 20.7434 32.9214L13.7455 29.2429C12.7579 28.7241 12.4176 27.5691 12.9874 26.6698L15.5772 22.5853C15.8051 22.2259 16.3105 22.1026 16.7052 22.3101C17.0999 22.5176 17.2354 22.9778 17.0074 23.3372L14.4177 27.4217C14.3054 27.6007 14.3748 27.8383 14.5713 27.9406L21.5692 31.619C21.7657 31.7213 22.0267 31.6581 22.139 31.4807L24.7287 27.3962C24.9566 27.0367 25.462 26.9134 25.8567 27.121C26.2514 27.3285 26.3869 27.7887 26.159 28.1481L23.5692 32.2326C23.1861 32.8356 22.4891 33.174 21.774 33.174ZM5.99787 54.8131C5.62296 54.8131 5.24474 54.7259 4.8979 54.5439L1.10418 52.5498C0.0488062 51.9949 -0.312895 50.7632 0.294894 49.8022L13.8479 28.4278C14.0758 28.0684 14.5812 27.9451 14.976 28.1526C15.3707 28.3601 15.5061 28.8203 15.2782 29.1798L1.72518 50.5527C1.57158 50.7948 1.66242 51.1061 1.92998 51.2459L5.7237 53.2401C5.98631 53.3784 6.3348 53.2927 6.48509 53.0536L20.0381 31.6792C20.266 31.3197 20.7714 31.1964 21.1662 31.404C21.5609 31.6115 21.6963 32.0717 21.4684 32.4311L7.91538 53.807C7.50578 54.4522 6.76256 54.8131 5.99787 54.8131ZM66.4052 51.9843C65.9493 51.9843 65.5794 51.6475 65.5794 51.2324V46.7238C65.5794 44.653 63.7296 42.9672 61.4553 42.9672H38.8581C36.5839 42.9672 34.7324 44.6515 34.7324 46.7238V51.2324C34.7324 51.6475 34.3625 51.9843 33.9066 51.9843C33.4508 51.9843 33.0808 51.6475 33.0808 51.2324V46.7238C33.0808 43.8229 35.6722 41.4633 38.8581 41.4633H61.4553C64.6412 41.4633 67.231 43.8229 67.231 46.7238V51.2324C67.231 51.6475 66.861 51.9843 66.4052 51.9843ZM72.1742 61H28.1392C27.6834 61 27.3134 60.6631 27.3134 60.2481V55.7395C27.3134 52.8385 29.9048 50.4805 33.0907 50.4805H67.2243C70.4103 50.4805 73 52.84 73 55.7395V60.2481C73 60.6631 72.63 61 72.1742 61ZM28.965 59.4961H71.3484V55.7395C71.3484 53.6687 69.4986 51.9843 67.2243 51.9843H33.0891C30.8148 51.9843 28.9634 53.6687 28.9634 55.7395V59.4961H28.965Z" fill="#3960FF"/>
</svg>
