<?xml version="1.0" standalone="no"?>
<!DOCTYPE svg PUBLIC "-//W3C//DTD SVG 20010904//EN"
 "http://www.w3.org/TR/2001/REC-SVG-20010904/DTD/svg10.dtd">
<svg version="1.0" xmlns="http://www.w3.org/2000/svg"
 width="256.000000pt" height="256.000000pt" viewBox="0 0 256.000000 256.000000"
 preserveAspectRatio="xMidYMid meet">
<metadata>
Created by potrace 1.16, written by Peter Selinger 2001-2019
</metadata>
<g transform="translate(0.000000,256.000000) scale(0.100000,-0.100000)"
fill="#000000" stroke="none">
<path d="M132 2318 c-25 -25 -14 -199 28 -452 203 -1240 200 -1221 200 -1408
1 -120 4 -178 13 -189 27 -36 52 -39 307 -39 l252 0 29 29 29 29 0 176 c0 185
-4 150 96 766 14 85 52 319 85 520 61 375 74 541 47 568 -17 17 -1069 17
-1086 0z m1036 -110 l3 -58 -496 0 -495 0 0 53 c0 30 3 57 7 60 3 4 225 6 492
5 l486 -3 3 -57z m-8 -132 c0 -19 -219 -1368 -225 -1384 -3 -9 -64 -12 -259
-12 -140 0 -257 4 -260 8 -6 10 -226 1360 -226 1386 0 14 49 16 485 16 405 0
485 -2 485 -14z m-230 -1552 l0 -95 -47 3 -48 3 -5 50 c-7 69 -24 76 -167 73
-130 -3 -142 -10 -150 -82 l-6 -46 -43 0 -44 0 0 95 0 95 255 0 255 0 0 -96z
m-2 -191 l-3 -38 -250 0 -250 0 -3 38 -3 37 256 0 256 0 -3 -37z"/>
<path d="M1432 2140 c-46 -28 -62 -73 -63 -177 0 -48 -5 -104 -12 -123 -10
-30 -18 -36 -51 -41 -21 -3 -42 -12 -47 -20 -5 -8 -9 -64 -9 -125 0 -119 4
-129 50 -136 20 -2 26 -10 28 -34 3 -34 -5 -43 -69 -77 -29 -16 -54 -40 -74
-72 l-30 -48 0 -505 0 -504 28 -24 28 -24 295 0 296 0 29 30 30 29 -3 505 -3
504 -30 44 c-19 26 -51 54 -83 71 -49 27 -52 30 -52 68 0 34 3 39 23 39 41 0
47 17 47 141 0 128 0 129 -59 139 -31 4 -37 10 -47 45 -7 22 -13 81 -13 130
-1 71 -5 97 -21 122 -37 62 -124 82 -188 43z m125 -54 c27 -23 28 -29 34 -138
3 -62 9 -121 13 -130 7 -17 -1 -18 -97 -18 l-105 0 9 33 c4 17 10 76 12 131 2
93 4 99 30 122 36 30 68 30 104 0z m151 -430 l3 -86 -203 2 -203 3 -3 79 c-2
44 1 82 7 85 5 3 96 5 203 4 l193 -1 3 -86z m-80 -183 l3 -43 -125 0 -126 0 0
38 c0 21 3 42 7 46 4 3 59 5 122 4 l116 -3 3 -42z m-220 -220 l3 -122 -88 -3
-88 -3 -3 -394 c-1 -282 1 -398 9 -407 17 -20 511 -20 528 0 8 9 11 117 9 377
l-3 364 -65 3 c-120 4 -111 -10 -108 160 3 146 3 147 27 150 80 12 153 -40
170 -119 7 -31 11 -217 11 -499 0 -394 -2 -450 -16 -464 -13 -14 -53 -16 -284
-16 -148 0 -275 3 -284 6 -14 5 -16 59 -16 499 l0 492 23 34 c29 44 81 70 132
66 l40 -2 3 -122z m140 -21 l3 -143 -28 7 c-64 15 -63 14 -63 148 0 67 2 125
5 128 3 3 22 5 43 4 l37 -1 3 -143z m-169 -158 l31 -6 2 -172 c3 -169 3 -171
26 -174 l22 -3 0 164 c0 90 3 166 6 170 3 3 22 0 42 -7 l37 -13 5 -154 c5
-146 6 -154 25 -154 19 0 20 8 23 148 l3 148 62 -3 62 -3 3 -327 2 -328 -225
0 -225 0 0 353 c0 195 3 357 7 360 8 9 51 9 92 1z"/>
<path d="M2162 2148 c-7 -7 -12 -43 -12 -90 0 -47 -6 -93 -15 -115 -13 -30
-15 -115 -15 -549 l0 -514 -64 0 c-92 0 -96 -6 -96 -143 0 -62 4 -118 8 -124
4 -7 26 -16 47 -21 35 -7 41 -13 52 -47 6 -22 12 -80 12 -128 1 -101 15 -138
64 -167 64 -39 154 -15 189 51 14 26 18 56 18 127 0 110 17 162 52 162 13 0
34 7 46 16 21 14 22 23 22 129 0 106 -1 115 -22 129 -14 10 -44 16 -80 16
l-58 0 0 518 c-1 429 -3 521 -15 542 -9 16 -14 55 -15 111 0 52 -5 90 -12 97
-7 7 -30 12 -53 12 -23 0 -46 -5 -53 -12z m69 -129 c3 -46 11 -98 18 -115 9
-24 11 -152 9 -525 l-3 -494 -42 -3 -43 -3 0 504 c0 426 2 510 15 540 9 22 15
67 15 113 0 56 3 75 13 72 8 -3 14 -35 18 -89z m184 -1284 l0 -80 -202 -3
-203 -2 0 85 0 85 203 -2 202 -3 0 -80z m-106 -172 c-5 -14 -11 -73 -13 -130
-3 -115 -13 -137 -72 -149 -24 -4 -37 0 -60 19 -28 24 -29 29 -35 139 -3 62
-9 121 -13 131 -7 16 1 17 98 17 l106 0 -11 -27z"/>
</g>
</svg>
