<?xml version="1.0" standalone="no"?>
<!DOCTYPE svg PUBLIC "-//W3C//DTD SVG 20010904//EN"
 "http://www.w3.org/TR/2001/REC-SVG-20010904/DTD/svg10.dtd">
<svg version="1.0" xmlns="http://www.w3.org/2000/svg"
 width="256.000000pt" height="256.000000pt" viewBox="0 0 256.000000 256.000000"
 preserveAspectRatio="xMidYMid meet">
<metadata>
Created by potrace 1.16, written by Peter Selinger 2001-2019
</metadata>
<g transform="translate(0.000000,256.000000) scale(0.100000,-0.100000)"
fill="#000000" stroke="none">
<path d="M1030 2458 c-59 -31 -82 -72 -88 -162 -4 -62 -2 -74 17 -96 l21 -25
25 28 c13 15 30 46 36 70 23 77 22 77 206 77 156 0 163 -1 163 -20 0 -16 -7
-20 -33 -20 -48 0 -57 -15 -57 -97 l0 -73 -34 0 c-52 0 -95 -20 -111 -51 -10
-19 -15 -59 -15 -124 l0 -95 -34 0 c-26 0 -41 -7 -60 -31 l-26 -31 2 -846 3
-847 635 -3 c588 -2 638 -1 670 15 19 10 40 29 46 43 17 37 26 710 10 741 -6
13 -27 32 -46 41 -31 16 -67 18 -282 18 l-248 0 0 405 c0 327 -3 412 -14 440
-16 39 -42 55 -85 55 l-31 0 0 95 c0 52 -5 106 -12 120 -15 34 -56 55 -108 55
l-40 0 0 73 c0 80 -9 97 -52 97 -21 0 -28 5 -28 20 0 19 7 20 99 20 131 0 140
10 75 80 l-47 50 -256 0 c-246 0 -259 -1 -301 -22z m550 -43 c10 -12 -23 -14
-254 -17 -261 -3 -266 -3 -288 -26 -13 -12 -29 -37 -36 -55 l-12 -32 4 39 c6
46 29 84 59 96 12 5 133 9 268 9 204 1 249 -2 259 -14z m54 -341 c12 -12 16
-37 16 -110 l0 -94 -220 0 -220 0 0 94 c0 73 4 98 16 110 13 13 46 16 204 16
158 0 191 -3 204 -16z m136 -273 c6 -13 10 -165 10 -425 l0 -406 -135 0 c-148
0 -192 -10 -220 -53 -14 -22 -15 -66 -13 -373 2 -192 7 -357 12 -367 8 -16 -2
-17 -165 -15 l-174 3 0 811 c0 673 2 814 14 827 12 15 48 17 337 17 309 0 324
-1 334 -19z m578 -897 c20 -14 22 -23 22 -105 l0 -89 -455 0 -455 0 0 89 c0
82 2 91 22 105 19 14 78 16 433 16 355 0 414 -2 433 -16z m12 -478 c0 -231 0
-235 -22 -250 -19 -14 -77 -16 -424 -16 -381 0 -403 1 -425 19 -24 19 -24 22
-27 236 -2 120 -1 224 2 231 4 12 83 14 451 14 l445 0 0 -234z"/>
<path d="M1192 1598 c-9 -9 -12 -88 -12 -295 0 -269 1 -283 19 -293 29 -15
453 -14 469 2 9 9 12 87 12 289 0 153 -3 284 -6 293 -5 14 -36 16 -238 16
-167 0 -235 -3 -244 -12z m438 -293 l0 -255 -197 2 -198 3 -3 253 -2 252 200
0 200 0 0 -255z"/>
<path d="M1564 577 c-2 -7 -3 -82 -2 -167 l3 -155 350 0 350 0 0 165 0 165
-348 3 c-278 2 -349 0 -353 -11z m656 -157 l0 -120 -305 0 -305 0 0 120 0 120
305 0 305 0 0 -120z"/>
<path d="M333 1970 c-35 -14 -43 -43 -43 -154 l0 -105 -52 -3 -53 -3 0 -795 0
-795 395 0 395 0 0 795 0 795 -52 3 -53 3 0 108 c0 165 17 156 -277 158 -131
1 -248 -2 -260 -7z m597 -1060 l0 -750 -350 0 -350 0 0 750 0 750 350 0 350 0
0 -750z"/>
<path d="M362 1428 c-19 -19 -17 -581 2 -597 9 -8 78 -11 227 -9 l214 3 0 305
0 305 -215 3 c-159 2 -219 -1 -228 -10z m398 -298 l0 -260 -180 0 -180 0 0
260 0 260 180 0 180 0 0 -260z"/>
</g>
</svg>
