<?xml version="1.0" standalone="no"?>
<!DOCTYPE svg PUBLIC "-//W3C//DTD SVG 20010904//EN"
 "http://www.w3.org/TR/2001/REC-SVG-20010904/DTD/svg10.dtd">
<svg version="1.0" xmlns="http://www.w3.org/2000/svg"
 width="256.000000pt" height="256.000000pt" viewBox="0 0 256.000000 256.000000"
 preserveAspectRatio="xMidYMid meet">
<metadata>
Created by potrace 1.16, written by Peter Selinger 2001-2019
</metadata>
<g transform="translate(0.000000,256.000000) scale(0.100000,-0.100000)"
fill="#000000" stroke="none">
<path d="M149 2431 c-19 -20 -29 -40 -29 -59 0 -17 50 -176 111 -354 131 -383
496 -1449 546 -1597 29 -85 44 -112 78 -146 54 -55 117 -79 189 -73 73 6 87
18 73 64 -10 33 -9 36 26 68 45 41 67 90 67 149 0 68 -228 719 -266 758 -39
42 -79 61 -133 64 -40 3 -46 7 -60 37 -13 27 -23 34 -56 38 -55 8 -61 13 -81
73 -41 126 -294 867 -314 920 -33 88 -96 112 -151 58z m118 -126 c18 -49 96
-277 173 -505 120 -351 146 -419 171 -442 16 -16 40 -28 53 -28 13 0 28 -6 33
-12 10 -13 363 -1045 363 -1060 0 -5 -15 -8 -33 -8 -48 0 -133 45 -155 83 -11
18 -90 237 -176 487 -435 1272 -526 1539 -526 1552 0 22 11 29 39 26 22 -3 30
-15 58 -93z m610 -1075 c17 -10 37 -28 43 -40 21 -40 240 -683 240 -707 0 -33
-23 -84 -49 -107 -11 -11 -23 -17 -25 -15 -4 4 -97 275 -251 732 l-54 157 32
0 c18 0 46 -9 64 -20z"/>
<path d="M1386 2451 c-4 -6 -5 -122 -4 -258 3 -279 -2 -310 -58 -372 -19 -21
-67 -56 -107 -77 -89 -47 -164 -120 -202 -198 -23 -46 -30 -77 -33 -142 -4
-75 -2 -89 22 -138 24 -49 39 -63 134 -127 150 -101 226 -163 278 -227 64 -79
92 -138 114 -249 46 -221 108 -370 190 -457 87 -92 98 -95 365 -98 215 -3 232
-2 264 17 46 27 71 64 78 114 9 68 -26 95 -168 131 -46 11 -108 33 -138 47
l-54 26 9 86 c16 159 8 410 -21 641 -36 292 -42 452 -21 610 10 72 20 231 23
375 5 256 0 305 -32 305 -8 0 -16 -1 -16 -2 -1 -2 -3 -118 -5 -258 -2 -140 -8
-293 -14 -340 -25 -183 -23 -389 4 -619 52 -424 54 -523 20 -759 -6 -39 -4
-45 30 -77 20 -19 59 -42 86 -52 38 -13 50 -23 50 -38 0 -57 72 -94 147 -77
35 8 43 7 43 -5 0 -27 -20 -51 -51 -62 -44 -15 -410 -15 -461 1 -119 35 -213
204 -273 491 -17 77 -37 142 -58 181 -46 89 -187 225 -329 319 -149 98 -163
117 -163 222 0 67 4 89 27 136 34 69 106 135 213 198 136 79 166 150 164 386
-2 243 -11 349 -31 353 -9 2 -19 -1 -22 -7z"/>
</g>
</svg>
