<?xml version="1.0" standalone="no"?>
<!DOCTYPE svg PUBLIC "-//W3C//DTD SVG 20010904//EN"
 "http://www.w3.org/TR/2001/REC-SVG-20010904/DTD/svg10.dtd">
<svg version="1.0" xmlns="http://www.w3.org/2000/svg"
 width="256.000000pt" height="256.000000pt" viewBox="0 0 256.000000 256.000000"
 preserveAspectRatio="xMidYMid meet">
<metadata>
Created by potrace 1.16, written by Peter Selinger 2001-2019
</metadata>
<g transform="translate(0.000000,256.000000) scale(0.100000,-0.100000)"
fill="#000000" stroke="none">
<path d="M1236 2168 c-19 -35 -47 -88 -62 -120 l-27 -56 -73 77 c-77 82 -175
145 -217 139 -21 -3 -22 -7 -28 -168 -3 -91 -7 -176 -8 -189 l-1 -23 -35 26
c-75 57 -142 80 -250 84 -110 4 -163 -5 -179 -31 -9 -15 -4 -24 32 -54 53 -44
78 -83 127 -196 21 -48 46 -99 57 -112 l18 -24 -47 -6 c-140 -19 -236 -69
-333 -171 -38 -41 -70 -77 -70 -82 1 -28 22 -33 146 -36 126 -3 194 -16 276
-50 l37 -16 -66 -62 c-72 -70 -151 -182 -178 -253 -16 -40 -16 -48 -4 -61 13
-12 27 -10 114 16 55 16 147 37 205 45 201 30 216 33 265 56 37 18 50 20 53
10 2 -7 24 -41 48 -75 114 -160 184 -271 209 -331 39 -91 55 -87 114 30 25 50
75 132 111 183 119 168 128 181 132 192 2 5 29 -1 64 -15 37 -15 100 -29 160
-35 107 -12 247 -42 333 -71 39 -14 58 -16 72 -8 26 14 24 28 -15 103 -43 82
-111 170 -177 230 l-51 46 36 15 c82 34 155 48 280 51 140 4 154 9 131 54 -21
40 -140 147 -194 175 -49 24 -132 49 -204 60 l-38 6 21 29 c11 16 34 62 51
102 43 105 73 151 126 197 40 34 46 44 37 58 -16 26 -69 35 -179 31 -107 -4
-179 -28 -252 -84 -18 -14 -34 -21 -34 -17 -1 4 -4 89 -8 188 -6 175 -7 180
-28 183 -49 7 -190 -89 -249 -170 l-37 -50 -51 99 c-71 134 -78 143 -103 143
-17 0 -30 -15 -57 -62z m113 -135 c95 -191 142 -362 143 -521 0 -81 -4 -100
-27 -148 -50 -102 -166 -138 -266 -83 -34 19 -51 37 -73 83 -26 52 -30 68 -29
150 0 134 26 244 100 426 33 81 90 190 99 190 2 0 26 -44 53 -97z m-382 48
c97 -76 150 -161 132 -208 -52 -136 -84 -373 -61 -455 6 -21 7 -38 3 -38 -13
0 -79 104 -107 168 -51 115 -57 164 -43 379 7 106 16 193 20 193 4 0 29 -17
56 -39z m723 -33 c0 -40 5 -124 10 -186 12 -133 -1 -215 -50 -321 -32 -68 -90
-161 -101 -161 -4 0 -3 17 2 38 21 89 2 259 -46 408 -23 73 -23 80 -9 111 29
60 153 183 186 183 4 0 8 -33 8 -72z m-1027 -198 c62 -23 157 -107 157 -138 0
-64 74 -251 127 -320 14 -18 22 -36 19 -39 -12 -13 -213 97 -269 147 -50 45
-66 70 -118 179 -34 69 -72 140 -85 158 -13 17 -24 35 -24 39 0 14 137 -4 193
-26z m1452 20 c-4 -6 -21 -33 -40 -61 -18 -27 -49 -91 -70 -141 -45 -108 -113
-184 -219 -243 -65 -36 -166 -79 -166 -71 0 2 16 28 35 57 44 67 89 176 106
254 20 98 81 159 196 195 64 21 168 27 158 10z m-1391 -471 c74 -50 202 -110
264 -123 54 -12 45 -23 -41 -47 -58 -16 -110 -23 -177 -23 -85 -1 -106 3 -200
36 -71 25 -139 41 -208 49 l-103 12 23 24 c66 70 192 122 300 122 65 1 70 -1
142 -50z m1405 32 c65 -20 143 -65 179 -104 l22 -23 -102 -12 c-67 -8 -137
-25 -207 -50 -95 -33 -116 -37 -201 -36 -90 0 -260 35 -260 53 0 3 28 14 63
24 83 25 190 77 257 126 51 37 60 40 122 41 38 0 92 -8 127 -19z m-919 -227
c51 -19 122 -17 182 6 49 19 53 19 72 2 65 -55 96 -115 96 -182 0 -60 -22
-107 -95 -205 -45 -60 -126 -181 -161 -241 -9 -16 -16 -10 -51 51 -23 39 -76
117 -118 175 -43 58 -84 119 -91 137 -19 44 -17 128 3 171 25 53 90 115 111
106 9 -3 33 -13 52 -20z m-226 -66 c-9 -17 -19 -58 -22 -90 -4 -46 -10 -63
-26 -73 -37 -24 -118 -44 -217 -55 -53 -5 -137 -20 -187 -34 -51 -13 -92 -21
-92 -17 0 9 50 81 90 130 19 23 62 64 95 92 l60 49 90 1 c49 0 113 7 140 14
84 21 88 21 69 -17z m711 11 c22 -4 78 -8 125 -9 l85 0 62 -53 c34 -28 78 -72
99 -97 41 -50 87 -120 82 -125 -2 -2 -43 7 -93 20 -49 13 -143 31 -207 39 -80
10 -134 23 -170 40 -51 24 -54 27 -50 59 2 18 -5 59 -16 91 l-20 58 32 -7 c17
-4 49 -11 71 -16z"/>
</g>
</svg>
