<?xml version="1.0" standalone="no"?>
<!DOCTYPE svg PUBLIC "-//W3C//DTD SVG 20010904//EN"
 "http://www.w3.org/TR/2001/REC-SVG-20010904/DTD/svg10.dtd">
<svg version="1.0" xmlns="http://www.w3.org/2000/svg"
 width="256.000000pt" height="256.000000pt" viewBox="0 0 256.000000 256.000000"
 preserveAspectRatio="xMidYMid meet">
<metadata>
Created by potrace 1.16, written by Peter Selinger 2001-2019
</metadata>
<g transform="translate(0.000000,256.000000) scale(0.100000,-0.100000)"
fill="#000000" stroke="none">
<path d="M526 2450 c-40 -36 -52 -76 -36 -125 16 -49 58 -76 128 -80 l57 -4 3
-80 3 -81 -46 0 c-56 0 -97 -20 -113 -55 -7 -14 -12 -68 -12 -119 l0 -94 -37
-7 c-63 -11 -159 -63 -217 -115 -104 -96 -158 -214 -158 -350 0 -72 11 -138
146 -879 46 -253 53 -273 110 -315 26 -20 41 -21 426 -24 381 -3 401 -2 438
17 47 24 72 60 87 126 l12 50 17 -39 c27 -64 62 -102 118 -130 l52 -26 377 0
c241 0 388 4 406 11 52 19 104 62 131 108 l27 46 0 745 0 745 -26 56 c-44 93
-136 166 -236 187 l-38 8 -5 98 c-4 88 -7 100 -29 117 -13 10 -34 19 -47 19
-23 0 -23 2 -26 108 l-3 107 -144 3 c-97 2 -148 -1 -157 -9 -10 -8 -14 -38
-14 -110 0 -90 -2 -99 -19 -99 -10 0 -30 -9 -44 -20 -25 -20 -26 -27 -29 -117
l-3 -96 -55 -14 c-118 -30 -217 -129 -241 -242 -7 -31 -13 -57 -14 -59 -1 -1
-29 14 -61 33 -54 33 -139 65 -171 65 -10 0 -13 25 -13 104 0 96 -2 107 -23
132 -20 23 -34 28 -83 32 l-59 4 1 74 c1 41 4 77 7 81 3 3 64 4 136 4 78 -1
139 2 151 9 18 10 20 21 20 105 0 51 -3 100 -6 109 -5 14 -44 16 -330 16
l-323 0 -35 -30z m632 -87 l-3 -58 -281 -3 c-272 -2 -282 -2 -307 19 -31 23
-34 45 -11 77 15 22 17 22 310 22 l295 0 -3 -57z m822 -23 l0 -80 -100 0 -100
0 0 80 0 80 100 0 100 0 0 -80z m-1132 -179 l3 -81 -61 0 -60 0 0 78 c0 43 2
81 4 83 3 2 29 4 58 3 l53 -2 3 -81z m1227 -49 l0 -83 -193 -2 -192 -2 0 88 0
87 193 -2 192 -3 0 -83z m-1081 -98 c13 -5 16 -24 16 -100 l0 -94 -220 0 -220
0 0 88 c0 55 4 92 12 100 13 13 381 18 412 6z m1242 -76 c53 -28 101 -76 131
-131 16 -28 18 -66 21 -291 l3 -259 -111 7 c-108 6 -165 16 -425 71 -66 14
-175 28 -243 32 -122 6 -122 6 -128 32 -15 78 -41 147 -71 192 -28 43 -33 60
-33 107 1 125 96 241 218 262 26 5 169 8 317 7 l270 -3 51 -26z m-1155 -188
c222 -41 378 -261 344 -485 l-7 -48 -126 6 c-168 9 -274 23 -407 53 -323 74
-461 94 -637 94 l-91 0 7 46 c3 25 22 77 42 115 58 110 155 185 279 215 62 15
519 18 596 4z m-536 -464 c50 -9 162 -31 250 -51 206 -46 321 -63 478 -71 107
-6 127 -10 127 -23 0 -9 -36 -216 -80 -461 -79 -439 -81 -445 -110 -472 l-30
-28 -391 0 -391 0 -27 27 c-24 25 -30 48 -60 213 -77 430 -152 847 -157 869
l-5 24 153 -6 c84 -3 194 -13 243 -21z m1165 13 c47 -5 130 -21 185 -34 137
-32 271 -53 393 -60 l102 -7 0 -438 c0 -286 -4 -449 -11 -467 -14 -38 -57 -83
-96 -99 -26 -11 -110 -14 -398 -14 -397 0 -405 1 -457 56 -43 46 -48 74 -48
265 0 165 3 197 39 397 21 119 47 261 56 315 l17 97 67 0 c37 0 105 -5 151
-11z"/>
<path d="M1755 1168 c-3 -7 -6 -65 -7 -128 l-3 -115 -125 -5 -125 -5 -3 -115
c-2 -99 0 -116 15 -127 11 -9 55 -13 130 -13 l113 0 0 -120 c0 -143 -3 -140
129 -140 127 0 131 5 131 150 l0 110 110 0 c145 0 150 4 150 131 0 132 3 129
-140 129 l-120 0 0 111 c0 61 -5 119 -10 130 -10 17 -22 19 -126 19 -83 0
-116 -3 -119 -12z m204 -165 l-4 -128 30 -2 c17 0 76 -2 133 -2 l103 -1 -3
-77 -3 -78 -131 -3 -130 -3 0 -127 1 -127 -77 -3 -78 -3 0 131 0 130 -130 0
-130 0 0 80 0 80 98 1 c53 1 110 2 126 3 33 1 31 -12 34 159 l2 97 81 0 81 0
-3 -127z"/>
</g>
</svg>
