<?xml version="1.0" standalone="no"?>
<!DOCTYPE svg PUBLIC "-//W3C//DTD SVG 20010904//EN"
 "http://www.w3.org/TR/2001/REC-SVG-20010904/DTD/svg10.dtd">
<svg version="1.0" xmlns="http://www.w3.org/2000/svg"
 width="256.000000pt" height="256.000000pt" viewBox="0 0 256.000000 256.000000"
 preserveAspectRatio="xMidYMid meet">
<metadata>
Created by potrace 1.16, written by Peter Selinger 2001-2019
</metadata>
<g transform="translate(0.000000,256.000000) scale(0.100000,-0.100000)"
fill="#000000" stroke="none">
<path d="M1190 2459 c-121 -32 -120 -30 -120 -271 l0 -202 -32 -27 c-33 -27
-33 -28 -36 -128 l-4 -101 -46 -20 c-57 -26 -87 -53 -115 -105 -22 -40 -22
-46 -25 -716 -3 -745 -4 -735 57 -776 34 -23 34 -23 418 -23 422 0 421 0 457
60 14 25 16 97 16 720 l0 692 -26 49 c-28 50 -81 95 -130 108 l-29 7 -5 108
c-5 103 -6 109 -32 130 l-28 22 0 212 c0 222 -6 261 -45 276 -35 13 -201 4
-275 -15z m248 -72 c3 -20 -5 -35 -27 -56 -46 -43 -46 -101 0 -143 20 -19 29
-37 29 -58 l0 -30 -150 0 -150 0 0 139 0 139 83 20 c46 11 110 19 147 19 63
-2 65 -3 68 -30z m182 -750 c19 -12 43 -38 54 -57 21 -34 21 -47 21 -713 l0
-679 -24 -19 c-22 -18 -44 -19 -378 -19 -351 0 -385 3 -405 34 -4 6 -8 315 -8
686 l0 675 23 39 c42 74 53 76 388 76 291 0 297 0 329 -23z"/>
<path d="M1324 1255 c-10 -26 4 -44 45 -55 161 -43 244 -228 168 -376 -48 -94
-130 -143 -238 -144 -133 0 -221 75 -266 225 -6 23 -14 30 -33 30 -33 0 -49
-36 -53 -116 l-2 -64 38 1 c34 1 44 -4 79 -42 22 -24 66 -56 97 -71 48 -24 68
-28 141 -28 101 0 154 20 225 86 69 63 97 126 103 224 5 103 -19 173 -86 244
-72 76 -202 128 -218 86z"/>
<path d="M1735 2415 c-151 -64 -180 -84 -158 -106 10 -10 47 2 165 51 171 70
188 81 168 104 -7 9 -15 16 -19 15 -3 0 -73 -29 -156 -64z"/>
<path d="M1583 2213 c-27 -9 -13 -43 25 -59 223 -94 283 -115 297 -104 22 18
8 36 -48 58 -29 11 -99 40 -157 64 -58 25 -111 43 -117 41z"/>
</g>
</svg>
