<?xml version="1.0" standalone="no"?>
<!DOCTYPE svg PUBLIC "-//W3C//DTD SVG 20010904//EN"
 "http://www.w3.org/TR/2001/REC-SVG-20010904/DTD/svg10.dtd">
<svg version="1.0" xmlns="http://www.w3.org/2000/svg"
 width="256.000000pt" height="256.000000pt" viewBox="0 0 256.000000 256.000000"
 preserveAspectRatio="xMidYMid meet">
<metadata>
Created by potrace 1.16, written by Peter Selinger 2001-2019
</metadata>
<g transform="translate(0.000000,256.000000) scale(0.100000,-0.100000)"
fill="#000000" stroke="none">
<path d="M666 2468 c-22 -32 -21 -72 24 -598 22 -256 56 -669 77 -919 27 -329
41 -458 51 -467 7 -8 24 -14 38 -14 l24 0 0 -173 c0 -121 4 -177 12 -185 17
-17 779 -17 796 0 8 8 12 64 12 185 l0 173 24 0 c13 0 29 7 36 15 8 9 23 139
41 352 15 186 31 358 34 383 3 25 23 270 45 545 42 525 48 693 28 713 -9 9
-160 12 -619 12 l-608 0 -15 -22z m1184 -93 l0 -35 -560 0 -560 0 0 35 0 35
560 0 560 0 0 -35z m-14 -207 c-6 -80 -11 -101 -39 -147 -97 -162 -325 -292
-612 -350 -119 -24 -383 -47 -394 -35 -4 5 -18 137 -30 294 -12 157 -24 295
-27 308 l-4 22 556 0 557 0 -7 -92z m-46 -553 c-16 -187 -30 -352 -30 -367 0
-24 -11 -34 -77 -73 -191 -112 -431 -176 -711 -191 l-130 -7 -6 54 c-11 98
-47 542 -44 544 2 2 66 8 143 14 397 31 674 137 835 318 25 28 46 50 47 49 1
-1 -11 -155 -27 -341z m-43 -522 c-3 -32 -11 -133 -18 -225 l-12 -168 -428 0
-427 0 -7 98 c-4 53 -9 105 -11 115 -5 15 2 17 53 17 259 0 536 63 738 166 55
28 104 52 109 53 5 0 6 -25 3 -56z m-41 -495 c-3 -13 -6 -29 -6 -35 0 -10 -90
-13 -415 -13 l-415 0 0 35 0 35 421 0 421 0 -6 -22z m-86 -278 l0 -151 -72 3
-73 3 -5 70 -5 70 -169 3 c-116 2 -173 -1 -182 -9 -9 -8 -14 -33 -14 -76 l0
-64 -72 3 -73 3 -3 148 -3 147 336 0 335 0 0 -150z m-220 -110 l0 -40 -110 0
-110 0 0 40 0 40 110 0 110 0 0 -40z"/>
</g>
</svg>
