<?xml version="1.0" standalone="no"?>
<!DOCTYPE svg PUBLIC "-//W3C//DTD SVG 20010904//EN"
 "http://www.w3.org/TR/2001/REC-SVG-20010904/DTD/svg10.dtd">
<svg version="1.0" xmlns="http://www.w3.org/2000/svg"
 width="256.000000pt" height="256.000000pt" viewBox="0 0 256.000000 256.000000"
 preserveAspectRatio="xMidYMid meet">
<metadata>
Created by potrace 1.16, written by Peter Selinger 2001-2019
</metadata>
<g transform="translate(0.000000,256.000000) scale(0.100000,-0.100000)"
fill="#000000" stroke="none">
<path d="M1846 2305 c-56 -20 -879 -839 -908 -904 -25 -55 -18 -118 19 -162
l26 -31 -94 -94 c-121 -123 -131 -128 -229 -119 -86 8 -134 -6 -183 -53 -15
-14 -69 -105 -119 -202 -80 -153 -92 -181 -92 -225 0 -108 76 -185 182 -185
49 0 72 9 240 97 165 87 188 102 212 140 33 52 44 111 30 164 -18 65 1 101
108 211 52 54 99 98 105 98 5 0 24 -13 42 -29 19 -16 51 -32 73 -36 89 -15 83
-20 554 452 472 474 468 469 449 555 -12 51 -33 77 -163 205 -137 133 -169
148 -252 118z m80 -75 c37 -14 229 -204 249 -246 9 -18 13 -44 10 -57 -4 -13
-197 -214 -430 -447 -420 -420 -425 -425 -465 -425 -39 0 -47 6 -166 126 -110
111 -124 129 -124 160 0 31 31 65 413 447 368 369 455 452 479 452 4 0 19 -5
34 -10z m-858 -1103 l22 -23 -101 -99 c-109 -108 -138 -153 -142 -215 -1 -22
-4 -40 -7 -40 -12 -1 -300 134 -300 140 0 20 56 30 133 24 108 -9 132 4 262
135 55 56 102 101 106 101 3 0 15 -10 27 -23z m-218 -482 c0 -6 -6 -20 -14
-30 -13 -18 -16 -18 -52 -3 -193 78 -320 131 -323 134 -3 2 3 20 12 38 l16 34
180 -81 c100 -45 181 -87 181 -92z m-269 -36 c82 -34 147 -65 144 -68 -2 -3
-19 -15 -39 -25 l-36 -19 -130 58 c-72 32 -130 62 -130 67 0 17 21 48 32 48 6
0 78 -28 159 -61z m-122 -114 c50 -22 91 -43 91 -46 0 -12 -72 -39 -105 -39
-42 0 -91 39 -100 80 -7 30 1 53 15 48 4 -2 49 -21 99 -43z"/>
</g>
</svg>
