<?xml version="1.0" standalone="no"?>
<!DOCTYPE svg PUBLIC "-//W3C//DTD SVG 20010904//EN"
 "http://www.w3.org/TR/2001/REC-SVG-20010904/DTD/svg10.dtd">
<svg version="1.0" xmlns="http://www.w3.org/2000/svg"
 width="256.000000pt" height="256.000000pt" viewBox="0 0 256.000000 256.000000"
 preserveAspectRatio="xMidYMid meet">
<metadata>
Created by potrace 1.16, written by Peter Selinger 2001-2019
</metadata>
<g transform="translate(0.000000,256.000000) scale(0.100000,-0.100000)"
fill="#000000" stroke="none">
<path d="M633 2463 c-16 -16 -23 -81 -56 -523 -21 -278 -40 -515 -43 -527 -3
-17 -11 -23 -30 -23 -86 0 -184 -109 -184 -207 0 -61 89 -874 101 -919 14 -53
59 -108 112 -137 41 -21 52 -22 327 -22 317 0 334 3 395 62 49 47 62 82 75
189 69 602 91 835 81 872 -22 82 -77 137 -158 157 l-48 12 -7 59 c-3 32 -20
246 -37 474 -37 486 -39 510 -51 530 -8 12 -48 16 -234 18 -206 3 -226 2 -243
-15z m401 -145 c4 -35 20 -241 36 -458 16 -217 32 -410 34 -427 l5 -33 -241 0
-240 0 6 58 c3 31 20 246 37 477 17 231 33 426 35 433 2 9 44 12 163 12 l159
0 6 -62z m252 -1060 c19 -21 34 -46 34 -55 0 -13 -48 -44 -168 -107 -92 -49
-284 -152 -426 -228 -143 -76 -261 -136 -263 -135 -2 2 -14 105 -27 228 -27
254 -25 277 33 316 l35 24 374 -3 374 -3 34 -37z m-10 -525 c-52 -476 -49
-461 -86 -497 l-30 -31 -278 -3 c-308 -4 -324 -1 -357 62 -22 42 -57 346 -41
363 6 6 121 70 256 141 135 72 317 169 405 215 88 47 161 84 163 82 2 -2 -13
-151 -32 -332z"/>
<path d="M1715 2196 c-18 -13 -18 -18 5 -197 24 -193 33 -219 77 -219 l23 0 0
-290 0 -290 -124 0 c-154 0 -161 -4 -152 -94 3 -34 22 -259 41 -501 20 -242
38 -450 41 -463 2 -13 16 -27 31 -33 39 -15 418 -8 434 8 8 8 25 173 50 485
21 260 40 491 43 514 3 27 0 48 -10 62 -14 21 -23 22 -140 22 l-124 0 0 290 0
290 24 0 c13 0 29 7 36 15 7 8 23 93 36 188 28 206 28 192 8 211 -21 22 -270
23 -299 2z m199 -183 c-7 -54 -13 -106 -14 -115 0 -14 -8 -18 -35 -18 -21 0
-35 5 -35 13 0 14 -17 137 -25 185 l-6 32 64 0 63 0 -12 -97z m172 -930 c-2
-10 -19 -207 -36 -438 -18 -231 -34 -426 -36 -432 -2 -10 -42 -13 -151 -13
l-149 0 -32 403 c-18 221 -36 423 -39 450 l-6 47 227 0 c212 0 227 -1 222 -17z"/>
</g>
</svg>
