<?xml version="1.0" standalone="no"?>
<!DOCTYPE svg PUBLIC "-//W3C//DTD SVG 20010904//EN"
 "http://www.w3.org/TR/2001/REC-SVG-20010904/DTD/svg10.dtd">
<svg version="1.0" xmlns="http://www.w3.org/2000/svg"
 width="256.000000pt" height="256.000000pt" viewBox="0 0 256.000000 256.000000"
 preserveAspectRatio="xMidYMid meet">
<metadata>
Created by potrace 1.16, written by Peter Selinger 2001-2019
</metadata>
<g transform="translate(0.000000,256.000000) scale(0.100000,-0.100000)"
fill="#000000" stroke="none">
<path d="M465 2470 c-8 -14 -25 -135 -80 -575 -25 -198 -48 -371 -50 -385 -8
-40 16 -63 71 -69 l49 -6 3 -62 3 -61 -45 -31 c-53 -37 -99 -93 -127 -155 -41
-94 -41 -126 5 -548 23 -216 48 -403 55 -416 7 -13 27 -32 44 -42 29 -18 52
-20 245 -20 235 0 270 7 296 59 19 36 91 673 91 801 0 99 -2 110 -33 173 -24
48 -51 83 -98 124 l-64 58 0 63 0 62 33 0 c53 0 77 11 83 37 4 14 -3 100 -15
192 -13 91 -40 305 -61 475 -22 169 -44 314 -51 322 -9 11 -48 14 -180 14
-104 0 -170 -4 -174 -10z m280 -112 c3 -18 17 -125 31 -238 14 -113 36 -286
49 -385 14 -99 25 -183 25 -187 0 -5 -92 -8 -205 -8 -183 0 -205 2 -205 16 0
35 98 799 105 822 3 8 32 12 99 12 l95 0 6 -32z m-5 -962 l0 -44 -95 0 -95 1
0 43 0 44 95 0 95 0 0 -44z m-18 -146 c58 -16 130 -71 165 -124 58 -89 58
-106 10 -536 l-43 -385 -204 -3 c-112 -1 -207 1 -212 6 -8 8 -88 706 -88 768
0 114 97 240 211 273 46 13 116 13 161 1z"/>
<path d="M766 987 c-15 -11 -22 -47 -39 -201 -16 -135 -18 -192 -11 -204 14
-22 57 -27 72 -9 6 7 21 98 33 200 21 181 22 188 4 207 -21 23 -34 25 -59 7z"/>
<path d="M702 487 c-6 -7 -14 -50 -18 -95 -7 -80 -6 -81 18 -93 37 -16 65 2
72 48 9 56 10 128 2 141 -10 16 -61 15 -74 -1z"/>
<path d="M1580 2458 c-5 -13 -28 -165 -50 -338 -22 -173 -49 -389 -61 -480
l-21 -164 22 -18 c13 -10 39 -18 61 -18 39 0 39 0 39 -39 l0 -38 -97 -6 c-131
-8 -168 -21 -230 -83 -40 -40 -56 -64 -69 -110 l-17 -59 67 -400 c42 -250 75
-417 88 -447 27 -63 96 -124 161 -143 74 -22 502 -21 576 1 66 19 132 78 159
142 11 26 38 155 61 287 23 132 53 304 66 382 14 78 25 152 25 165 0 51 -31
126 -70 170 -58 67 -111 88 -236 95 l-104 6 0 39 c0 38 0 38 39 38 22 0 48 8
61 18 l21 17 -40 325 c-67 531 -81 634 -91 658 -9 22 -13 22 -180 22 -167 0
-171 0 -180 -22z m284 -115 c4 -27 27 -208 51 -403 25 -195 47 -365 50 -377
l5 -23 -210 0 -209 0 4 28 c10 59 105 797 105 816 0 3 44 6 99 6 l98 0 7 -47z
m303 -1104 c52 -25 93 -88 93 -142 0 -20 -29 -205 -64 -412 -71 -411 -76 -430
-147 -465 -35 -18 -59 -20 -289 -20 -230 0 -254 2 -289 20 -71 36 -77 55 -147
463 -35 205 -64 390 -64 412 0 57 36 114 89 142 44 23 46 23 409 23 351 0 367
-1 409 -21z"/>
<path d="M2088 1116 c-15 -14 -78 -355 -78 -419 0 -30 5 -40 25 -49 47 -21 61
8 90 182 14 85 30 179 36 208 9 47 8 56 -7 73 -20 22 -47 25 -66 5z"/>
<path d="M1990 555 c-7 -8 -19 -57 -28 -109 -18 -103 -12 -126 33 -126 34 0
45 20 63 123 13 79 14 98 3 111 -17 20 -55 21 -71 1z"/>
</g>
</svg>
