<?xml version="1.0" standalone="no"?>
<!DOCTYPE svg PUBLIC "-//W3C//DTD SVG 20010904//EN"
 "http://www.w3.org/TR/2001/REC-SVG-20010904/DTD/svg10.dtd">
<svg version="1.0" xmlns="http://www.w3.org/2000/svg"
 width="256.000000pt" height="256.000000pt" viewBox="0 0 256.000000 256.000000"
 preserveAspectRatio="xMidYMid meet">
<metadata>
Created by potrace 1.16, written by Peter Selinger 2001-2019
</metadata>
<g transform="translate(0.000000,256.000000) scale(0.100000,-0.100000)"
fill="#000000" stroke="none">
<path d="M885 2466 c-102 -33 -169 -84 -227 -172 -31 -47 -48 -64 -64 -64 -37
0 -83 -47 -95 -96 l-11 -44 -117 0 c-101 0 -123 -3 -161 -22 -24 -13 -53 -36
-64 -51 -21 -28 -21 -36 -21 -920 l0 -892 23 -33 c49 -67 44 -67 484 -70 274
-2 411 1 440 8 52 15 103 64 117 115 16 57 15 1699 0 1746 -15 43 -55 88 -96
105 -22 9 -73 14 -153 14 l-120 0 0 26 c0 35 -33 88 -65 102 -14 6 -25 16 -25
21 0 19 87 98 135 121 45 23 62 25 180 25 118 0 135 -2 180 -25 68 -33 129
-99 154 -166 20 -53 21 -73 21 -707 0 -711 0 -715 58 -820 35 -65 122 -141
192 -169 44 -18 81 -23 182 -26 149 -4 212 10 295 65 64 42 94 77 136 157 l32
61 3 218 c3 215 4 217 25 217 14 0 43 23 80 62 l58 62 -3 105 c-3 104 -3 106
-30 119 -26 12 -28 17 -28 81 0 72 -10 91 -47 91 -31 0 -43 -28 -43 -104 l0
-66 -45 0 -45 0 0 66 c0 76 -12 104 -43 104 -38 0 -47 -19 -47 -97 0 -65 -2
-73 -19 -73 -40 0 -51 -26 -51 -123 l0 -91 76 -75 75 -74 -3 -201 -3 -202 -35
-58 c-68 -114 -156 -156 -321 -156 -163 0 -258 51 -318 172 l-31 61 0 636 c0
369 -5 665 -10 706 -20 137 -102 249 -227 308 -65 31 -74 32 -203 34 -90 2
-148 -2 -175 -11z m189 -487 l26 -20 0 -861 c0 -788 -1 -863 -17 -880 -15 -17
-42 -18 -425 -18 -395 0 -409 1 -428 20 -20 20 -20 33 -20 875 l0 856 25 24
24 25 394 0 c384 0 395 -1 421 -21z m1296 -577 c0 -38 -6 -55 -31 -85 -43 -52
-88 -52 -141 0 -34 33 -38 43 -38 85 l0 48 105 0 105 0 0 -48z"/>
<path d="M300 1901 c-5 -11 -10 -74 -10 -141 0 -67 5 -130 10 -141 10 -18 25
-19 353 -19 254 0 346 3 355 12 17 17 17 279 0 296 -9 9 -101 12 -355 12 -328
0 -343 -1 -353 -19z m310 -141 l0 -71 -112 3 -113 3 -3 68 -3 67 116 0 115 0
0 -70z m320 0 l0 -70 -115 0 -115 0 0 70 0 70 115 0 115 0 0 -70z"/>
<path d="M603 1530 c-96 -20 -169 -75 -212 -162 -26 -51 -31 -73 -31 -133 0
-138 81 -246 213 -286 109 -34 216 -7 295 74 145 148 104 393 -81 481 -61 28
-125 37 -184 26z m145 -109 c121 -62 154 -213 70 -315 -90 -110 -251 -104
-333 12 -27 39 -30 52 -30 117 0 65 3 78 30 116 58 83 177 114 263 70z"/>
<path d="M580 861 c-91 -28 -176 -107 -204 -188 -25 -73 -21 -169 10 -231 114
-228 432 -227 544 3 19 39 24 66 25 125 0 67 -4 82 -35 139 -38 71 -96 120
-169 146 -47 16 -129 19 -171 6z m184 -115 c141 -83 134 -284 -13 -358 -30
-16 -68 -28 -85 -28 -119 0 -216 95 -216 210 0 162 173 259 314 176z"/>
</g>
</svg>
