<?xml version="1.0" standalone="no"?>
<!DOCTYPE svg PUBLIC "-//W3C//DTD SVG 20010904//EN"
 "http://www.w3.org/TR/2001/REC-SVG-20010904/DTD/svg10.dtd">
<svg version="1.0" xmlns="http://www.w3.org/2000/svg"
 width="256.000000pt" height="256.000000pt" viewBox="0 0 256.000000 256.000000"
 preserveAspectRatio="xMidYMid meet">
<metadata>
Created by potrace 1.16, written by Peter Selinger 2001-2019
</metadata>
<g transform="translate(0.000000,256.000000) scale(0.100000,-0.100000)"
fill="#000000" stroke="none">
<path d="M373 2075 c-106 -33 -194 -112 -246 -223 l-32 -67 -3 -239 c-3 -158
0 -260 8 -300 25 -127 108 -234 228 -293 l57 -28 583 -3 582 -3 0 -215 0 -216
29 -29 c50 -50 97 -36 155 48 l39 56 31 -53 c54 -92 69 -105 118 -104 81 1
198 90 198 151 0 10 -18 49 -40 87 -22 38 -39 71 -36 73 2 2 31 8 64 13 76 11
97 22 111 61 14 40 -2 76 -46 104 -34 21 -42 35 -20 35 31 0 140 65 184 108
25 26 60 76 77 112 l31 65 0 290 0 290 -32 67 c-40 85 -106 151 -191 191 l-67
32 -370 0 -370 0 -3 -31 c-2 -17 3 -36 10 -42 10 -7 125 -12 363 -14 341 -3
351 -4 396 -26 61 -30 113 -81 147 -145 l27 -52 0 -270 0 -270 -27 -51 c-36
-68 -113 -136 -178 -157 -29 -9 -82 -17 -117 -17 -60 0 -75 5 -166 53 l-100
52 169 5 c183 5 203 11 256 67 53 55 58 83 58 318 0 235 -5 262 -58 319 -15
16 -45 37 -67 47 -38 18 -83 19 -854 19 -806 0 -815 0 -858 -21 -57 -28 -100
-81 -114 -143 -7 -32 -10 -127 -7 -251 3 -192 4 -202 28 -245 14 -24 45 -58
68 -75 l44 -30 559 -3 559 -2 0 -56 0 -55 -567 3 -568 3 -57 28 c-70 34 -131
101 -155 170 -15 45 -18 86 -18 292 0 210 2 247 19 295 26 74 101 149 179 178
55 21 75 22 370 22 230 0 316 3 325 12 15 15 15 51 0 66 -18 18 -647 16 -705
-3z m1749 -313 l33 -32 0 -225 0 -225 -33 -32 -32 -33 -805 -3 c-885 -3 -847
-5 -880 58 -23 45 -22 440 1 476 37 56 2 54 876 51 l808 -2 32 -33z m-227
-820 l220 -117 -60 -8 c-121 -16 -126 -17 -137 -41 -9 -21 -2 -37 47 -120 64
-107 64 -103 -5 -144 l-36 -21 -60 97 c-49 80 -64 98 -87 100 -22 3 -32 -5
-59 -44 -18 -26 -43 -59 -55 -73 l-22 -26 -1 264 c0 247 1 263 18 257 9 -4
116 -60 237 -124z"/>
<path d="M573 1680 c-39 -23 -53 -48 -53 -94 0 -48 38 -87 113 -116 64 -25 78
-54 31 -66 -24 -6 -35 -3 -94 31 -21 12 -28 12 -45 1 -29 -19 -30 -44 -3 -73
73 -79 216 -67 254 22 19 47 18 66 -9 106 -16 24 -42 42 -87 61 -36 14 -65 33
-65 40 0 20 40 21 75 3 53 -28 100 -2 84 47 -8 27 -76 58 -126 58 -25 0 -56
-8 -75 -20z"/>
<path d="M842 1688 c-15 -15 -15 -51 0 -66 7 -7 25 -12 40 -12 l28 0 0 -131
c0 -139 8 -169 43 -169 42 0 47 16 47 157 0 98 3 135 13 137 6 3 24 7 39 10
31 7 44 36 28 66 -10 18 -20 20 -118 20 -71 0 -112 -4 -120 -12z"/>
<path d="M1222 1691 c-15 -9 -132 -310 -132 -339 0 -25 19 -42 47 -42 17 0 28
10 40 35 16 34 18 35 74 35 55 0 58 -1 78 -35 22 -38 50 -45 75 -19 9 8 16 18
16 22 0 15 -120 325 -131 338 -13 15 -47 18 -67 5z"/>
<path d="M1482 1688 c-8 -8 -12 -63 -12 -183 0 -179 4 -195 45 -195 31 0 45
19 45 65 l0 40 50 -52 c50 -53 75 -64 98 -41 21 21 13 53 -23 95 l-35 41 35
35 c29 29 35 42 35 76 0 53 -22 97 -60 116 -35 18 -160 21 -178 3z"/>
<path d="M1802 1688 c-7 -7 -12 -21 -12 -33 0 -29 19 -45 52 -45 l28 0 0 -138
c0 -145 5 -162 45 -162 40 0 45 17 45 162 l0 138 28 0 c33 0 52 16 52 45 0 38
-19 45 -125 45 -65 0 -105 -4 -113 -12z"/>
</g>
</svg>
