<?xml version="1.0" standalone="no"?>
<!DOCTYPE svg PUBLIC "-//W3C//DTD SVG 20010904//EN"
 "http://www.w3.org/TR/2001/REC-SVG-20010904/DTD/svg10.dtd">
<svg version="1.0" xmlns="http://www.w3.org/2000/svg"
 width="256.000000pt" height="256.000000pt" viewBox="0 0 256.000000 256.000000"
 preserveAspectRatio="xMidYMid meet">
<metadata>
Created by potrace 1.16, written by Peter Selinger 2001-2019
</metadata>
<g transform="translate(0.000000,256.000000) scale(0.100000,-0.100000)"
fill="#000000" stroke="none">
<path d="M260 2437 c-118 -55 -160 -182 -97 -289 40 -68 78 -87 220 -109 258
-39 433 -78 662 -146 108 -32 334 -110 344 -119 2 -2 -13 -22 -33 -45 -63 -69
-78 -117 -84 -262 l-4 -129 -34 33 c-18 17 -36 45 -39 61 -9 39 -52 88 -92
104 -39 17 -116 18 -146 3 -39 -20 -76 -62 -88 -98 -6 -20 -31 -56 -55 -81
-62 -65 -86 -126 -93 -237 l-6 -92 -31 28 c-17 16 -36 43 -43 62 -18 53 -38
77 -81 99 -46 23 -107 26 -153 6 -39 -16 -84 -67 -94 -104 -3 -14 -28 -48 -54
-74 -86 -86 -89 -101 -89 -517 0 -346 1 -359 21 -384 35 -46 158 -61 173 -22
11 29 -5 45 -46 45 -83 0 -78 -24 -78 371 l0 350 25 49 c14 28 30 50 35 50 6
0 10 -48 10 -121 0 -142 12 -177 73 -217 30 -20 52 -26 91 -26 62 0 106 22
143 71 27 35 28 43 33 167 l5 131 19 -28 c43 -63 45 -87 46 -449 l0 -347 -127
-3 c-123 -3 -128 -4 -131 -25 -2 -14 4 -26 17 -33 15 -7 295 -10 962 -8 l941
3 29 33 29 32 0 264 c0 225 -2 265 -15 270 -8 3 -22 3 -30 0 -13 -5 -15 -43
-15 -254 0 -214 -2 -251 -16 -264 -14 -14 -46 -16 -242 -14 l-227 3 -3 494
c-1 305 2 507 8 530 5 20 20 52 32 71 l23 35 5 -125 c6 -144 18 -175 82 -217
80 -54 188 -29 240 55 20 32 24 55 28 162 5 123 5 124 23 97 36 -55 41 -84 46
-277 l6 -195 25 0 25 0 0 215 0 215 -32 57 -33 58 44 44 c70 70 84 147 40 234
-22 45 -39 61 -122 116 -221 144 -472 279 -720 385 -168 72 -457 171 -509 174
-36 2 -38 0 -38 -26 0 -28 3 -30 145 -74 80 -24 147 -46 149 -48 5 -6 -81
-245 -90 -251 -5 -3 -59 11 -120 31 -227 73 -546 144 -811 180 -65 8 -110 41
-128 93 -30 88 33 172 129 172 63 0 287 -34 460 -70 107 -22 148 -27 158 -19
17 15 17 34 -1 48 -31 26 -523 112 -628 110 -24 0 -54 -6 -68 -12z m1329 -372
c290 -122 761 -391 802 -459 23 -37 24 -87 4 -126 -42 -80 -124 -93 -221 -34
-245 151 -561 315 -741 385 -47 19 -87 38 -89 44 -3 6 14 60 36 120 22 61 43
116 45 122 5 13 25 7 164 -52z m99 -493 c2 -39 -2 -90 -8 -112 -22 -82 -116
-103 -172 -40 -28 30 -28 31 -28 175 l0 144 103 -48 102 -47 3 -72z m-252
-179 c69 -92 186 -106 263 -31 44 43 51 65 51 159 0 85 6 93 48 63 l22 -15 0
-700 0 -699 -237 2 -238 3 -3 684 c-1 430 2 697 8 720 5 20 20 52 32 71 l23
35 5 -132 c4 -113 8 -136 26 -160z m-372 83 c62 -26 66 -41 66 -234 l0 -174
-34 -34 c-39 -39 -77 -44 -116 -17 -48 33 -49 39 -50 223 0 194 4 210 64 236
38 16 31 16 70 0z m1105 -108 c25 -15 51 -28 58 -28 20 0 18 -241 -2 -280 -33
-64 -117 -76 -166 -24 -23 25 -24 32 -27 194 -2 112 1 176 8 190 l11 21 37
-23 c20 -12 57 -35 81 -50z m-1292 -344 c20 -35 71 -73 113 -84 50 -14 107 0
150 36 52 45 60 71 60 204 0 66 4 120 8 120 5 0 19 -19 33 -42 l24 -43 3 -522
3 -523 -241 0 -240 0 0 508 c1 533 3 555 47 604 18 20 18 18 23 -108 3 -74 10
-138 17 -150z m-326 117 l29 -29 0 -175 c0 -174 0 -176 -26 -206 -32 -39 -80
-49 -124 -26 -53 27 -62 65 -58 246 l3 158 29 30 c24 25 38 31 74 31 35 0 49
-6 73 -29z"/>
<path d="M1537 1234 c-5 -5 -31 -11 -59 -14 -58 -6 -81 -27 -58 -55 12 -14 24
-16 70 -10 55 7 85 7 195 3 l60 -3 0 30 c0 28 -3 30 -50 37 -131 18 -151 19
-158 12z"/>
<path d="M1520 1091 c-8 -6 -34 -11 -57 -11 -33 0 -43 -4 -48 -20 -12 -38 13
-53 75 -45 75 9 128 10 172 0 20 -4 49 -4 63 -1 21 5 26 12 23 34 -3 24 -8 28
-53 35 -100 15 -160 18 -175 8z"/>
<path d="M977 854 c-5 -5 -32 -11 -60 -14 -56 -5 -72 -25 -46 -57 11 -12 25
-14 69 -8 74 9 117 9 167 0 23 -4 54 -5 68 -1 21 5 26 12 23 34 -3 25 -8 28
-58 35 -106 15 -155 18 -163 11z"/>
<path d="M977 714 c-5 -5 -32 -11 -60 -14 -47 -4 -52 -7 -52 -29 0 -39 25 -47
99 -32 54 11 78 11 132 0 74 -15 99 -7 99 32 0 21 -6 25 -55 32 -106 15 -155
18 -163 11z"/>
<path d="M2088 855 c-4 -4 -30 -10 -59 -14 -59 -7 -82 -29 -59 -56 12 -14 24
-16 70 -10 65 8 114 8 191 0 44 -5 58 -3 69 10 23 27 0 49 -61 58 -107 16
-144 18 -151 12z"/>
<path d="M2075 711 c-11 -5 -36 -10 -56 -10 -63 -2 -80 -53 -22 -67 16 -4 52
-1 83 7 47 12 63 12 111 0 61 -16 103 -10 113 15 10 25 -10 41 -57 47 -106 14
-153 16 -172 8z"/>
<path d="M438 545 c-4 -4 -33 -10 -65 -14 -56 -6 -58 -7 -58 -36 0 -33 -17
-31 155 -25 25 1 70 -1 100 -5 46 -6 58 -4 70 10 22 26 0 49 -56 57 -108 17
-139 20 -146 13z"/>
<path d="M428 405 c-4 -4 -31 -10 -60 -14 -48 -5 -53 -8 -56 -33 -3 -22 2 -29
23 -34 14 -3 43 -3 63 1 46 10 101 10 172 0 45 -6 58 -4 69 8 26 32 9 51 -49
60 -102 15 -155 19 -162 12z"/>
</g>
</svg>
