<?xml version="1.0" standalone="no"?>
<!DOCTYPE svg PUBLIC "-//W3C//DTD SVG 20010904//EN"
 "http://www.w3.org/TR/2001/REC-SVG-20010904/DTD/svg10.dtd">
<svg version="1.0" xmlns="http://www.w3.org/2000/svg"
 width="64.000000pt" height="64.000000pt" viewBox="0 0 64.000000 64.000000"
 preserveAspectRatio="xMidYMid meet">

<g transform="translate(0.000000,64.000000) scale(0.100000,-0.100000)"
fill="#000000" stroke="none">
<path d="M360 601 c-15 -29 -12 -39 13 -47 12 -4 25 -12 29 -18 12 -17 10
-156 -2 -156 -6 0 -10 32 -10 75 l0 75 -30 0 -30 0 0 -75 c0 -41 -3 -75 -7
-75 -5 0 -21 35 -37 78 -30 78 -63 135 -76 127 -4 -3 -13 2 -20 10 -19 23 -30
18 -30 -15 0 -27 3 -30 30 -30 35 0 46 -15 85 -117 24 -62 32 -73 52 -73 22 0
23 3 23 75 0 43 4 75 10 75 6 0 10 -32 10 -75 l0 -75 31 0 32 0 -5 104 c-4 79
-9 108 -21 121 -9 9 -17 21 -17 26 0 16 -19 10 -30 -10z"/>
<path d="M176 517 c-18 -13 -17 -15 2 -53 11 -21 23 -49 26 -61 7 -21 4 -23
-33 -23 -36 0 -41 -3 -41 -22 0 -26 28 -199 33 -204 1 -2 21 3 42 11 41 14
160 20 189 9 9 -3 16 -11 16 -18 0 -8 -24 -10 -77 -8 -96 4 -168 -15 -168 -43
0 -14 11 -23 40 -31 79 -24 260 -11 271 20 6 18 34 227 34 258 0 24 -4 28 -30
28 -16 0 -30 -4 -30 -10 0 -5 9 -10 20 -10 24 0 24 3 5 -140 -9 -65 -20 -117
-28 -122 -36 -22 -212 -23 -252 0 -33 18 57 35 153 29 l82 -5 0 34 c0 30 -3
34 -36 40 -33 6 -168 1 -203 -8 -11 -2 -18 15 -27 67 -20 108 -21 105 31 105
25 0 45 2 45 5 0 3 -11 32 -25 65 -28 66 -29 70 -17 70 5 0 21 -31 36 -70 15
-38 32 -70 38 -70 11 0 11 0 -29 103 -27 69 -36 76 -67 54z"/>
</g>
</svg>
