<?xml version="1.0" standalone="no"?>
<!DOCTYPE svg PUBLIC "-//W3C//DTD SVG 20010904//EN"
 "http://www.w3.org/TR/2001/REC-SVG-20010904/DTD/svg10.dtd">
<svg version="1.0" xmlns="http://www.w3.org/2000/svg"
 width="256.000000pt" height="256.000000pt" viewBox="0 0 256.000000 256.000000"
 preserveAspectRatio="xMidYMid meet">
<metadata>
Created by potrace 1.16, written by Peter Selinger 2001-2019
</metadata>
<g transform="translate(0.000000,256.000000) scale(0.100000,-0.100000)"
fill="#000000" stroke="none">
<path d="M1090 2421 c-156 -50 -360 -200 -570 -417 -272 -281 -431 -552 -406
-690 6 -29 26 -56 84 -117 42 -43 90 -86 106 -94 45 -23 117 -10 221 40 325
159 770 634 869 929 44 130 37 158 -67 266 -101 105 -134 117 -237 83z m124
-77 c34 -88 -109 -342 -328 -584 -259 -286 -598 -510 -685 -453 -21 13 -23 20
-17 59 17 126 179 373 386 588 161 167 375 332 499 383 67 27 136 31 145 7z
m110 -113 c26 -27 28 -34 21 -76 -10 -69 -93 -225 -187 -350 -99 -133 -349
-385 -473 -478 -98 -73 -249 -153 -306 -163 -29 -5 -41 -1 -67 21 -18 15 -32
30 -32 33 0 4 28 17 63 30 222 79 590 411 802 722 64 94 122 207 131 257 3 18
9 33 13 33 4 0 20 -13 35 -29z"/>
<path d="M1833 1698 c-5 -7 -15 -28 -22 -45 -18 -44 -81 -100 -148 -130 -38
-17 -83 -27 -151 -33 -135 -12 -231 -50 -292 -114 -19 -21 -22 -30 -14 -44 17
-26 40 -26 76 1 73 55 170 87 263 87 109 0 237 67 312 163 l22 28 30 -33 c45
-48 80 -125 89 -192 7 -61 25 -85 56 -73 21 8 22 84 1 154 -20 69 -87 166
-143 208 -48 38 -64 42 -79 23z"/>
<path d="M1425 1589 c-113 -13 -269 -54 -341 -89 -34 -17 -78 -48 -98 -70
l-36 -40 0 -99 0 -99 -36 -23 c-74 -46 -74 -43 -74 -424 0 -384 -2 -371 80
-426 210 -141 840 -181 1240 -79 147 38 242 94 269 158 8 20 11 126 9 366 l-3
339 -52 47 -53 47 0 89 c0 71 -4 96 -20 121 -24 39 -86 86 -145 108 -58 23
-80 17 -80 -19 0 -24 6 -31 40 -44 56 -22 123 -69 130 -92 20 -63 -125 -138
-345 -176 -129 -23 -410 -23 -544 0 -178 30 -313 86 -338 142 -38 83 179 171
487 197 l150 12 0 30 0 30 -80 1 c-44 1 -116 -2 -160 -7z m-363 -388 c51 -30
172 -67 283 -87 124 -22 441 -25 555 -5 127 22 230 51 291 82 67 33 69 34 69
15 0 -24 -41 -66 -88 -90 -200 -101 -612 -126 -910 -56 -138 33 -242 94 -242
141 0 23 1 23 42 0z m-76 -92 c30 -50 219 -119 395 -145 154 -22 471 -15 604
14 120 26 228 70 276 110 38 33 40 33 64 18 13 -9 29 -25 34 -35 34 -63 -154
-143 -429 -182 -130 -19 -472 -16 -607 4 -219 34 -382 91 -405 143 -10 21 -8
28 17 54 31 33 40 36 51 19z m134 -253 c162 -40 270 -50 520 -50 205 0 265 4
371 22 138 23 266 61 316 91 17 11 34 17 37 14 13 -14 5 -62 -15 -87 -59 -75
-301 -136 -599 -152 -69 -4 -131 -11 -137 -17 -9 -7 -13 -50 -13 -153 0 -175
-6 -169 149 -159 242 14 432 51 550 106 35 16 65 29 67 29 11 0 2 -69 -12 -88
-71 -101 -487 -174 -864 -151 -251 15 -474 68 -545 131 l-35 30 0 258 0 259
73 -33 c39 -19 101 -41 137 -50z m1250 -176 c0 -62 -3 -74 -25 -96 -70 -70
-295 -127 -552 -141 l-123 -6 0 87 c0 61 4 88 13 90 6 2 79 9 161 15 187 14
330 43 426 86 41 18 81 33 88 34 8 1 12 -19 12 -69z"/>
</g>
</svg>
