<svg width="15" height="18" viewBox="0 0 15 18" fill="none" xmlns="http://www.w3.org/2000/svg">
<path d="M9.17046 0.000341467C9.46856 0.129758 9.79603 0.21649 10.059 0.396785C10.622 0.783326 10.9003 1.34743 10.9085 2.03617C10.9113 2.25744 10.9089 2.47905 10.9089 2.7273C10.9741 2.7273 11.0335 2.7273 11.0933 2.7273C12.1559 2.7273 13.2182 2.72696 14.2809 2.7273C14.7002 2.7273 14.9979 3.0073 15 3.40102C15.002 3.80565 14.7056 4.0901 14.2788 4.0901C10.5005 4.0901 6.7218 4.0901 2.94346 4.0901H2.72697V4.27176C2.72697 7.50989 2.72629 10.748 2.72731 13.9862C2.72765 14.999 3.35732 15.7994 4.34006 16.0322C4.4985 16.0698 4.66582 16.0858 4.8287 16.0862C6.60706 16.0899 8.38577 16.0899 10.1641 16.0879C11.3743 16.0865 12.272 15.1871 12.2727 13.9759C12.2741 11.3627 12.2727 8.74942 12.2737 6.13617C12.2737 5.79095 12.522 5.5007 12.847 5.45699C13.2035 5.40884 13.5194 5.6127 13.6143 5.95792C13.6321 6.02212 13.6358 6.09212 13.6358 6.15939C13.6369 8.81225 13.6396 11.4655 13.6355 14.1183C13.6331 15.7591 12.3297 17.2175 10.6955 17.4179C10.5326 17.4381 10.3676 17.4497 10.2037 17.45C8.4025 17.4524 6.60126 17.4517 4.80036 17.4514C3.11283 17.4507 1.71793 16.2921 1.41061 14.6295C1.37578 14.441 1.36588 14.2457 1.36588 14.0538C1.36315 10.8044 1.36383 7.55462 1.36383 4.30522C1.36383 4.23863 1.36383 4.17205 1.36383 4.08976C1.12685 4.08976 0.906607 4.09112 0.686702 4.08976C0.290258 4.08736 -0.0020381 3.79268 1.07036e-05 3.40102C0.00205951 3.02062 0.296404 2.72867 0.684994 2.72798C1.7531 2.72662 2.82156 2.7273 3.88967 2.7273C3.95079 2.7273 4.01225 2.7273 4.09079 2.7273C4.09079 2.49852 4.09079 2.28408 4.09079 2.06998C4.09147 1.06504 4.75665 0.243466 5.73769 0.0348297C5.7691 0.0280003 5.79881 0.0119514 5.8292 0C6.94273 0 8.05659 0 9.17012 0L9.17046 0.000341467ZM5.45564 2.71637H9.54368C9.54368 2.47359 9.55597 2.24105 9.54095 2.01022C9.51705 1.64485 9.23841 1.37065 8.87236 1.36724C7.95859 1.3587 7.04448 1.35904 6.13072 1.36724C5.75817 1.37065 5.47646 1.65373 5.45768 2.02456C5.44642 2.25027 5.45564 2.47735 5.45564 2.71671V2.71637Z" fill="#A3AEBD"/>
<path d="M5.45422 10.7794C5.45422 11.8646 5.4549 12.9495 5.45387 14.0346C5.45353 14.3833 5.21382 14.6708 4.88772 14.721C4.53601 14.7749 4.21469 14.5718 4.11566 14.2276C4.09722 14.1634 4.0921 14.0937 4.0921 14.0264C4.09108 11.8564 4.09074 9.6864 4.09142 7.51603C4.09142 7.11378 4.37996 6.81875 4.76821 6.81739C5.1667 6.81602 5.45387 7.11037 5.45422 7.52423C5.45524 8.60941 5.45422 9.69425 5.45422 10.7794Z" fill="#A3AEBD"/>
<path d="M8.1817 10.7719C8.1817 11.8625 8.18273 12.9532 8.18102 14.0442C8.18068 14.389 7.93175 14.6786 7.60599 14.7227C7.25598 14.7698 6.94593 14.5741 6.84554 14.2361C6.82505 14.1671 6.81925 14.0913 6.81925 14.0185C6.81788 11.854 6.81788 9.68976 6.81856 7.5252C6.81856 7.11134 7.10574 6.81734 7.50423 6.81836C7.89931 6.81973 8.18102 7.11612 8.18136 7.53408C8.18204 8.61346 8.18136 9.69283 8.18136 10.7722L8.1817 10.7719Z" fill="#A3AEBD"/>
<path d="M9.54596 10.7711C9.54596 9.68048 9.54493 8.58983 9.54664 7.49884C9.54698 7.15396 9.79591 6.86372 10.121 6.82035C10.4724 6.77357 10.7817 6.96889 10.8818 7.3066C10.9023 7.37592 10.9084 7.45138 10.9084 7.52411C10.9098 9.68867 10.9098 11.8529 10.9091 14.0175C10.9091 14.431 10.6212 14.726 10.2234 14.725C9.82938 14.724 9.5463 14.4259 9.5463 14.0093C9.54562 12.9299 9.5463 11.8505 9.5463 10.7711H9.54596Z" fill="#A3AEBD"/>
</svg>
