<svg width="77" height="76" viewBox="0 0 77 76" fill="none" xmlns="http://www.w3.org/2000/svg">
<rect x="0.330078" width="76" height="76" rx="38" fill="#3960FF"/>
<path d="M50.3184 31.9883H45.8184V26.0117H24.8301C24.0098 26.0117 23.3066 26.3047 22.7207 26.8906C22.1348 27.4766 21.8418 28.1797 21.8418 29V45.4883H24.8301C24.8301 46.7305 25.2695 47.791 26.1484 48.6699C27.0273 49.5488 28.0879 49.9883 29.3301 49.9883C30.5723 49.9883 31.6328 49.5488 32.5117 48.6699C33.3906 47.791 33.8301 46.7305 33.8301 45.4883H42.8301C42.8301 46.7305 43.2695 47.791 44.1484 48.6699C45.0273 49.5488 46.0879 49.9883 47.3301 49.9883C48.5723 49.9883 49.6328 49.5488 50.5117 48.6699C51.3906 47.791 51.8301 46.7305 51.8301 45.4883H54.8184V38L50.3184 31.9883ZM49.5801 34.2383L52.5332 38H45.8184V34.2383H49.5801ZM29.3301 47C28.9082 47 28.5508 46.8535 28.2578 46.5605C27.9648 46.2676 27.8184 45.9102 27.8184 45.4883C27.8184 45.0898 27.9648 44.7441 28.2578 44.4512C28.5508 44.1582 28.9082 44.0117 29.3301 44.0117C29.752 44.0117 30.1094 44.1582 30.4023 44.4512C30.6953 44.7441 30.8418 45.0898 30.8418 45.4883C30.8418 45.9102 30.6953 46.2676 30.4023 46.5605C30.1094 46.8535 29.752 47 29.3301 47ZM32.6699 42.5C32.248 42.0312 31.75 41.6621 31.1758 41.3926C30.6016 41.123 29.9863 40.9883 29.3301 40.9883C28.6738 40.9883 28.0586 41.123 27.4844 41.3926C26.9102 41.6621 26.4121 42.0312 25.9902 42.5H24.8301V29H42.8301V42.5H32.6699ZM47.3301 47C46.9082 47 46.5508 46.8535 46.2578 46.5605C45.9648 46.2676 45.8184 45.9102 45.8184 45.4883C45.8184 45.0898 45.9648 44.7441 46.2578 44.4512C46.5508 44.1582 46.9082 44.0117 47.3301 44.0117C47.752 44.0117 48.1094 44.1582 48.4023 44.4512C48.6953 44.7441 48.8418 45.0898 48.8418 45.4883C48.8418 45.9102 48.6953 46.2676 48.4023 46.5605C48.1094 46.8535 47.752 47 47.3301 47Z" fill="#F5F5F7"/>
</svg>
