<svg width="77" height="76" viewBox="0 0 77 76" fill="none" xmlns="http://www.w3.org/2000/svg">
<rect x="0.120117" width="76" height="76" rx="38" fill="#3960FF"/>
<path d="M38.1201 21.5117L24.6201 27.4883V36.4883C24.6201 38.5742 24.96 40.6016 25.6396 42.5703C26.3193 44.5156 27.2627 46.2969 28.4697 47.9141C29.6768 49.5312 31.1006 50.9141 32.7412 52.0625C34.3818 53.2109 36.1748 54.0195 38.1201 54.4883C40.0654 54.0195 41.8584 53.2109 43.499 52.0625C45.1396 50.9141 46.5635 49.5312 47.7705 47.9141C48.9775 46.2969 49.9209 44.5156 50.6006 42.5703C51.2803 40.6016 51.6201 38.5742 51.6201 36.4883V27.4883L38.1201 21.5117ZM48.6318 36.4883C48.6318 38.1992 48.3623 39.8398 47.8232 41.4102C47.3076 43.0039 46.5811 44.4629 45.6436 45.7871C44.7061 47.1113 43.5928 48.2656 42.3037 49.25C41.0146 50.2109 39.6201 50.9258 38.1201 51.3945C36.6201 50.9258 35.2256 50.2109 33.9365 49.25C32.6475 48.2656 31.5342 47.1113 30.5967 45.7871C29.6592 44.4629 28.9326 43.0039 28.417 41.4102C27.8779 39.8398 27.6084 38.1992 27.6084 36.4883V29.457L38.1201 24.7812L48.6318 29.457V36.4883ZM31.2295 37.4023L29.1201 39.5117L35.1318 45.4883L47.1201 33.5L45.0107 31.3555L35.1318 41.2695L31.2295 37.4023Z" fill="#F5F5F7"/>
</svg>
