<svg width="77" height="76" viewBox="0 0 77 76" fill="none" xmlns="http://www.w3.org/2000/svg">
<rect x="0.330078" width="76" height="76" rx="38" fill="#3960FF"/>
<path d="M51.127 27.8398L49.0527 25.3086C48.8418 25.0742 48.5898 24.8809 48.2969 24.7285C48.0039 24.5762 47.6816 24.5 47.3301 24.5H29.3301C28.9785 24.5 28.6504 24.5762 28.3457 24.7285C28.041 24.8809 27.7949 25.0742 27.6074 25.3086L25.5332 27.8398C25.2988 28.0977 25.123 28.3906 25.0059 28.7188C24.8887 29.0469 24.8301 29.3867 24.8301 29.7383V48.5117C24.8301 49.332 25.123 50.0352 25.709 50.6211C26.2949 51.207 26.998 51.5 27.8184 51.5H48.8418C49.6621 51.5 50.3652 51.207 50.9512 50.6211C51.5371 50.0352 51.8301 49.332 51.8301 48.5117V29.7383C51.8301 29.3867 51.7715 29.0469 51.6543 28.7188C51.5371 28.3906 51.3613 28.0977 51.127 27.8398ZM29.6816 27.4883H46.9785L48.1738 28.9648H28.4863L29.6816 27.4883ZM27.8184 48.5117V31.9883H48.8418V48.5117H27.8184ZM40.5098 35.0117H36.1504V39.5117H32.3184L38.3301 45.4883L44.3418 39.5117H40.5098V35.0117Z" fill="#F5F5F7"/>
</svg>
