<svg width="25" height="25" viewBox="0 0 25 25" fill="none" xmlns="http://www.w3.org/2000/svg">
<g opacity="0.2">
<path d="M24.3207 12.9682C24.3207 12.1611 24.2517 11.3881 24.1345 10.6357H12.4082V15.4168H19.1503C18.8263 16.8874 17.9715 18.1391 16.703 18.9941L18.2551 20.1998L20.6256 22.0105C22.9626 19.8765 24.3207 16.7164 24.3207 12.9682Z" fill="#262424"/>
<path d="M12.4084 24.9999C15.7588 24.9999 18.5645 23.8987 20.6189 22.0177L16.6963 19.0013C15.5726 19.7605 14.1181 20.212 12.4084 20.212C9.14763 20.212 6.37633 18.0369 5.37673 15.0957L3.62942 16.4395L1.33008 18.2079C3.37064 22.2366 7.56205 24.9999 12.4084 24.9999Z" fill="#262424"/>
<path d="M5.37715 15.0954C5.11519 14.3362 4.97041 13.5291 4.97041 12.6878C4.97041 11.8465 5.11518 11.0394 5.37715 10.2801L3.5907 8.90622L1.3305 7.16797C0.489455 8.83007 0 10.6974 0 12.6878C0 14.6782 0.489455 16.5455 1.3305 18.2076L5.37715 15.0954Z" fill="#262424"/>
<path d="M12.4084 5.16391C14.2559 5.16391 15.9173 5.79319 17.2271 7.03121V7.03806L20.7085 3.58391C18.5576 1.59348 15.7588 0.375977 12.4084 0.375977C7.56206 0.375977 3.37065 3.13931 1.33008 7.16802L5.37673 10.2802C6.37633 7.33902 9.14763 5.16391 12.4084 5.16391Z" fill="#262424"/>
</g>
<path d="M24.9984 12.5922C24.9984 11.7851 24.9295 11.0122 24.8123 10.2598H13.0859V15.0409H19.8281C19.5041 16.5115 18.6492 17.7631 17.3808 18.6181L18.9329 19.8238L21.3033 21.6345C23.6403 19.5005 24.9984 16.3405 24.9984 12.5922Z" fill="#262424"/>
<path d="M13.0861 24.6239C16.4365 24.6239 19.2423 23.5227 21.2966 21.6417L17.3741 18.6253C16.2504 19.3845 14.7958 19.836 13.0861 19.836C9.82536 19.836 7.05406 17.6609 6.05446 14.7197L4.30715 16.0635L2.00781 17.8319C4.04837 21.8606 8.23978 24.6239 13.0861 24.6239Z" fill="#262424"/>
<path d="M6.05488 14.7195C5.79292 13.9602 5.64814 13.1531 5.64814 12.3118C5.64814 11.4705 5.79291 10.6634 6.05488 9.90416L4.26844 8.53025L2.00823 6.79199C1.16719 8.4541 0.677734 10.3214 0.677734 12.3118C0.677734 14.3022 1.16719 16.1695 2.00823 17.8316L6.05488 14.7195Z" fill="#262424"/>
<path d="M13.0861 4.78794C14.9337 4.78794 16.5951 5.41721 17.9049 6.65524V6.66208L21.3862 3.20793C19.2354 1.21751 16.4365 0 13.0861 0C8.2398 0 4.04838 2.76333 2.00781 6.79204L6.05446 9.90421C7.05406 6.96304 9.82537 4.78794 13.0861 4.78794Z" fill="#262424"/>
</svg>
