<svg width="60" height="60" viewBox="0 0 60 60" fill="none" xmlns="http://www.w3.org/2000/svg">
<g filter="url(#filter0_d_9_2435)">
<rect x="50" y="50" width="40" height="40" rx="20" transform="rotate(180 50 50)" fill="white" fill-opacity="0.3" shape-rendering="crispEdges"/>
<g clip-path="url(#clip0_9_2435)">
<path d="M28.3691 34.9395C28.1699 35.1153 27.9297 35.2032 27.6484 35.2032C27.3555 35.2149 27.1094 35.127 26.9102 34.9395C26.4648 34.4942 26.4648 34.0196 26.9102 33.5157L30.2852 30.0001L26.9102 26.4844C26.4648 25.9805 26.4648 25.5059 26.9102 25.0606C27.1094 24.8731 27.3555 24.7852 27.6484 24.7969C27.9297 24.7969 28.1699 24.8848 28.3691 25.0606L32.4121 29.2969C32.623 29.4962 32.7285 29.7305 32.7285 30.0001C32.7285 30.2696 32.623 30.504 32.4121 30.7032C29.9629 33.2813 28.6152 34.6934 28.3691 34.9395Z" fill="white"/>
</g>
</g>
<defs>
<filter id="filter0_d_9_2435" x="0" y="0" width="60" height="60" filterUnits="userSpaceOnUse" color-interpolation-filters="sRGB">
<feFlood flood-opacity="0" result="BackgroundImageFix"/>
<feColorMatrix in="SourceAlpha" type="matrix" values="0 0 0 0 0 0 0 0 0 0 0 0 0 0 0 0 0 0 127 0" result="hardAlpha"/>
<feOffset/>
<feGaussianBlur stdDeviation="5"/>
<feComposite in2="hardAlpha" operator="out"/>
<feColorMatrix type="matrix" values="0 0 0 0 0.117647 0 0 0 0 0.117647 0 0 0 0 0.117647 0 0 0 0.1 0"/>
<feBlend mode="normal" in2="BackgroundImageFix" result="effect1_dropShadow_9_2435"/>
<feBlend mode="normal" in="SourceGraphic" in2="effect1_dropShadow_9_2435" result="shape"/>
</filter>
<clipPath id="clip0_9_2435">
<rect width="6.66" height="18" fill="white" transform="matrix(-1 0 0 1 33 21)"/>
</clipPath>
</defs>
</svg>
