<svg width="60" height="60" viewBox="0 0 60 60" fill="none" xmlns="http://www.w3.org/2000/svg">
<g filter="url(#filter0_d_1_3675)">
<rect x="10" y="10" width="40" height="40" rx="20" fill="white" fill-opacity="0.3" shape-rendering="crispEdges"/>
<g clip-path="url(#clip0_1_3675)">
<path d="M31.6309 25.0605C31.8301 24.8847 32.0703 24.7968 32.3516 24.7968C32.6445 24.7851 32.8906 24.873 33.0898 25.0605C33.5352 25.5058 33.5352 25.9804 33.0898 26.4843L29.7148 29.9999L33.0898 33.5156C33.5352 34.0195 33.5352 34.4941 33.0898 34.9394C32.8906 35.1269 32.6445 35.2148 32.3516 35.2031C32.0703 35.2031 31.8301 35.1152 31.6309 34.9394L27.5879 30.7031C27.377 30.5038 27.2715 30.2695 27.2715 29.9999C27.2715 29.7304 27.377 29.496 27.5879 29.2968C30.0371 26.7187 31.3848 25.3066 31.6309 25.0605Z" fill="white"/>
</g>
</g>
<defs>
<filter id="filter0_d_1_3675" x="0" y="0" width="60" height="60" filterUnits="userSpaceOnUse" color-interpolation-filters="sRGB">
<feFlood flood-opacity="0" result="BackgroundImageFix"/>
<feColorMatrix in="SourceAlpha" type="matrix" values="0 0 0 0 0 0 0 0 0 0 0 0 0 0 0 0 0 0 127 0" result="hardAlpha"/>
<feOffset/>
<feGaussianBlur stdDeviation="5"/>
<feComposite in2="hardAlpha" operator="out"/>
<feColorMatrix type="matrix" values="0 0 0 0 0.117647 0 0 0 0 0.117647 0 0 0 0 0.117647 0 0 0 0.1 0"/>
<feBlend mode="normal" in2="BackgroundImageFix" result="effect1_dropShadow_1_3675"/>
<feBlend mode="normal" in="SourceGraphic" in2="effect1_dropShadow_1_3675" result="shape"/>
</filter>
<clipPath id="clip0_1_3675">
<rect width="6.66" height="18" fill="white" transform="matrix(1 0 0 -1 27 39)"/>
</clipPath>
</defs>
</svg>
