<?xml version="1.0" encoding="UTF-8"?>
<!DOCTYPE svg PUBLIC "-//W3C//DTD SVG 1.1//EN" "http://www.w3.org/Graphics/SVG/1.1/DTD/svg11.dtd">
<svg xmlns="http://www.w3.org/2000/svg" version="1.1" width="256px" height="256px" style="shape-rendering:geometricPrecision; text-rendering:geometricPrecision; image-rendering:optimizeQuality; fill-rule:evenodd; clip-rule:evenodd" xmlns:xlink="http://www.w3.org/1999/xlink">
<g><path style="opacity:1" fill="#fdfdfd" d="M -0.5,-0.5 C 84.8333,-0.5 170.167,-0.5 255.5,-0.5C 255.5,84.8333 255.5,170.167 255.5,255.5C 170.167,255.5 84.8333,255.5 -0.5,255.5C -0.5,170.167 -0.5,84.8333 -0.5,-0.5 Z"/></g>
<g><path style="opacity:1" fill="#0d0d0d" d="M 114.5,12.5 C 151.697,9.50905 179.197,24.1757 197,56.5C 204.556,73.1423 206.556,90.4757 203,108.5C 194.568,143.202 178.401,173.702 154.5,200C 168.145,201.395 181.145,205.062 193.5,211C 201.111,216.604 201.444,222.604 194.5,229C 179.402,236.409 163.402,240.409 146.5,241C 122.242,242.794 98.2422,241.128 74.5,236C 70.0658,234.617 65.7324,232.95 61.5,231C 50.577,223.134 50.9104,215.801 62.5,209C 73.8596,204.772 85.5263,201.605 97.5,199.5C 71.9387,172.733 55.772,141.067 49,104.5C 45.4688,55.5614 67.3021,24.8948 114.5,12.5 Z"/></g>
<g><path style="opacity:1" fill="#fafafa" d="M 115.5,18.5 C 159.019,16.5431 186.186,36.5431 197,78.5C 198.648,103.244 193.648,126.577 182,148.5C 167.582,174.966 149.082,198.3 126.5,218.5C 94.8312,192.167 72.3312,159.5 59,120.5C 47.2138,82.7523 57.0472,52.2523 88.5,29C 97.1776,24.3145 106.178,20.8145 115.5,18.5 Z"/></g>
<g><path style="opacity:1" fill="#0a0a0c" d="M 118.5,40.5 C 140.085,38.8453 156.918,46.8453 169,64.5C 178.765,81.4347 178.765,98.4347 169,115.5C 153.965,137.151 133.798,143.984 108.5,136C 85.4376,124.717 75.2709,106.217 78,80.5C 83.4357,58.897 96.9357,45.5637 118.5,40.5 Z"/></g>
<g><path style="opacity:1" fill="#0089fd" d="M 117.5,46.5 C 144.031,44.5488 161.197,56.2155 169,81.5C 171.398,108.551 159.565,125.717 133.5,133C 107.401,135.036 90.5676,123.536 83,98.5C 80.7689,71.9216 92.2689,54.5883 117.5,46.5 Z"/></g>
<g><path style="opacity:1" fill="#f9f9f9" d="M 97.5,206.5 C 99.8568,206.337 102.19,206.503 104.5,207C 111.118,214.46 118.451,220.96 126.5,226.5C 134.756,220.581 142.423,213.915 149.5,206.5C 163.813,207.659 177.479,211.159 190.5,217C 192.602,218.733 192.935,220.733 191.5,223C 177.695,229.831 163.028,233.498 147.5,234C 123.954,235.671 100.621,234.337 77.5,230C 72.3189,228.455 67.3189,226.455 62.5,224C 61.3128,222.981 60.3128,221.814 59.5,220.5C 61.4172,217.417 64.0838,215.25 67.5,214C 77.4247,210.655 87.4247,208.155 97.5,206.5 Z"/></g>
</svg>