<svg width="19" height="16" viewBox="0 0 19 16" fill="none" xmlns="http://www.w3.org/2000/svg">
<mask id="mask0_327_632" style="mask-type:luminance" maskUnits="userSpaceOnUse" x="0" y="0" width="19" height="16">
<path d="M19 0H0V16H19V0Z" fill="white"/>
</mask>
<g mask="url(#mask0_327_632)">
<path d="M13.2105 0.00306154L13.2792 0.00392794C16.3533 -0.0316393 18.9677 2.31419 18.9966 5.1985C19.0091 6.43827 18.5405 7.69662 17.6522 8.62943C17.3644 8.93168 17.0328 9.20459 16.7264 9.49112L10.0853 15.6764C9.60036 16.1347 9.36407 16.0786 8.89834 15.648L6.71377 13.6153L1.56444 8.84296C-1.60125 5.89339 0.324826 0.687913 4.81612 0.0599919C6.55779 -0.183494 8.24904 0.36113 9.4948 1.52368C10.5018 0.595315 11.7693 0.022247 13.2105 0.00306154ZM5.49548 1.086C5.2229 1.10737 4.95166 1.13142 4.68438 1.18829C1.68901 1.82556 0.183834 5.08828 1.86644 7.46358C2.19037 7.92091 2.64141 8.28873 3.05815 8.67162L9.50493 14.6654L12.469 11.903L16.3465 8.29759C16.6291 8.03986 16.9118 7.77902 17.1244 7.4659C18.546 5.374 17.6633 2.67379 15.3696 1.54424C13.6558 0.700198 11.8158 1.02221 10.4265 2.2098L10.0942 2.51062C9.95746 2.63903 9.82733 2.78344 9.63171 2.83057L9.61156 2.83564C9.20054 2.91099 8.86832 2.46872 8.61509 2.24124C7.75527 1.4688 6.6889 1.04695 5.49548 1.086Z" fill="#3960FF"/>
</g>
<path d="M5.81002 2.6151L6.01269 2.60941C7.19655 2.60442 7.7541 3.0736 8.54581 3.77095L9.49758 4.61885L10.8206 3.45789C11.2081 3.14063 11.4698 2.93669 11.9598 2.78149C14.745 1.89931 17.4121 4.75039 15.7998 7.07832C15.6745 7.25919 15.5131 7.41526 15.3524 7.56888L12.6873 9.97731L11.3941 11.1449C11.0425 11.455 10.0638 12.3632 9.56269 12.4144C8.88803 12.4834 7.08991 10.6751 6.62778 10.2503L3.94138 7.82506C3.68877 7.59678 3.41874 7.38889 3.21889 7.11543C1.97457 5.41295 3.17509 3.11858 5.27888 2.68159C5.4556 2.64487 5.63011 2.63035 5.81002 2.6151Z" fill="#3960FF"/>
</svg>
