<svg width="16" height="19" viewBox="0 0 16 19" fill="none" xmlns="http://www.w3.org/2000/svg">
<path d="M6.55383 10.0518C6.64516 9.95131 6.74543 9.85844 6.85652 9.77595C7.19197 9.52685 7.5923 9.39729 8.06608 9.39729C9.33639 9.39729 10.2714 10.5357 10.2714 11.8127V11.8142C10.2667 13.3865 9.21847 14.4288 8.21482 15.4268C8.19295 15.4486 8.1711 15.4703 8.14929 15.492L8.14765 15.4936C7.78893 15.8473 7.4268 16.2144 7.05822 16.624L6.75463 16.3508L6.54578 16.5798L6.34022 16.3544L6.17635 16.1747C5.85895 15.8267 5.54794 15.5145 5.23703 15.2045C5.23693 15.2044 5.23683 15.2043 5.23673 15.2042C5.22561 15.1931 5.2145 15.182 5.20339 15.1709L5.20285 15.1704C5.17476 15.1423 5.14665 15.1142 5.11855 15.0862C4.164 14.1329 3.21836 13.1886 3.21836 11.8127C3.21836 10.7751 3.98041 9.83097 5.03756 9.83097C5.0389 9.83097 5.04024 9.83097 5.04158 9.83097C5.43901 9.83162 5.80223 9.92934 6.12205 10.2041C6.18464 10.2579 6.24368 10.317 6.29974 10.3808L6.55383 10.0518ZM6.55383 10.0518C6.4625 9.95131 6.36223 9.85844 6.25114 9.77595C5.91569 9.52685 5.51536 9.39729 5.04158 9.39729C3.77127 9.39729 2.83627 10.5357 2.83627 11.8127C2.83627 13.3895 3.88585 14.4334 4.89237 15.4343C4.9117 15.4536 4.93102 15.4728 4.95032 15.492L4.95196 15.4936C5.31255 15.8491 5.67292 16.2101 6.03962 16.622C6.3149 16.9312 6.78472 16.9312 7.06 16.622L6.75496 16.3504L6.91522 16.1747C7.234 15.8252 7.54633 15.5118 7.85859 15.2004C7.85869 15.2003 7.85878 15.2002 7.85888 15.2001C7.86865 15.1904 7.87841 15.1807 7.88818 15.1709C7.91363 15.1456 7.9391 15.1203 7.96456 15.0949C8.92212 14.1427 9.87209 13.198 9.87321 11.8152L6.55383 10.0518ZM7.17736 11.6911L7.17738 11.6911L7.17914 11.6872C7.36423 11.2735 7.50865 11.0689 7.63229 10.9626C7.73125 10.8776 7.84463 10.831 8.06206 10.831C8.46117 10.831 8.87907 11.2145 8.87324 11.8078H8.87321V11.8127C8.87321 12.7407 8.25024 13.3995 7.18243 14.4625L7.18219 14.4627C6.97611 14.6681 6.76336 14.8806 6.54579 15.1069C6.32826 14.8806 6.11555 14.6682 5.90952 14.4628C4.84092 13.3944 4.21836 12.7362 4.21836 11.8127C4.21836 11.215 4.63876 10.831 5.03756 10.831C5.25793 10.831 5.37195 10.8781 5.47034 10.9626C5.59326 11.0682 5.73666 11.2721 5.91968 11.6854L5.91965 11.6854L5.92225 11.6911C6.03677 11.9412 6.27853 12.1015 6.54981 12.1015C6.82108 12.1015 7.06284 11.9412 7.17736 11.6911ZM7.48564 5.17057V6.78475C7.48564 7.54227 8.04659 8.26052 8.85438 8.26052C9.66217 8.26052 10.2231 7.54227 10.2231 6.78475V5.17057H10.8398L12.0243 18.5H0.503127L1.69146 5.17057H2.36973V6.78475C2.36973 7.54227 2.93068 8.26052 3.73847 8.26052C4.54626 8.26052 5.10721 7.54227 5.10721 6.78475V5.17057H7.48564ZM12.2335 5.17057H12.5999L13.6407 16.8476L13.3123 17.3001L12.2335 5.17057ZM14.6758 18.5H14.1751L14.4032 18.1858L14.6758 18.5ZM14.312 5.16606L15.3771 17.1577L15.0251 16.7525L13.9939 5.16606H14.312ZM9.27623 0.590654C9.25377 0.561857 9.23097 0.533358 9.20784 0.50517C10.1089 0.519129 10.9747 1.088 11.4207 2.00938C10.9932 1.19674 10.2078 0.62057 9.27623 0.590654ZM4.17516 1.82306C4.63998 1.02072 5.43816 0.50854 6.29642 0.50854C6.95056 0.50854 7.58749 0.833629 8.05998 1.36232C7.60635 0.889966 6.99251 0.592734 6.29642 0.592734C5.39494 0.592734 4.6314 1.09125 4.17516 1.82306Z" stroke="#3960FF"/>
</svg>
