<?xml version="1.0" encoding="UTF-8"?>
<!DOCTYPE svg PUBLIC "-//W3C//DTD SVG 1.1//EN" "http://www.w3.org/Graphics/SVG/1.1/DTD/svg11.dtd">
<svg xmlns="http://www.w3.org/2000/svg" version="1.1" width="256px" height="256px" style="shape-rendering:geometricPrecision; text-rendering:geometricPrecision; image-rendering:optimizeQuality; fill-rule:evenodd; clip-rule:evenodd" xmlns:xlink="http://www.w3.org/1999/xlink">
<g><path style="opacity:1" fill="#fbfbfb" d="M -0.5,-0.5 C 84.8333,-0.5 170.167,-0.5 255.5,-0.5C 255.5,84.8333 255.5,170.167 255.5,255.5C 170.167,255.5 84.8333,255.5 -0.5,255.5C -0.5,170.167 -0.5,84.8333 -0.5,-0.5 Z"/></g>
<g><path style="opacity:1" fill="#0b0c0c" d="M 139.5,210.5 C 127.011,209.505 114.344,209.171 101.5,209.5C 101.263,210.791 101.596,211.791 102.5,212.5C 108.426,224.845 105.093,234.012 92.5,240C 81.5615,242.447 73.7282,238.614 69,228.5C 67.7548,222.294 68.5881,216.461 71.5,211C 66.8333,210.667 62.1667,210.333 57.5,210C 50.9266,207.353 48.0933,202.519 49,195.5C 52.3381,189.347 55.8381,183.347 59.5,177.5C 53.1024,143.22 46.9357,108.886 41,74.5C 32.912,73.6827 24.7453,73.1827 16.5,73C 13.8333,71 13.8333,69 16.5,67C 26.1667,66.3333 35.8333,66.3333 45.5,67C 46.8932,68.1711 47.7265,69.6711 48,71.5C 48.5482,75.1704 49.0482,78.8371 49.5,82.5C 49.5,83.5 49.5,84.5 49.5,85.5C 76.5,85.5 103.5,85.5 130.5,85.5C 130.768,83.901 130.434,82.5676 129.5,81.5C 125.691,53.9541 135.691,33.1208 159.5,19C 186.51,8.46226 210.01,13.6289 230,34.5C 242.255,52.0343 244.922,71.0343 238,91.5C 230.361,108.473 217.694,119.806 200,125.5C 196.656,136.847 193.323,148.181 190,159.5C 188.355,164.606 186.188,169.439 183.5,174C 181.833,175 180.167,176 178.5,177C 140.813,178.701 103.146,180.701 65.5,183C 61.4152,187.574 58.4152,192.74 56.5,198.5C 56.1484,200.924 57.1484,202.424 59.5,203C 100.833,203.333 142.167,203.667 183.5,204C 184.833,206 184.833,208 183.5,210C 179.129,210.172 174.796,210.672 170.5,211.5C 176.273,224.256 172.94,233.756 160.5,240C 142.872,241.371 135.039,233.204 137,215.5C 138.094,213.922 138.928,212.255 139.5,210.5 Z"/></g>
<g><path style="opacity:1" fill="#1e7a87" d="M 192.5,21.5 C 186.137,21.407 179.804,21.7403 173.5,22.5C 176.865,20.9608 180.531,20.2942 184.5,20.5C 187.355,20.5025 190.022,20.8359 192.5,21.5 Z"/></g>
<g><path style="opacity:1" fill="#038bfb" d="M 192.5,21.5 C 226.107,30.7109 239.274,52.3775 232,86.5C 219.989,112.424 199.823,122.924 171.5,118C 145.316,107.818 133.816,88.6518 137,60.5C 141.564,40.4373 153.731,27.7706 173.5,22.5C 179.804,21.7403 186.137,21.407 192.5,21.5 Z"/></g>
<g><path style="opacity:1" fill="#061111" d="M 206.5,43.5 C 211.549,44.311 212.715,46.9777 210,51.5C 199.957,66.4202 189.79,81.2535 179.5,96C 178.167,96.6667 176.833,96.6667 175.5,96C 170,90.5 164.5,85 159,79.5C 158.661,75.5126 160.494,74.0126 164.5,75C 168.167,78.6667 171.833,82.3333 175.5,86C 176.167,86.6667 176.833,86.6667 177.5,86C 187.053,71.7178 196.72,57.5512 206.5,43.5 Z"/></g>
<g><path style="opacity:1" fill="#dcdcdc" d="M 129.5,81.5 C 130.434,82.5676 130.768,83.901 130.5,85.5C 103.5,85.5 76.5,85.5 49.5,85.5C 49.5,84.5 49.5,83.5 49.5,82.5C 75.94,84.4773 102.607,85.144 129.5,84.5C 129.5,83.5 129.5,82.5 129.5,81.5 Z"/></g>
<g><path style="opacity:1" fill="#8a8a8a" d="M 133.5,93.5 C 106.5,93.5 79.5,93.5 52.5,93.5C 52.5,94.8333 52.5,96.1667 52.5,97.5C 51.5489,96.0813 51.2155,94.4147 51.5,92.5C 79.0051,92.1688 106.338,92.5021 133.5,93.5 Z"/></g>
<g><path style="opacity:1" fill="#f9f9f9" d="M 133.5,93.5 C 145.315,117.415 164.649,128.415 191.5,126.5C 188.289,138.893 184.789,151.226 181,163.5C 180.322,166.267 178.822,168.434 176.5,170C 144.771,171.082 113.104,172.582 81.5,174.5C 75.8652,175.037 70.5318,174.37 65.5,172.5C 61.4858,147.414 57.1525,122.414 52.5,97.5C 52.5,96.1667 52.5,94.8333 52.5,93.5C 79.5,93.5 106.5,93.5 133.5,93.5 Z"/></g>
<g><path style="opacity:1" fill="#0c0c0c" d="M 72.5,112.5 C 90.5031,112.333 108.503,112.5 126.5,113C 129.167,115 129.167,117 126.5,119C 108.833,119.667 91.1667,119.667 73.5,119C 71.1656,117.158 70.8323,114.991 72.5,112.5 Z"/></g>
<g><path style="opacity:1" fill="#070707" d="M 77.5,142.5 C 107.502,142.333 137.502,142.5 167.5,143C 169.698,144.67 170.032,146.67 168.5,149C 137.833,149.667 107.167,149.667 76.5,149C 75.1443,146.586 75.4776,144.419 77.5,142.5 Z"/></g>
<g><path style="opacity:1" fill="#b5b5b5" d="M 65.5,172.5 C 70.5318,174.37 75.8652,175.037 81.5,174.5C 76.3595,175.488 71.0262,175.821 65.5,175.5C 65.5,174.5 65.5,173.5 65.5,172.5 Z"/></g>
<g><path style="opacity:1" fill="#2e2e2e" d="M 139.5,210.5 C 126.788,209.854 114.455,210.52 102.5,212.5C 101.596,211.791 101.263,210.791 101.5,209.5C 114.344,209.171 127.011,209.505 139.5,210.5 Z"/></g>
<g><path style="opacity:1" fill="#f5f5f5" d="M 82.5,210.5 C 89.6625,209.331 94.8292,211.998 98,218.5C 98.3446,229.154 93.178,233.987 82.5,233C 76.0919,229.677 73.9252,224.511 76,217.5C 77.6941,214.642 79.8607,212.309 82.5,210.5 Z"/></g>
<g><path style="opacity:1" fill="#f5f5f5" d="M 150.5,210.5 C 163.206,209.695 168.04,215.362 165,227.5C 160.714,233.473 155.214,234.973 148.5,232C 141.318,223.978 141.984,216.811 150.5,210.5 Z"/></g>
</svg>